<?xml version="1.0" encoding="UTF-8"?>
<svg id="Layer_1" data-name="Layer 1" xmlns="http://www.w3.org/2000/svg" viewBox="0 0 488.65 51.5">
  <g>
    <path d="m345.04,27.03c.84-1.65,1.48-3.17,2.45-4.5.71-.97,1.43-1.91,2.57-2.43.82-.37,1.59-.36,2.22.32.66.71.62,1.52.2,2.34-.14.28-.31.59-.7.52-.36-.07-.33-.4-.34-.68-.02-.35,0-.75-.45-.85-.39-.09-.67.18-.9.44-2,2.26-3.46,4.78-3.59,7.88-.05,1.12-.16,2.25.16,3.35.37,1.32.86,1.66,2.22,1.48,1.38-.18,2.49-.91,3.51-1.79,2.38-2.06,4.09-4.61,5.5-7.38,1.24-2.44,2.44-4.9,3.66-7.34.25-.5.52-1.1,1.23-.89.78.22.66.88.59,1.48-.07.58-.15,1.16-.23,1.76.59.05.83-.35,1.13-.6.98-.81,2.02-1.53,3.21-1.99,2.12-.82,3.6-.02,4.09,2.19.26,1.15.28,2.3-.06,3.43-.71,2.31-1.46,4.61-2.15,6.93-.32,1.07-.56,2.17-.81,3.26-.08.36-.27.8.16,1.05.38.22.75,0,1.09-.18,1.31-.67,2.27-1.76,3.22-2.84.44-.5.84-1.04,1.49-1.29.48-.19.47-.64.59-1.04,1.04-3.47,2.52-6.71,5.3-9.15,1.12-.99,2.33-2.01,4.05-1.35.37.14.57-.18.83-.33,1.43-.86,2.97-.43,3.73,1.07.44.86.62,1.79.6,2.75-.03,1.09,0,1.14,1.07.75,2.13-.8,3.98-2.07,5.72-3.5,1.01-.83,1.93-1.73,2.76-2.73.44-.53,1.04-.79,1.67-.34.6.42.55,1.04.24,1.6-1.36,2.46-1.04,5.01-.42,7.57.22.92.59,1.8.84,2.71.19.69.57.78,1.19.6,2.33-.7,3.93-2.24,5.03-4.35.62-1.19,1.04-2.45,1.45-3.72.2-.62.46-1.28,1.27-1.12.81.16.83.87.77,1.52-.24,2.34-.51,4.67-.77,7-.13,1.12-.14,2.24.13,3.35.29,1.19,1.08,1.66,2.28,1.38,1.28-.3,2.13-1.19,2.93-2.13.66-.78,1.23-1.63,1.67-2.55,2.12-4.39,4.38-8.72,6.07-13.3.61-1.65,1.09-3.33,1.5-5.04.08-.34.16-.68.27-1.02.15-.46.41-.86.96-.81.58.04.83.48.91,1.01.15,1.06-.06,2.1-.21,3.14-.1.75.05,1.02.86.87.73-.14,1.48-.01,2.15.35.73.4.73,1.03.02,1.46-.84.51-1.81.56-2.75.58-.57,0-.81.2-.9.76-.65,4.16-1.13,8.34-1.39,12.54-.04.59.07,1.19.18,1.77.28,1.59,1.29,1.99,2.55.98,1.68-1.35,3.11-2.93,4.24-4.78,1.06-1.74,1.88-3.61,2.78-5.43.26-.53.48-1.22,1.25-1.01.79.21.74.91.64,1.57-.43,2.84-1.24,5.62-1.46,8.5-.05.7-.25,1.5.49,1.9.77.4,1.59.08,2.12-.51,1.22-1.35,2.41-2.72,2.93-4.54,1.16-4.12,3.99-6.83,7.65-8.79.71-.38,1.51-.59,2.34-.47.39.06.66-.1.96-.31,1.81-1.22,3.62-.57,4.3,1.53.4,1.23.44,2.49.14,3.74-.23.97.14,1.11.98.86,2.46-.73,4.73-1.79,6.57-3.62,1.12-1.11,2.27-2.2,3.26-3.44.43-.54.96-1.01,1.71-.65.71.34.66,1.02.57,1.65-.1.65-.25,1.29-.43,2.21.79-.83,1.39-1.46,1.99-2.08.59-.61,1.24-1.14,1.99-1.55,2.23-1.21,3.99-.54,4.8,1.87.61,1.81.49,3.66.18,5.51-.37,2.21-1.05,4.37-.94,6.65.04.78,0,1.63.88,1.97.86.33,1.56-.1,2.17-.7.12-.12.25-.25.39-.36.38-.29.83-.53,1.25-.21.42.32.15.78-.01,1.16-.54,1.24-2.57,2.47-3.86,2.35-1.32-.12-2.45-1.24-2.87-2.86-.56-2.15-.05-4.25.37-6.35.35-1.79.76-3.57.67-5.41,0-.18,0-.35-.01-.53-.06-.66-.03-1.44-.72-1.75-.7-.32-1.28.22-1.79.62-1.17.92-2.11,2.05-2.95,3.27-2.15,3.12-3.71,6.52-4.84,10.12-.21.67-.45,1.33-.73,1.97-.28.63-.73,1.11-1.48.78-.7-.31-.81-.93-.57-1.6.56-1.55,1.15-3.09,1.71-4.64.82-2.27,1.3-4.63,1.89-7.01-.55-.04-.7.34-.92.56-2.72,2.72-5.87,4.55-9.78,4.84-.56.04-.76.41-1,.81-1.37,2.32-3.04,4.37-5.19,6.02-.76.58-1.58,1.06-2.46,1.42-2.51,1.03-4.6.29-5.82-2.13-.36-.71-.6-.82-1.16-.2-.84.92-1.84,1.62-3.09,1.91-1.6.37-3.07-.48-3.51-2.06-.16-.58-.2-1.17-.17-1.77.03-.59.07-1.18.13-2.01-1.01,1.38-1.83,2.64-2.93,3.66-.18.17-.34.35-.53.52-1.22,1.1-2.54,1.93-4.28,1.4-1.81-.55-2.54-1.98-2.9-3.68-.54-2.53.05-5.03.24-7.53.03-.34.18-.68.03-1.13-.38.34-.48.78-.67,1.16-1.28,2.57-2.21,5.32-3.73,7.77-.98,1.56-2.17,2.95-3.81,3.86-2.08,1.15-4.34.74-5.56-.98-.65-.92-.85-1.99-.87-3.09-.02-.86,0-1.72,0-2.92-1.09,1.07-2.01,1.86-3.14,2.35-.81.35-1.63.69-2.53.64-.72-.04-1.05.29-1.32.91-.98,2.2-2.78,3.38-5.08,3.82-1.32.25-2.71-.44-3.24-1.47-.58-1.14-.34-2.46.64-3.48.27-.28.56-.61.99-.4.43.21.34.63.31,1.02-.05.64-.43,1.42.25,1.85.73.46,1.5.02,2.17-.36,1.72-.98,2.3-2.37,1.68-4.27-.65-1.98-1.2-3.96-1.11-6.07.03-.74-.24-.77-.79-.37-2.34,1.71-4.8,3.19-7.7,3.75-.5.1-.61.52-.8.89-1.48,2.93-3.68,5.22-6.43,6.94-3.02,1.89-4.94,1.49-7.17-1.34-.99,1.34-2.09,2.55-3.44,3.51-.78.56-1.61,1-2.56,1.2-1.36.27-2.54-.59-2.68-1.98-.08-.78.07-1.53.24-2.29.68-3.02,1.83-5.89,2.68-8.86.29-1.02.5-2.04.47-3.11-.05-1.38-.59-1.78-1.89-1.24-2.13.87-3.64,2.47-4.88,4.34-.66,1-1.11,2.11-1.46,3.25-2.32,7.51-4.17,15.15-5.89,22.81-.05.21-.09.41-.16.61-.19.53-.48,1-1.14.82-.62-.17-.78-.7-.65-1.26.41-1.92.81-3.84,1.3-5.74,1.46-5.63,2.97-11.26,4.45-16.89.04-.16.17-.32.03-.52-.78,1.25-1.51,2.52-2.32,3.73-1.23,1.86-2.76,3.46-4.58,4.75-3.03,2.15-5.41,1.99-8.08-.55-.41-.39-.53-.1-.7.15-.37.53-.79.99-1.39,1.25-1.22.55-2.67.11-3.2-.96-.58-1.18-.1-2.96.97-3.54.37-.2.81-.44,1.17-.08.41.41,0,.76-.23,1.1-.2.29-.42.57-.54.89-.14.36-.23.8.22,1.02.43.21.83.05,1.1-.34.72-1.08.98-2.3,1.08-3.58.2-2.68-.54-5.22-1.06-7.79-.14-.67-.01-1.81-.53-1.9-.64-.11-1,.93-1.41,1.5-1.36,1.87-2.53,3.9-4.19,5.53-2.45,2.4-4.8,4.95-7.71,6.81-1.82,1.16-3.8,1.63-5.74.33-2.03-1.36-2.66-3.43-2.23-5.74.89-4.78,3.79-8.21,7.77-10.77,1.51-.97,3.25-.73,4.07.27.79.96.63,2.41-.62,3.82-2,2.26-4.52,3.78-7.43,4.57-.96.26-1.44.72-1.61,1.66-.11.59-.18,1.18-.18,1.77,0,2.82,1.96,3.98,4.47,2.64,1.19-.64,2.14-1.58,3.17-2.43,4.04-3.33,7.2-7.46,10.51-11.46.58-.7,1.02-1.51,1.55-2.25.22-.31.51-.65.96-.45.42.19.49.6.39.99-.39,1.48,0,2.86.52,4.21.58,1.5.99,3.04,1.47,4.8Zm97.35,2.87c-.02,2.92,1.58,4.13,3.91,2.91,2.62-1.37,4.48-3.54,6.03-6.01.23-.37.27-.7-.09-1.03-1.34-1.23-1.66-2.87-1.77-4.58-.07-1.05-.19-1.17-1.15-.65-2.75,1.49-4.92,3.57-6.3,6.4-.45.92-.66,1.92-.64,2.95Zm-64.72-.07c-.03,2.86,1.02,3.57,3.02,2.49,2.48-1.34,4.4-3.32,5.88-5.72.32-.52.27-.85-.32-1.16-1.7-.89-2.12-2.49-2.22-4.24-.01-.25.28-.59-.09-.74-.27-.11-.52.15-.74.31-.95.67-1.78,1.47-2.48,2.4-1.64,2.15-2.89,4.46-3.05,6.66Zm-53.74-4.14c2.28-.7,4.23-1.87,5.72-3.7.22-.27.64-.61.32-.99-.27-.32-.73-.14-1.09-.02-2.37.81-3.76,2.65-4.95,4.72Zm63.85-3.18c.01-.59-.02-1.11-.23-1.6-.16-.37-.39-.69-.85-.64-.5.06-.55.46-.58.86-.04.57.04,1.11.32,1.62.22.39.46.91.98.79.53-.12.27-.7.35-1.02Zm64.95-1.5c-.03.71.07,1.39.4,2.02.08.16.18.33.37.32.21-.01.25-.21.28-.38.2-.86.29-1.72.07-2.58-.08-.33-.18-.74-.63-.7-.44.04-.46.46-.49.8-.02.17,0,.35,0,.52Z"/>
    <path d="m59.96,28.39c-1.91,1.6-4.09,2.75-6.02,4.26-2.05,1.6-4.26,2.84-7.01,2.75-2.42-.09-3.94-1.18-4.62-3.53-.21-.72-.48-.61-.95-.31-1.59,1.04-3.24,1.97-5.01,2.67-2.73,1.08-4.57.49-6.07-2.03-.5-.84-.81-.35-1.17.03-1.81,1.93-3.89,3.44-6.47,4.16-2.8.78-5.6.94-8.41.06-1.79-.57-3.3-1.55-4.41-3.08-.41-.56-.75-.71-1.35-.24-.66.52-1.4.94-2.12,1.37-.4.24-.89.72-1.31.24-.46-.54.13-.96.47-1.33.69-.75,1.4-1.48,2.26-2.04.4-.26.56-.56.43-1.06-1.37-5.33-.2-10.37,1.89-15.26,2.46-5.78,6.73-10.02,11.91-13.42,1.31-.86,2.76-1.37,4.32-1.59,3.06-.43,5.41,1.56,5.49,4.63.08,3.38-1.55,6.04-3.58,8.53-.2.25-.49.48-.82.29-.42-.25-.22-.63-.05-.92.88-1.56,1.7-3.15,2.21-4.88.33-1.11.56-2.24.33-3.42-.29-1.47-1.11-2.18-2.64-2.17-1.71.01-3.22.66-4.62,1.58-5.9,3.86-9.77,9.17-11.51,16.01-.69,2.7-1.15,5.4-.88,8.21.38,3.87,2.56,5.95,6.4,6.42,5.57.68,9.62-1.75,12.98-5.85.4-.49.46-1.09.62-1.66.72-2.56,1.56-5.04,3.82-6.73,1.21-.9,2.54-1.49,4.02-1.74,1.01-.17,1.96.03,2.85.52,1.59.88,2.07,2.31,1.23,3.92-1.62,3.09-4.39,4.47-7.71,4.73-1.15.09-1.9.44-2.29,1.44-.43,1.1-.14,2.15.6,3.04.73.88,1.69.99,2.68.61,2.01-.76,3.89-1.77,5.61-3.08,1.11-.85,1.87-1.88,2.5-3.15,1.17-2.38,2.9-4.39,5.02-6,.87-.66,1.85-1.16,3.01-1.1.98.06,1.78.42,2.21,1.35.44.95.43,1.91-.14,2.81-.21.33-.48.64-.93.58-.45-.06-.6-.43-.72-.81-.61-1.84-1.27-2.04-2.69-.66-1.9,1.84-3.54,3.89-4.72,6.28-.27.54-.45,1.11-.54,1.7-.2,1.46.76,2.51,2.44,2.67,2.74.26,5.17-.59,7.25-2.29,2.88-2.36,5.39-5.12,7.94-7.83.82-.87,1.57-1.8,2.36-2.69.45-.51.99-.86,1.66-.4.68.47.6,1.12.27,1.78-1.16,2.36-2.56,4.6-3.56,7.04-.41,1.01-.8,2.02-.98,3.1-.06.37-.28.8.12,1.07.37.25.75-.02,1.09-.18,1.57-.76,2.82-1.96,4.11-3.09.71-.63,1.44-1.23,2.25-1.73.33-.2.72-.44,1.07-.13.35.31.17.71,0,1.07-.42.9-1.01,1.68-1.71,2.38-1.6,1.59-3.27,3.1-5.41,3.94-2.62,1.03-4.35-.32-4-3.12.16-1.29.7-2.48,1.04-3.77Zm-25.53-2.92c1.98-.36,3.87-1.24,5.19-3.11.27-.38.51-.83.19-1.26-.32-.44-.86-.33-1.26-.15-1.9.81-3.58,1.93-4.8,3.63-.16.22-.41.46-.22.75.15.22.45.13.9.15Z"/>
    <path d="m272.59,22.94c-1.07,2.47-1.97,4.98-3.43,7.24-1.26,1.96-2.62,3.83-4.78,4.92-2.51,1.26-4.64.23-5.25-2.51-.25-1.12-.11-2.23.04-3.49-.47.31-.55.72-.73,1.05-1,1.83-2.1,3.6-3.99,4.65-1.45.81-2.98,1.23-4.65.69-1.29-.42-2.07-1.25-2.31-2.6-.25-1.48-.11-2.94.17-4.39.33-1.68.69-3.35,1.07-5.14-.54.52-.98.98-1.47,1.4-.25.22-.56.56-.91.25-.3-.26-.09-.6.09-.86,1.1-1.63,2.2-3.25,3.33-4.86.26-.37.64-.57,1.1-.39.48.19.69.6.67,1.09-.02.38-.12.76-.21,1.13-.63,2.62-1.39,5.22-1.72,7.91-.1.77-.15,1.54-.06,2.31.22,1.95,1.46,2.67,3.29,1.89,1.23-.52,2.14-1.45,2.91-2.52,1.86-2.6,2.95-5.57,4.18-8.47.34-.81.63-1.64.98-2.44.24-.57.44-1.32,1.28-1.12.75.18.67.9.64,1.49-.15,2.6-.8,5.12-1.17,7.69-.19,1.32-.44,2.63-.31,3.97.13,1.41.96,1.83,2.18,1.09,1.38-.84,2.37-2.08,3.27-3.38,2.35-3.4,4.14-7.08,5.43-11,.23-.69.29-1.74,1.3-1.66.98.08.75,1.13.92,1.79.38,1.41.61,2.85.7,4.35.98-1.27,1.9-2.55,3.06-3.61,1.29-1.17,2.67-2.17,4.4-2.59,2.24-.55,4.07.42,4.84,2.59.81,2.3.67,4.63-.04,6.92-.44,1.41-.98,2.78-1.43,4.18-.23.73-.45,1.48-.21,2.27.17.55.46.68.93.36.23-.15.46-.33.66-.53,2.06-2.05,3.73-4.3,4.78-7.08,1.59-4.2,4.87-6.69,9.08-7.96,2-.6,3.29.77,2.64,2.78-1.06,3.27-3.54,5.11-6.65,6.24-.26.1-.55.12-.81.23-.76.31-1.94-.1-2.27.79-.52,1.4-.78,2.94-.24,4.43.33.92,1.22.98,2.05.89,1.26-.14,2.32-.77,3.33-1.49,1.74-1.25,3.33-2.69,4.97-4.06.36-.3.81-.96,1.31-.48.41.39-.09.93-.38,1.29-2.06,2.53-4.45,4.67-7.4,6.12-1.3.64-2.68.87-4.08.31-1.33-.53-1.96-1.63-2.27-3.09-.78.87-1.45,1.66-2.17,2.39-1.12,1.13-2.43,1.9-4.09,1.89-1.65-.01-2.62-.91-2.75-2.56-.11-1.36.31-2.64.7-3.91.72-2.35,1.69-4.62,2.1-7.05.21-1.26.46-2.65-.79-3.47-1.24-.82-2.48-.09-3.52.62-3.32,2.26-5.14,5.48-5.84,9.38-.24,1.34-.37,2.71-.61,4.05-.19,1.09-.85,1.67-1.64,1.53-.78-.14-1.1-.79-.91-1.94.54-3.15.52-6.34.71-9.52Zm29.77-3.24c-.25-.83-.83-.56-1.28-.37-2.52,1.08-4.22,3.08-5.68,5.3-.09.14-.22.34-.05.46.11.08.34.07.49.02,2.59-.8,4.86-2.03,6.16-4.56.14-.28.24-.58.35-.86Z"/>
    <path d="m178.64,24.41c-.78.74-1.47,1.55-2.4,2.05-.39.21-.89.56-1.22.07-.32-.47.23-.74.52-1,1.48-1.37,2.69-2.95,3.87-4.57.19-.26.37-.51.58-.75.31-.35.66-.71,1.17-.42.46.26.52.73.42,1.2-.16.74-.36,1.48-.4,2.28.64-.82,1.27-1.65,1.92-2.46.84-1.05,1.82-1.96,3.03-2.56,1.18-.58,2.41-.91,3.58-.02,1.18.89,1.51,2.2,1.29,3.58-.44,2.85-1.43,5.56-2.41,8.27-.36.99-.75,1.97-.84,3.03-.09,1.05.24,1.34,1.29,1.16,1.16-.19,1.9-1.01,2.65-1.8.55-.58.96-1.29,1.65-1.76.45-.31.34-.89.46-1.36,1.06-4.38,3.23-8.03,7-10.64.55-.38,1.16-.65,1.79-.87,2.15-.74,3.88-.08,4.97,1.92.26.48.43.92,1.01.29.26-.28.64-.31.96-.06.42.34.43.79.25,1.24-.63,1.56-1.27,3.12-1.91,4.67-.77,1.88-1.57,3.76-1.9,5.78-.14.87-.48,1.91.47,2.52.97.62,1.77-.15,2.45-.7,2.88-2.32,5.34-5.06,7.62-7.96,1.69-2.15,3.28-4.38,4.91-6.57.25-.34.51-.67.81-.96.22-.21.51-.22.78-.04.23.15.33.4.23.64-1.41,3.74-.69,7.72-1.36,11.54-.33,1.91-1.02,3.66-2.46,5.01-1.5,1.4-3.53,1.06-4.43-.67-.74-1.43-.01-3.25,1.47-3.69.3-.09.65-.24.84.13.16.32-.13.51-.33.69-.23.22-.48.43-.53.76-.06.35-.12.72.16,1,.3.31.66.17.98.03,1.3-.58,2.13-1.61,2.48-2.96.67-2.62.65-5.33.94-8.12-.5.2-.63.59-.83.88-2.33,3.48-5.01,6.67-7.91,9.69-1.1,1.15-2.32,2.15-3.76,2.85-2.53,1.23-4.75-.15-4.8-2.93,0-.37.13-.76-.08-1.11-.41.37-.83.73-1.21,1.11-.65.66-1.38,1.19-2.21,1.6-2.83,1.38-4.96.57-6.51-2.56-.35.9-.71,1.72-1.19,2.49-.98,1.56-2.43,2.29-4.21,2.41-1.67.11-2.99-1.1-3.1-2.77-.07-1.08.29-2.08.64-3.07.81-2.28,1.65-4.55,2.45-6.83.31-.87.41-1.78.44-2.69.04-1.58-.97-2.24-2.43-1.61-.91.39-1.51,1.13-2.1,1.88-2.85,3.66-5.02,7.69-6.54,12.06-1.85,5.33-3.46,10.75-5.43,16.04-.24.64-.34,1.71-1.34,1.39-1.02-.33-.45-1.24-.27-1.9,2.31-8.13,4.87-16.18,7.94-24.07.08-.21.26-.43.09-.77Zm28.14-1.78c0-.07-.02-.14-.03-.21-.25-2.81-1.97-3.79-4.42-2.39-2.59,1.48-4.42,3.67-5.34,6.53-.52,1.62-.7,3.3.18,4.91.7,1.26,1.78,1.53,2.99.71.29-.2.56-.43.81-.67,2.37-2.3,4.01-5.12,5.63-7.96.16-.28.24-.58.18-.91Z"/>
    <path d="m148.11,24.26c-1.36,1.4-2.65,2.87-4.2,4.07-1.15.88-2.51,1.43-3.66,2.26-1.16.83-1.12,2.57-2.12,3.65-.77.84-1.53,1.65-2.7,1.91-1.16.26-2.2-.18-2.59-1.09-.44-.99,0-2.71.83-3.26.21-.14.43-.26.68-.13.26.13.29.38.28.63,0,.14-.03.28-.05.42-.06.5-.46,1.1.13,1.44.58.34,1.18-.03,1.66-.37,1.51-1.09,1.81-2.73,1.76-4.4-.07-1.99-.61-3.93-.64-6.05-.65.28-.95.75-1.29,1.17-2.52,3.12-5.32,5.97-8.2,8.75-.94.91-2.05,1.59-3.22,2.17-2.74,1.36-5.71.23-6.86-2.61-.54-1.33-.77-2.7-.42-4.12.15-.6.2-1.13-.68-1.15-.24,0-.49-.16-.49-.46,0-.3.26-.44.5-.45,1.17-.05,1.49-.91,1.9-1.8,1.16-2.51,2.79-4.62,5.38-5.83.71-.33,1.44-.55,2.23-.53,1.93.05,2.93,1.55,2.18,3.34-.5,1.2-1.39,2.1-2.42,2.86-1.57,1.16-3.31,2-5.2,2.49-.81.21-1.14.65-1.28,1.43-.31,1.74-.31,3.36,1.16,4.64.73.63,1.59.96,2.53.78,1.69-.32,3.38-.94,4.39-2.31,3.22-4.4,7.07-8.27,10.37-12.58.43-.56.82-1.14,1.24-1.7.29-.38.67-.7,1.17-.42.55.3.5.83.24,1.29-1.66,2.98-1.37,6.16-.96,9.34.04.32-.06.8.35.91.3.08.55-.27.78-.47,4.47-3.8,7.73-8.48,10.11-13.8.63-1.41,1.23-2.83,1.88-4.23.23-.5.52-1.13,1.23-.86.69.26.54.9.38,1.45-.28.94-.56,1.88-.87,2.81-.18.55-.12.8.54.69.69-.12,1.4-.13,2.1.03.38.08.78.22.83.69.04.41-.29.6-.6.78-.91.53-1.94.64-2.95.72-.9.07-1.29.5-1.49,1.32-.82,3.38-1.16,6.84-1.63,10.28-.2,1.46-.27,2.93-.22,4.41.03.82.23,1.58,1.12,1.82.89.25,1.66-.07,2.26-.77.68-.8.89-1.81,1.27-2.75.12-.31.18-.82.6-.74.45.08.28.58.27.9-.02,1.34-.45,2.56-1.2,3.65-1.57,2.26-4.72,2.04-5.95-.42-.46-.92-.67-1.91-.7-2.94-.06-2.07-.01-4.14.34-6.19.03-.19.12-.41-.11-.64Zm-27.15,1.04c1.29-.36,2.45-.95,3.54-1.69.82-.55,1.55-1.19,2.06-2.05.16-.28.31-.58.11-.88-.21-.33-.56-.26-.86-.17-2.48.72-3.85,2.56-4.86,4.79Z"/>
    <path d="m96.98,22.39c.98-.86,1.81-1.61,2.67-2.32.57-.47,1.2-.85,1.9-1.11,2.4-.89,4.25.31,4.41,2.85.09,1.54-.3,3-.91,4.39-.6,1.38-1.29,2.73-1.93,4.09-.38.8-.69,1.62-.68,2.52,0,.64.17,1.14,1.01.77.4-.18.9-.46,1.23.05.3.45-.05.87-.32,1.24-.48.66-1.12,1.08-1.97,1.01-.87-.08-1.38-.64-1.67-1.41-.49-1.3-.45-2.63-.02-3.92.55-1.63,1.21-3.21,1.83-4.81.36-.92.64-1.86.79-2.83.1-.63.39-1.44-.27-1.84-.59-.36-1.2.17-1.73.5-1.1.7-2.05,1.59-2.9,2.57-2.19,2.54-3.89,5.4-5.47,8.34-.4.74-.79,1.49-1.22,2.21-.26.44-.65.81-1.21.58-.61-.25-.65-.8-.45-1.34.51-1.34,1.07-2.67,1.61-4,.93-2.27,1.9-4.53,2.25-6.98.05-.37.3-.81-.07-1.08-.41-.29-.81.06-1.16.26-.86.48-1.69,1-2.54,1.49-.38.22-.81.63-1.23.18-.44-.47-.05-.93.24-1.31,1.04-1.4,2.32-2.55,3.95-3.22,1.99-.81,3.51.12,3.75,2.26.03.24.05.48.1.9Z"/>
    <path d="m69.44,11.77c-.93-.02-1.65-.76-1.65-1.69,0-.95.87-1.85,1.79-1.86.85,0,1.72.83,1.73,1.66.01.99-.89,1.9-1.88,1.89Z"/>
    <path d="m411.99,9.89c-.89-.02-1.58-.71-1.53-1.52.05-.85.78-1.46,1.74-1.46.94,0,1.7.62,1.68,1.37-.01.83-.96,1.64-1.89,1.61Z"/>
    <path d="m442.64,9.98c-.03.86-.81,1.56-1.68,1.5-.78-.05-1.46-.77-1.45-1.52.01-.85.78-1.56,1.66-1.55.87.02,1.5.68,1.47,1.56Z"/>
    <path d="m119.21,15.34c0,1.28-.76,2.27-1.88,2.59-.41.12-.85.22-1.14-.2-.27-.39-.04-.75.2-1.05.43-.55.87-1.09,1.15-1.74.18-.42.43-.87,1-.69.54.18.65.67.67,1.09Z"/>
  </g>
  <circle cx="487.68" cy="33.26" r=".98"/>
</svg>