<?xml version="1.0" encoding="UTF-8"?>
<svg id="Layer_1" data-name="Layer 1" xmlns="http://www.w3.org/2000/svg" viewBox="0 0 1512 982">
  <defs>
    <style>
      .cls-1 {
        fill: #231f20;
      }

      .cls-2 {
        fill: none;
        stroke: #231f20;
        stroke-linecap: round;
        stroke-width: 2px;
      }
    </style>
  </defs>
  <path class="cls-1" d="m671.14,897.15c-2.91,1.88-6.36,2.43-9.25,1.48l-1.15,3.54c3.81,1.24,8.1.67,11.87-1.56.18-.11.36-.22.54-.34,3.89-2.5,6.4-6.34,6.87-10.51.48-4.18-1.1-8.47-4.34-11.78-3.23-3.31-7.49-5-11.67-4.63-3.19.28-6.24,1.56-9.18,2.79-4.35,1.82-8.11,3.39-11.45,1.63-1.81-.96-2.89-2.8-3.3-4.85,3.09-.74,6.05-2.54,8.26-5.13,1.66-1.95,2.01-5.1-.55-7.35-2.58-2.27-5.69-1.52-7.43.39-1.34,1.48-2.39,3.08-3.12,4.76-.54,1.24-.88,2.59-1.02,3.97-5.22-.43-9.85-4.62-11.66-9.96,1.04-.36,2.04-.81,2.99-1.36,5.68-3.29,9.27-9.87,9.16-16.78-.04-2.17-1.3-4.03-3.31-4.85-1.98-.81-4.15-.39-5.68,1.1-4.97,4.86-7.77,11.17-7.69,17.31,0,.58.04,1.17.11,1.76-5.19.54-10.73-1.59-13.84-5.79-.09-.12-.18-.25-.28-.38l.04-.02c5.56-3.29,8.3-11.25,5.76-17.39-.76-1.85-2.49-3.08-4.51-3.21-2.04-.13-3.94.88-4.94,2.65-2.76,4.83-3.22,10.82-1.48,15.91-5.98,1.08-12.44-2.9-15.15-7.99-1.28-2.41-1.89-4.92-2.12-7.24,2.89-1.44,5.49-3.46,7.55-5.98,3.88-4.74,3.58-9.12,2.01-11.64-.96-1.54-2.42-2.3-4.12-2.14-3.06.28-6.18,3.67-7.08,5.97-.92,2.37-1.57,4.91-1.92,7.56-.17,1.3-.26,2.58-.26,3.84-4.06,1.47-8.57,1.68-12.72.37-4.17-1.32-7.77-4.1-10.24-7.67,3.7-2.28,6.36-5.7,7.45-9.6,1.25-4.49-.13-9.97-4.59-11.36-2.06-.64-4.17-.22-5.95,1.19-2.68,2.13-4.41,6.48-4.12,10.36.2,2.7.91,5.33,2.02,7.77-3.12,1.05-6.37.99-9.14-.19-3.31-1.41-5.94-4.42-7.2-8.26-1.26-3.84-.94-7.82.89-10.92l-3.2-1.89c-2.37,4.02-2.81,9.11-1.21,13.97s4.98,8.69,9.28,10.52c3.81,1.62,8.25,1.62,12.42.06,2.95,4.45,7.35,7.95,12.48,9.57,4.58,1.45,9.55,1.34,14.1-.1.38,2.71,1.19,5.25,2.41,7.55,3.58,6.73,12.1,11.72,20.05,9.7.25.41.51.8.8,1.18,2.61,3.53,6.58,6,11.19,6.96,2.17.45,4.34.54,6.43.28.78,2.42,2.04,4.72,3.69,6.7,3.03,3.61,7.04,5.78,11.29,6.13.14.01.28.02.43.03.05.29.11.58.18.87.76,3.11,2.58,5.57,5.12,6.9,4.89,2.58,9.84.51,14.62-1.49,2.68-1.12,5.46-2.29,8.08-2.52,3.03-.27,6.27,1.05,8.68,3.52s3.65,5.75,3.3,8.77c-.34,3.02-2.28,5.94-5.19,7.8h0Zm-30.5-30.08c.57-1.31,1.4-2.57,2.47-3.75.95-1.06,1.93-.34,2.21-.1.27.24,1.08,1.1.18,2.15-1.5,1.76-3.43,3.04-5.46,3.7.13-.7.33-1.38.6-2.01h0Zm-16.89-12.1c-.07-5.13,2.33-10.45,6.57-14.6.65-.64,1.38-.44,1.66-.32.23.09.99.48,1,1.48.09,5.45-2.8,10.84-7.19,13.44-.04.02-.07.04-.11.06-.61.35-1.24.65-1.89.9-.03-.32-.04-.63-.04-.95h0Zm-18.14-20.49c.15-.27.35-.45.55-.56.38-.23.78-.23.93-.22.29.02.99.14,1.3.91,1.63,3.96.19,10.05-4.02,12.65-1.38-4.08-.99-8.89,1.23-12.78Zm-21.86-6.89c.31-2.35.88-4.6,1.7-6.7.41-1.06,1.75-2.54,2.93-3.23.37-.22.73-.36,1.03-.39.17-.02.35-.03.63.4,1.27,2.04.05,5.15-1.73,7.32-1.33,1.63-2.94,3.01-4.71,4.11.04-.53.1-1.04.16-1.52h0Zm-30.42-13.64c-.2-2.65,1-5.79,2.73-7.17.14-.11.28-.21.42-.29.68-.4,1.37-.48,2.1-.26,2.17.68,2.86,4.14,2.11,6.82-.82,2.95-2.86,5.57-5.7,7.36-.92-2.03-1.5-4.21-1.67-6.46h0Z"/>
  <path class="cls-1" d="m772.99,627.26c-2.62-4.71-6.01-8.61-10.1-11.61-6.73-4.94-14.95-6.94-23.16-5.65-9.02,1.42-17.4,6.67-22.99,14.41-2.87,3.97-4.93,8.51-5.97,13.12-1.31,5.8-1.1,12.01.59,17.95,1.7,5.94,4.8,11.32,8.97,15.55,4.17,4.23,9.51,7.41,15.42,9.2,3.52,1.06,7.15,1.6,10.74,1.6,2.43,0,4.84-.25,7.2-.74,6.7-1.41,12.57-4.72,16.54-9.32,2.78-3.22,4.89-7.34,6.27-12.24,1.6-5.66,2.05-11.75,1.3-17.59-.66-5.14-2.33-10.22-4.81-14.68h0Zm-14.5,45.67c-9.54,5.02-22.05,3.8-30.42-2.98-4.72-3.82-8.23-9.3-9.9-15.44-1.6-5.89-1.53-12.28.2-18.49,1.12-4.01,3-7.82,5.44-11.02,4.53-5.94,11.57-9.65,19.31-10.18.63-.04,1.26-.07,1.88-.07,2.91,0,5.74.47,8.44,1.41,3.44,1.19,6.48,3.09,9.05,5.63,2.61,2.59,4.75,5.92,6.93,10.79,2.31,5.16,3.54,9.47,3.85,13.57.83,10.74-5.24,21.75-14.77,26.77h0Z"/>
  <path class="cls-1" d="m750.32,620.41c-2.7-1.34-6.18-1.64-10.07-.85-3.17.64-6.58,2.02-9.37,3.78-3.44,2.18-6.29,5.11-8.24,8.47-2.36,4.08-3.47,8.85-3.22,13.8.26,4.95,1.85,9.58,4.62,13.4,2.49,3.43,5.78,6.12,8.66,8.29,2.13,1.6,4.65,3.38,7.58,4.15,1.29.34,2.61.47,3.92.47,2.23,0,4.45-.38,6.49-.72,2.9-.49,6.18-1.05,8.91-2.8,2.85-1.84,5.06-4.94,6.54-9.21,2.69-7.73,2.24-16.42-1.23-23.83-3.02-6.44-8.2-11.75-14.6-14.94h0Zm2.35,38.41c-1.22.73-3.98,1.58-8.74-.93-3.95-2.08-7.02-4.83-8.87-7.96-2.14-3.62-2.65-7.85-1.37-11.33,1.01-2.73,3.24-4.93,6.12-6.02.93-.35,1.72-.52,2.45-.52,1.51,0,2.75.72,4.38,2,4.98,3.91,8.35,9.92,9.01,16.06.66,6.03-2.12,8.18-2.99,8.7h0Z"/>
  <path class="cls-1" d="m745.65,640.86c-.8-.08-2.8.02-4.11,2.74-.91,1.88-.57,4.2.83,5.63.85.87,2.04,1.32,3.22,1.32.89,0,1.77-.26,2.48-.78,1.4-1.04,2.06-3.05,1.59-4.88-.57-2.26-2.14-3.84-4-4.03h0Z"/>
  <path class="cls-1" d="m1207.04,571.45c-1.51-5.59-4.01-9.72-7.44-12.28-4.43-3.3-10.6-3.48-14.38-.42-2.23,1.82-3.41,4.37-4.54,6.85-.34.73-.66,1.42-1.01,2.1-.63,1.24-2.95,5.26-6.29,5.04-2.21-.15-4.83-2.58-5.38-7.57-.1-.94-.15-1.92-.2-2.87-.12-2.17-.23-4.42-.96-6.6-1.13-3.42-4.29-6.64-8.14-6.19-3.54.42-5.83,3.77-6.53,6.9-.42,1.86-.43,3.74-.45,5.55-.01,1.08-.01,2.1-.1,3.12-.37,4.33-2.84,11.25-6.33,12.43-1.69.57-2.36.05-2.58-.12-1.29-1.01-1.87-4.23-1.52-8.4.55-6.62.34-13.3-.61-19.88-.49-3.34-1.2-6.85-3.12-9.9-2.19-3.48-5.72-5.61-9.22-5.56-4.31.06-8.22,3.15-11.64,9.19-5.61,9.9-9.04,21.31-9.93,33-.89,11.69.78,23.49,4.83,34.11,2.12,5.56,6.25,10.42,11.34,13.34,5.57,3.19,11.82,3.81,17.61,1.76,6.71-2.38,11.86-8.72,12.81-15.79.09-.67.14-1.34.2-1.99.11-1.41.22-2.74.66-3.94.53-1.43,1.89-2.8,3.26-2.61,1,.14,1.99,1.09,2.91,2.81,2.37,4.41,2.45,9.49,2.54,14.86.11,6.68.22,13.59,5.1,19.06,1.77,1.98,4.09,3.4,6.69,4.2,3.79,1.17,8.14,1.02,12.14-.63,5.56-2.29,10.35-7.22,13.5-13.88,2.76-5.86,4.02-12.23,5.23-18.38,2.3-11.65,4.9-24.85,1.55-37.33h0Zm-9.17,54.58c-2.86,6.07-7.16,10.53-12.11,12.57-5.63,2.32-12.31,1.11-15.86-2.89-4.23-4.75-4.33-10.87-4.43-17.35-.09-5.46-.18-11.1-2.85-16.07-1.19-2.2-2.54-3.52-4.12-4.01-.25-.08-.5-.13-.75-.17-2.82-.4-5.2,1.87-6.1,4.31-.57,1.54-.7,3.11-.82,4.64-.05.64-.1,1.25-.18,1.85-.82,6.11-5.27,11.6-11.08,13.65-5.05,1.79-10.53,1.23-15.42-1.57-4.57-2.61-8.28-6.98-10.19-11.99-3.9-10.27-5.52-21.67-4.66-32.98.86-11.3,4.18-22.34,9.59-31.9,2.93-5.16,6.08-7.81,9.39-7.85,2.03-.03,4.92,1.09,6.95,4.33,1.66,2.63,2.3,5.82,2.74,8.88.92,6.37,1.12,12.86.59,19.27-.56,6.77,1.06,9.55,2.52,10.7.92.72,2.54,1.39,5.05.54,5.34-1.8,7.77-10.68,8.11-14.7.1-1.12.11-2.24.12-3.32.01-1.75.02-3.41.38-5,.48-2.16,2.02-4.6,4.26-4.86,1.81-.21,4.29,1.26,5.34,4.4.61,1.84.72,3.81.83,5.9.05.99.1,2.01.21,3.02.26,2.35,1.04,4.6,2.19,6.34,1.45,2.19,3.4,3.42,5.63,3.58,3.34.23,6.64-2.19,8.82-6.47.37-.73.72-1.48,1.05-2.2,1.06-2.3,2.06-4.47,3.81-5.9,3.26-2.65,8.18-1.73,11.14.49,2.95,2.2,5.12,5.85,6.47,10.85,3.2,11.89.66,24.77-1.58,36.13-1.19,6-2.41,12.2-5.04,17.76Z"/>
  <path class="cls-1" d="m600.28,79.93c-2.21,1.58-4.78,2.68-7.31,3.69-1.66-2.2-3.48-4.34-5.46-6.39-.57-.6-1.18-1.2-1.82-1.79.41-.15.82-.33,1.22-.51,2.92-1.38,5.38-3.69,6.91-6.55l-1.55-.83c-1.69,3.17-4.69,5.57-8.14,6.55-1.83-1.45-3.91-2.67-6.32-3.22-.03,0-.05,0-.08-.01,2.55-2.96,4.06-6.74,4.21-10.67l-1.76-.07c-.15,3.87-1.86,7.72-4.6,10.47-1.79-.07-3.62.24-5.4.88l-2.16-10.83-1.73.34,2.23,11.18c-2.44,1.17-4.7,2.96-6.51,5.23-4.81-2.91-8.22-8.23-8.78-13.83l-1.75.18c.32,3.22,1.49,6.39,3.37,9.18,1.63,2.41,3.73,4.43,6.13,5.9-2.26,3.43-3.45,7.3-4.1,10.99-5.48-1.08-10.29-5.07-12.27-10.32l-1.65.62c2.19,5.83,7.55,10.26,13.64,11.44-.22,1.59-.35,3.12-.45,4.54-.4,6.09-.23,12.23.51,18.26.06.51.12,1.05.18,1.61.49,4.65,1.1,10.43,6.41,12.22,1.96.66,4.03.67,5.99.63,5.72-.13,11.48-.77,17.12-1.91,1.29-.26,2.67-.57,4.07-.96,1.68-.42,3.36-.96,4.94-1.71,2.21-1.05,4.23-2.49,5.77-4.51,1.08-1.27,1.89-2.67,2.37-4.14,1.04-3.13.59-6.46.08-9-1.49-7.47-4.74-14.77-9.53-21.51,1.06-.43,2.13-.87,3.17-1.37,1.41-.67,2.79-1.43,4.09-2.35,3.04-2.18,5.09-5.03,5.75-8.01l-1.72-.38c-.57,2.56-2.36,5.04-5.05,6.96h0Zm1.57,27.01c.2,1.02.4,2.18.48,3.38-.7-1.28-1.78-2.51-3.23-3.68-3.24-2.6-7.26-4.19-11.65-4.61-4.22-.4-8.46.3-12.26,2.04-5.47,2.49-10.1,6.94-13.41,12.88-.1.18-.2.36-.3.54-.73,1.28-1.62,2.85-1.8,4.44-.63-1.89-.86-4.08-1.08-6.14-.06-.57-.12-1.12-.18-1.65-.73-5.92-.9-11.95-.5-17.93.33-5.04,1.17-11.5,4.71-16.68,1.65-2.42,4-4.46,6.6-5.74,2.3-1.13,4.66-1.61,6.88-1.4l.07.08s.05-.04.07-.07c.4.04.8.11,1.19.19,2.31.52,4.33,1.79,6.1,3.28l.04.18s.09-.02.14-.03c.91.78,1.76,1.61,2.55,2.43,8.18,8.49,13.58,18.34,15.6,28.49h0Z"/>
  <path class="cls-1" d="m741.73,113.48h0c-2.53-.76-5.13-1.33-7.64-1.89-3.69-.81-7.51-1.65-11.1-3.1-.77-.31-1.58-.66-2.42-1.06.21-.26.42-.51.63-.76.79-.89,1.68-1.75,2.54-2.57,1.48-1.42,3.01-2.89,4.16-4.67,1.92-2.97,2.53-7.34-.02-9.96-2.07-2.13-5.3-2.17-7.63-1.49-4.55,1.33-7.62,4.85-10.58,8.25-.45.52-.91,1.04-1.37,1.56-.44-.59-.86-1.21-1.26-1.86-1.79-2.92-2.96-6.28-3.4-9.69-.03-.2-.05-.41-.07-.62-.12-1.04-.24-2.11-.67-3.13-.68-1.64-1.52-2.43-2.49-2.32-1.04.11-1.86,1.25-2.24,3.13-.6,2.97-1.02,5.57-1.27,7.94-.6,5.77-.21,10.6,1.2,14.75-.38.38-.74.79-1.08,1.26-3.09,4.27-5.13,9.11-5.74,13.63-.84,6.21,1.2,12.18,5.31,15.58,1.19.98,2.6,1.72,4.12,2.18,1.27.38,2.61.57,3.96.54,3.11-.07,5.85-1.28,7.7-3.39,1.85-2.11,2.91-5.06,3.23-9.01.1-1.26.13-2.54.16-3.78,0-.17,0-.35.01-.52,5.22,1.51,10.93,1.54,16.47.04,4.08-1.1,9.21-3.23,10.47-7.06.13-.4.1-.83-.09-1.2-.19-.37-.51-.64-.91-.76h0Zm-30.97-16.29c2.95-3.39,5.74-6.59,9.89-7.8,1.64-.48,3.05-.42,4.16-.08.88.27,1.58.71,2.05,1.2,1.99,2.05,1.41,5.73-.15,8.14-1.06,1.64-2.46,2.98-3.95,4.41-.88.85-1.79,1.72-2.62,2.66-.3.34-.6.7-.88,1.06-3.4-1.77-7.08-4.3-10.04-7.83.52-.58,1.03-1.17,1.54-1.75h0Zm.55,37.63c-1.58,1.8-3.94,2.83-6.64,2.9-2.62.06-5.22-.81-7.14-2.39-1.89-1.56-3.32-3.76-4.15-6.38-.79-2.47-1.01-5.2-.65-7.88.58-4.28,2.52-8.88,5.47-12.96.16-.22.32-.42.49-.61,1.15,2.75,2.85,5.36,4.97,7.6,2.37,2.51,5.27,4.58,8.39,5.99.75.34,1.53.65,2.31.92,0,.32-.02.64-.02.96-.03,1.22-.06,2.47-.16,3.7-.29,3.63-1.23,6.3-2.86,8.16h0Z"/>
  <path class="cls-1" d="m1172.67,902.15c-1.86-1.03-4.34-.74-6.17.71-1.5,1.2-2.53,3.09-2.88,5.33-.1.67-.18,1.54.19,2.36.56,1.23,1.72,1.7,2.66,2.07.27.11.53.21.76.33.55.27.78.53.86.95.09.51-.07,1.05-.49,1.6-.83,1.09-2.42,1.86-3.42,1.95-2.54.22-4.95-1.37-6.53-2.74-.78-.67-1.53-1.42-2.25-2.15-1.15-1.15-2.33-2.33-3.7-3.31-2.47-1.77-5.22-2.46-7.53-1.91-.48-3.62-2.13-8.11-4.89-11.05.91-3.18,2.15-6.55,4.97-7.75,2.23-.95,4.71-.25,7.34.49,2.4.67,4.89,1.37,7.38.87,1.46-.29,2.67-1,3.4-1.98.7-.95.92-2.18.62-3.23.4-.26.75-.57,1.05-.92.81-.99,1.03-2.21.61-3.44-.24-.73-.79-1.24-1.19-1.61l-.06-.05c-2.13-1.99-3.66-3.43-6.82-4.08-1.94-.4-3.66,0-4.72,1.11-1.12,1.16-1.4,3.08-.69,4.77,1,2.38,3.54,4.1,6.01,4.87.57.17,1.13.3,1.66.38.73.1,1.62.02,2.5-.24.05.46-.09.98-.4,1.4-.47.63-1.29,1.09-2.32,1.3-2.07.42-4.24-.19-6.54-.84-2.82-.79-5.72-1.61-8.53-.41-3.25,1.38-4.72,4.74-5.73,8.06-.14-.11-.28-.21-.42-.31-2.25-1.52-4.75-1.91-7.42-1.14-2.65.76-5.09,2.75-6.88,5.6-.29.46-.55.93-.8,1.41l-.04-.3c-1.64.24-3.87-1-4.61-3.42-.57-1.87-.29-4.12.83-6.68.44-1,.98-2,1.49-2.97.43-.8.88-1.63,1.28-2.48,1.13-2.4,1.61-4.42,1.51-6.33-.14-2.54-1.43-4.78-3.37-5.84-1.99-1.09-4.58-.68-6.04.81-.24-.18-.5-.34-.77-.5-1.58-.88-3.17-1.09-4.47-.57-1.04.41-1.92,1.29-2.63,2.61-.79,1.47-1.2,3.05-1.61,4.58-.15.58-.36,1.37-.09,2.17.22.65.69,1.1,1.02,1.39.83.71,1.73,1.21,2.66,1.5,1.69.53,3.48.35,5.05-.58,2.49-1.48,3.68-4.42,3.03-7.5-.14-.67-.45-1.3-.9-1.88.91-.93,2.62-1.17,3.9-.47,1.38.76,2.34,2.48,2.44,4.38.09,1.61-.34,3.35-1.34,5.48-.38.81-.81,1.62-1.23,2.4-.54,1-1.09,2.03-1.56,3.09-1.29,2.96-1.6,5.62-.9,7.91.42,1.36,1.31,2.63,2.45,3.5.58.44,1.21.77,1.86.97.43.14.88.21,1.32.23-.71,1.65-1.27,3.36-1.82,5.03-.58,1.78-1.17,3.59-1.68,5.43-1.22.63-2.13,1.66-3,2.66-.42.47-.81.92-1.23,1.33-1.21,1.15-2.78,1.97-4.42,2.29-.63.12-1.79.24-2.39-.38-.4-.41-.51-1.15-.28-1.9.23-.79.76-1.5,1.31-2.25l.02-.03c1.11-1.5,2.07-2.87,2.58-4.53.63-2.04.35-4.1-.75-5.52-1.74-2.24-5.03-2.35-7.51-1.21-.53-.46-1.06-.84-1.52-1.07-.86-.43-1.66-.57-2.37-.39-.63.16-1.14.55-1.55.91-1.02.9-1.71,1.81-2.11,2.78-.52,1.28-.49,2.69.1,3.77.86,1.6,2.68,2.24,3.89,2.67.2.07.41.15.63.21,1.14.35,2.37.55,3.5-.09.52-.3.9-.73,1.21-1.11.4-.5.83-1.1,1.03-1.86.36-1.42-.41-3.07-1.5-4.43,1.73-.59,3.76-.42,4.79.92.74.95.91,2.44.46,3.91-.43,1.39-1.3,2.64-2.31,4l-.02.03c-.62.84-1.26,1.71-1.59,2.79-.41,1.38-.14,2.78.72,3.65.36.38.82.65,1.36.82.75.23,1.65.26,2.64.06,1.97-.39,3.85-1.36,5.3-2.75.48-.46.92-.96,1.34-1.44.32-.36.63-.72.95-1.04-.38,1.69-.67,3.4-.81,5.14-.27,3.37-.02,8.26,2.69,12.4,1.69,2.57,4.21,4.45,6.91,5.29,1.44.45,2.93.6,4.37.42,3.57-.45,7.01-2.93,9.21-6.65,1.97-3.33,2.83-7.25,3.47-10.65.73-3.87,1.36-7.99,1.13-12.08,1.85-.55,4.19.02,6.33,1.56,1.25.9,2.33,1.98,3.48,3.12.74.75,1.52,1.52,2.34,2.24,1.57,1.37,3.18,2.32,4.75,2.81,1.06.33,2.1.45,3.11.37,1.41-.12,3.47-1.07,4.67-2.64.72-.95,1.01-1.99.82-3-.01-.1-.04-.19-.06-.28.49-.04.96-.14,1.4-.3,2.14-.82,3.76-3.24,3.95-5.9.15-2.2-.74-4-2.45-4.94h0Zm-34.46,28.8c-1.92,3.24-4.88,5.41-7.9,5.79-3.51.44-7.36-1.54-9.57-4.92-2.44-3.71-2.66-8.18-2.41-11.28.35-4.43,1.76-8.76,3.13-12.95.84-2.58,1.71-5.25,3.15-7.55,1.55-2.48,3.63-4.2,5.86-4.83,2.14-.61,4.13-.31,5.93.91,2.51,1.7,5.48,6.17,6.07,11.96.43,4.27-.23,8.67-1.01,12.79-.65,3.41-1.43,6.99-3.25,10.08Z"/>
  <path class="cls-1" d="m1407.65,289.98c1.04,2,2.12,4.07,3.07,6.14,2.76,6.01,2.56,11.12,2.34,16.52-.13,3.49-.28,7.1.36,11.12,1.54,9.7,8.59,18.59,17.97,22.63,6.04,2.61,13,3.42,20.09,2.49,5.55-.73,11.17-2.51,16.5-5.33,8.83-4.67,15.78-11.54,19.58-19.34,4.38-8.97,4.6-19.2.59-27.36-4.38-8.91-13.91-14.63-23.16-13.92-3.75.29-7.28,1.54-10.7,2.75-1.45.52-2.96,1.05-4.45,1.49-4.06,1.21-9.77,2.06-13.91-.73-4.92-3.3-5.93-10.46-6.75-16.21-.84-5.95-2.74-14.2-9.4-17.1-2.98-1.3-6.46-1.18-9.79.36-3.09,1.43-5.71,3.94-7.19,6.91-2.57,5.13-2.6,11.87-.08,18.96,1.32,3.71,3.15,7.23,4.92,10.63h.01Zm-2.61-28.47c1.68-3.36,5.35-6.19,9.2-6.69,1.52-.2,3.07-.03,4.54.61,2.64,1.15,6.33,3.98,7.92,15.16.89,6.24,1.99,14.01,7.83,17.94,3.92,2.64,9.46,3,16.03,1.05,1.54-.46,3.08-1,4.57-1.53,3.42-1.21,6.64-2.35,10.05-2.61,8.26-.64,16.78,4.51,20.72,12.52,3.67,7.47,3.45,16.88-.59,25.15-3.57,7.32-10.14,13.8-18.5,18.22-11.48,6.08-24.35,7.11-34.43,2.76-8.6-3.71-15.07-11.85-16.48-20.72-.6-3.77-.46-7.25-.33-10.62.22-5.46.44-11.11-2.57-17.67-.98-2.12-2.07-4.22-3.13-6.25-1.74-3.32-3.53-6.76-4.79-10.31-3.08-8.69-1.35-14.38-.04-17h0Z"/>
  <g>
    <path class="cls-1" d="m1451.32,615.66c-4.7-2.12-10.35-2.91-16.79-2.36-5.63.48-11.11,1.91-16.26,4.23-5.26,2.37-9.92,5.56-13.85,9.48-7.73,7.7-12.15,18.73-12.15,30.29-.36,3.61,4.06,5.3,6.77,6.33.41.16.8.31,1.14.45,7.27,3.03,14.83,4.59,22.05,4.59,1.11,0,2.2-.04,3.28-.11,10.83-.73,21.04-5.26,28.01-12.42,4.52-4.64,7.7-10.39,9.19-16.63.88-3.66,1.5-7.34.48-9.94-1.68-5.73-6.66-11.57-11.87-13.92h0Zm-45.57,12.68c3.77-3.76,8.25-6.82,13.3-9.09,4.96-2.23,10.22-3.6,15.64-4.07,6.12-.52,11.45.22,15.86,2.2,3.61,1.62,7.2,5.25,9.34,9.2-.61-.17-1.29-.25-2.04-.24-8.74.11-18.48,2.51-29.75,7.35-9.65,4.14-18.67,9.49-27.09,14.62-.16.1-.33.2-.51.31-1.83,1.11-4.34,2.63-6.08,4.51-.03.02-.05.05-.07.07.91-9.54,4.95-18.43,11.4-24.86h0Zm55.12,10.73c-1.41,5.91-4.42,11.36-8.71,15.75-6.65,6.83-16.41,11.15-26.77,11.85-7.91.54-16.37-.97-24.49-4.34-.36-.15-.76-.31-1.19-.47-3.35-1.28-6.07-2.53-5.49-4.81.22-.85.75-1.74,1.58-2.63,1.57-1.69,3.85-3.07,5.68-4.17.18-.11.35-.21.52-.31,8.36-5.09,17.31-10.4,26.84-14.49,11.05-4.74,20.54-7.1,29.04-7.2h.09c1.37,0,2.34.38,2.95,1.14,1.75,2.18.53,7.26-.05,9.7h0Z"/>
    <path class="cls-1" d="m1429.3,650.35c-2.29.94-3.46,3.18-3.2,6.15.23,2.66,2.13,5.06,4.61,5.84.58.18,1.18.27,1.78.27,2.07,0,4.13-1.02,5.24-2.74,1.67-2.58,1.64-5.24-.07-7.3-1.93-2.33-5.69-3.32-8.37-2.22h.01Z"/>
  </g>
  <path class="cls-1" d="m76.57,407.88c-1.62,1.69-2.9,3.9-2.49,6.53.42,2.66,2.67,5.01,5.73,5.98,1.47.46,2.97.62,4.5.62,1.17,0,2.35-.09,3.55-.2,4.19-.37,8.48-.91,12.58-2.05,1.41-.25,2.84-.73,4.3-1.46,1.95-.8,3.82-1.79,5.58-3.01,3.18-2.2,5.04-4.7,5.53-7.43.35-1.95.25-4.64-2.26-6.4-1.46-1.03-3.49-1.55-5.76-1.72,0-.02-.01-.04-.02-.05-3.67-7.25-6.06-15.08-7.1-23.29-1.04-8.21-.67-16.39,1.08-24.32.1-.48-.2-.95-.68-1.05-.48-.11-.95.2-1.06.67-1.8,8.12-2.17,16.51-1.11,24.92,1.02,8.1,3.34,15.85,6.87,23.05-3.26,0-6.8.54-9.83,1.17-6.46,1.34-13,3.61-15.35,4.95-.42.24-.94.55-1.5.94,5.28-17.47,2.96-36.43.9-53.25-.06-.48-.5-.83-.99-.77-.49.06-.83.5-.77.99,2.14,17.48,4.57,37.3-1.67,55.1-.01.03-.02.06-.03.09h0Zm4.95-1.56c4-2.27,24.8-8.81,31.05-4.41,1.42,1,1.92,2.51,1.53,4.64-.39,2.15-1.89,4.18-4.45,6.04-1.73-2.69-5.5-3.87-8.45-2.56-2.85,1.26-4.49,4.65-3.82,7.66-.81.17-1.62.33-2.44.47-.16-2.09-1.51-4.12-3.47-5.08-2.19-1.07-4.93-.8-6.99.66-1.66,1.18-2.8,3.12-3.11,5.22-.34-.07-.68-.16-1.01-.26-2.43-.77-4.2-2.56-4.52-4.56-.59-3.8,3.78-6.73,5.69-7.81h0Z"/>
  <path class="cls-1" d="m435.2,649.86c-.7-1.3-2.19-2.84-5.33-2.84h-.11c-3.41.04-6.74,1.82-8.73,4.65l-31.39-11.3c-.05-.17-.1-.33-.14-.5,6.53-6.67,13.23-13.16,20.07-19.46.84.55,1.83.88,2.85.88.06,0,.11,0,.17,0,2.78-.1,5.17-2.61,5.12-5.39-.05-2.77-2.53-5.19-5.31-5.19-.07,0-.12,0-.18.01-.06,0-.11,0-.17,0-2.77.19-5.08,2.78-4.94,5.55.05.9.35,1.74.82,2.48-6.52,6-12.91,12.18-19.15,18.53-2.2-7.68-4.48-15.33-6.83-22.91,1.6-.82,2.93-2.43,3.73-4.55.73-1.96.82-3.81.26-5.35-.72-1.99-2.21-3.2-4.2-3.43-2.65-.3-5.81,1.28-7.35,3.67-1.43,2.22-1.51,5.15-.22,7.3,1.11,1.85,3.2,2.97,5.27,2.97.08,0,.16,0,.25,0,2.49,8.02,4.9,16.11,7.21,24.24-.04.04-.08.08-.12.12l-27.96-10.06c.09-.71.05-1.45-.17-2.15-.82-2.67-3.91-4.38-6.62-3.66-2.71.73-4.53,3.75-3.89,6.48.56,2.41,2.96,4.18,5.4,4.18.32,0,.64-.03.96-.09.12-.03.24-.07.34-.13.12,0,.24-.02.36-.06,1.21-.41,2.2-1.29,2.84-2.37l26.95,9.7c-8.73,9.05-17.15,18.41-25.19,28-1.2-.61-2.55-.78-3.78-.48-2.85.71-4.75,3.83-4.06,6.68.6,2.46,3.03,4.23,5.53,4.23.38,0,.76-.04,1.13-.12,2.84-.64,4.83-3.71,4.25-6.56-.04-.19-.12-.36-.24-.5-.21-.65-.55-1.26-1.01-1.8,8.22-9.8,16.83-19.35,25.76-28.58l.33.12c3.22,11.45,6.25,22.96,9.05,34.44-.75.28-1.44.65-2.04,1.1-1.68,1.28-2.74,3.17-2.81,5.03-.09,2.25,1.29,4.36,3.28,5.03.52.17,1.04.25,1.56.25,1.21,0,2.42-.4,3.57-.86,1.41-.57,3-1.27,4.19-2.55,1.19-1.28,2.02-3.43,1.16-5.34-.69-1.54-1.98-2.58-3.73-3.03-.9-.23-1.9-.28-2.89-.17-2.68-10.98-5.57-21.98-8.63-32.93l29.5,10.62c-.84,2.14-.89,4.47-.08,6.65.64,1.73,1.95,3.28,3.58,4.25,1.16.69,2.4,1.05,3.6,1.05.65,0,1.29-.1,1.9-.3,2.2-.73,3.67-2.59,4.59-3.92,2.14-3.12,3.39-8.44,1.69-11.6h0Z"/>
  <path class="cls-1" d="m1052.79,145.78c-.1-.5-.5-.88-1-.96-.5-.09-1,.14-1.26.57-3.47,5.65-4.52,12.25-5.54,18.64-.36,2.28-.74,4.63-1.22,6.89-.68,3.19-2.06,7.84-4.8,11.86-2.54,3.73-5.65,6.04-9.25,6.87-3.2.74-6.85.3-10.38-.12-5.57-.67-11.34-1.37-15.62,2.57-.29.27-.44.67-.39,1.06s.29.75.64.94c1.52.82,3.1,1.65,4.77,2.52,8.72,4.57,18.6,9.75,24.52,16.4,4.16,4.67,6.54,12.43,8.63,19.28.9,2.94,1.75,5.72,2.71,8.21.18.47.63.79,1.14.79.51,0,.97-.3,1.16-.77l10.61-25.69c7.47,7.35,16.5,13.25,26.23,17.13.37.15.78.11,1.11-.1.07-.04.14-.1.2-.15.35-.34.47-.84.32-1.3l-10-29.26,19.6-11.92c.44-.26.67-.77.58-1.27-.09-.5-.48-.9-.98-1-20.27-4.04-37.45-20.97-41.78-41.18h0Zm20.44,53.78c-.5.29-.72.91-.53,1.46l9.43,27.59c-9.01-3.98-17.32-9.76-24.16-16.82-.29-.3-.72-.43-1.13-.35-.15.03-.29.09-.42.17-.22.14-.39.34-.49.58l-10.08,24.43c-.53-1.6-1.05-3.29-1.58-5.03-2.18-7.09-4.64-15.13-9.15-20.2-6.22-6.99-16.32-12.28-25.22-16.95-1.05-.54-2.05-1.07-3.03-1.59,3.31-1.91,7.64-1.39,12.18-.85,3.74.45,7.6.92,11.23.08,4.23-.98,7.84-3.63,10.74-7.89,2.96-4.35,4.45-9.33,5.18-12.74.49-2.32.87-4.7,1.24-7.01.84-5.32,1.65-10.39,3.72-14.95,5.29,18.74,21.09,34.27,39.93,39.22l-17.86,10.86h0Z"/>
  <g>
    <path class="cls-2" d="m180.33,359.94c11.58-7.7,23.27-15.51,34.53-23.66,3.91-2.83,10.77-4.76,13.66-8.23"/>
    <path class="cls-2" d="m194.79,320.11c5.48,9.52,10.56,19.32,15.47,29.14,2.23,4.45,4.91,14.71,9.2,17.35"/>
    <path class="cls-2" d="m187.49,334.92c13.81,3.25,26.68,8.82,40.4,12.05"/>
    <path class="cls-2" d="m209.74,316c-4.09,17.36-6.91,34.77-10.99,52.09"/>
  </g>
  <g>
    <path class="cls-1" d="m452.29,352.64c-5.02-.91-10.3.13-14.49,2.86-4.25,2.77-7.34,7.34-8.26,12.23-.67,3.55-.31,7.6,1.06,12.04,2.1,6.79,6.11,13.03,11.58,18.04,5.48,5.01,12.04,8.45,18.99,9.94.06.01.12.02.17.02.38,0,.71-.26.79-.64.1-.44-.18-.87-.62-.97-6.67-1.43-12.97-4.74-18.24-9.55-5.26-4.82-9.11-10.81-11.12-17.32-1.29-4.18-1.64-7.97-1.02-11.26.84-4.46,3.66-8.64,7.55-11.17,3.84-2.5,8.7-3.46,13.31-2.62,6.64,1.21,12.24,6.32,13.61,12.43.68,3.03.21,6.46-1.29,9.4-1.54,3.02-3.97,5.25-6.85,6.27-3.7,1.32-7.98.63-10.89-1.75-3-2.45-4.38-6.67-3.35-10.25.99-3.46,4.45-6.1,8.42-6.41,2.53-.2,5.2,1.16,6.48,3.3.24.41.42.83.54,1.25-.07-.04-.13-.08-.2-.12-1.1-.6-2.69-.58-4.05.04-1.17.53-1.97,1.43-2.19,2.48-.22,1.02.1,2.09.89,2.93.76.8,1.8,1.27,2.83,1.27.17,0,.33-.01.49-.04,1.07-.16,2.09-.76,2.8-1.56.01-.01.03-.03.04-.05.47-.54.81-1.18.92-1.84.01-.06.02-.11.02-.16.48-1.68.25-3.44-.7-5.02-1.58-2.66-4.87-4.34-8-4.09-4.63.37-8.68,3.49-9.85,7.59-1.2,4.19.4,9.1,3.89,11.96,3.34,2.73,8.23,3.53,12.46,2.02,3.27-1.16,6.02-3.67,7.75-7.07,1.67-3.27,2.18-7.1,1.42-10.5-1.51-6.73-7.64-12.35-14.91-13.67h0Z"/>
    <path class="cls-1" d="m428.33,392.95c.91-1.03,1.33-2.27,1.19-3.48-.13-1.11-.74-2.1-1.72-2.8-1.63-1.16-3.31-1.47-4.61-.85-1.18.57-1.96,1.8-2.31,3.68-.3,1.65-.11,2.89.58,3.81.66.87,1.81,1.38,3.05,1.38.1,0,.21,0,.32-.01,1.34-.09,2.61-.72,3.49-1.73h0Z"/>
    <path class="cls-1" d="m435.94,398.09c-.31-1.33-1.47-2.45-3.11-3-1.68-.57-3.4-.38-4.48.51-1,.82-1.55,2.17-1.41,3.51.12,1.23.82,2.43,1.86,3.21.84.62,1.85.94,2.86.94.76,0,1.51-.18,2.17-.54,1.61-.89,2.52-2.88,2.11-4.62h0Z"/>
    <path class="cls-1" d="m440.16,403.18c-.89-.52-1.93-.61-2.92-.23-1.11.42-2,1.34-2.36,2.46-.58,1.78.11,3.83,1.65,4.89.72.49,1.57.73,2.42.73.98,0,1.96-.32,2.73-.95.76-.62,1.23-1.48,1.3-2.34.08-.99-.45-1.99-.9-2.65-.55-.8-1.27-1.51-1.92-1.9h0Z"/>
    <path class="cls-1" d="m449.51,408.04c-1.07-.06-2.05.34-2.78,1.12-.86.92-1.3,2.34-1.14,3.68.12,1,.51,1.79,1.12,2.28.49.39,1.13.6,1.83.6.13,0,.26,0,.39-.02,1.56-.17,2.95-1.34,3.38-2.85.33-1.14.07-2.58-.65-3.57-.54-.76-1.31-1.2-2.15-1.24h0Z"/>
    <path class="cls-1" d="m459.25,411.63c-1.4.31-2.55,1.62-2.82,3.19-.11.62-.18,1.44.15,2.2.36.84,1.17,1.47,2.17,1.7.26.06.52.09.78.09,1.11,0,2.14-.54,2.8-1.51.88-1.3.89-3.02.03-4.28-.78-1.14-1.92-1.65-3.11-1.39h0Z"/>
  </g>
  <path class="cls-1" d="m288.58,26.76c8.43-7.11,15.61-16.03,20.74-25.79l-1.67-.88c-5.03,9.55-12.04,18.27-20.29,25.23-1.15.97-2.37,1.96-3.55,2.9-6.01,4.84-12.22,9.84-14.54,17.24-1.16,3.71-1.15,7.77.03,11.74,1.15,3.85,3.39,7.39,6.3,9.96,1.95,1.72,4.23,3.06,6.69,4.01,4.87,1.87,10.46,2.16,15.6.64,7.38-2.18,13.75-7.91,17.03-15.31,1.44-3.25,2.89-8.22,1.63-13.42-1.18-4.85-4.72-8.79-9.01-10.04-4.84-1.41-10.32.94-12.2,5.25l.35.15c-1.77.28-3.46,1.03-4.76,2.19-2.07,1.85-2.83,4.43-2.15,7.26.53,2.21,1.77,3.9,3.59,4.88.27.15.55.27.84.38,1.41.54,3.04.67,4.66.35,2.06-.4,3.9-1.45,5.18-2.94,1.46-1.7,2.05-3.81,1.71-6.08-.4-2.68-1.96-4.66-4.41-5.59-.05-.02-.1-.04-.15-.06-.87-.31-1.79-.48-2.73-.5,1.78-2.95,5.95-4.53,9.56-3.47,3.66,1.07,6.69,4.47,7.71,8.67,1.14,4.68-.2,9.22-1.52,12.21-3.06,6.91-8.98,12.24-15.84,14.27-7.13,2.11-15.18.44-20.51-4.26-5.52-4.86-7.9-12.97-5.78-19.71,2.15-6.85,8.14-11.67,13.93-16.33,1.19-.96,2.42-1.94,3.59-2.93h0Z"/>
</svg>