<?xml version="1.0" encoding="UTF-8"?>
<svg id="Layer_1" data-name="Layer 1" xmlns="http://www.w3.org/2000/svg" viewBox="0 0 486.75 51.55">
  <defs>
    <style>
      .cls-1 {
        fill: #f3f3f3;
      }

      .cls-2 {
        fill: #f7f7f7;
      }

      .cls-3 {
        fill: #f8f8f8;
      }

      .cls-4 {
        fill: #060606;
      }

      .cls-5 {
        fill: #050505;
      }

      .cls-6 {
        fill: #f4f4f4;
      }

      .cls-7 {
        fill: #fcfcfc;
      }

      .cls-8 {
        fill: #f1f1f1;
      }

      .cls-9 {
        fill: #fafafa;
      }

      .cls-10 {
        fill: #fbfbfb;
      }

      .cls-11 {
        fill: #cecece;
      }

      .cls-12 {
        fill: #121212;
      }

      .cls-13 {
        fill: #0b0b0b;
      }

      .cls-14 {
        fill: #080808;
      }

      .cls-15 {
        fill: #070707;
      }
    </style>
  </defs>
  <path class="cls-5" d="m476.36,28.96c0,.84,0,1.68,0,2.52,0,.73.17,1.33,1.01,1.5.56-.15,1.13-.3,1.69-.45.14-.14.29-.27.43-.41l.63-.62c.21,0,.41-.02.62-.03.13.07.26.15.39.22-.03.28-.07.56-.1.84-.37.43-.75.85-1.12,1.28-.21.14-.42.27-.63.41-.07.02-.14.05-.22.07l-.65.34c-.07,0-.13.03-.2.05-.42,0-.85.01-1.27.02-.21-.02-.41-.05-.62-.07-.15-.14-.29-.28-.44-.42,0,0,0,0,0,0-.28-.35-.56-.7-.84-1.05-.85-1.46-.62-3.06-.62-4.63.05-.21.11-.42.16-.64.02-.28.03-.56.05-.84.05-.14.11-.28.16-.43.02-.21.03-.42.05-.63.05-.14.11-.28.16-.43.01-.27.03-.55.04-.82.05-.08.1-.15.15-.23.02-.21.04-.42.06-.63.04-.14.08-.28.12-.43.03-1.45.11-2.91.08-4.36-.04-1.56-1.45-1.71-2.57-.72-.77.69-1.39,1.54-2.08,2.31-.15.15-.29.29-.44.44-.06.07-.12.14-.19.21-.43.63-.85,1.26-1.28,1.9,0,0,0,0,0,0-.21.35-.43.71-.65,1.06-.07.13-.13.27-.2.4-.26.5-.52,1-.79,1.5-.09.2-.18.39-.27.59-.06.08-.11.17-.17.25-.09.21-.18.41-.27.62-.11.29-.23.57-.34.86-.05.05-.07.11-.06.18-.7,1.9-1.41,3.81-2.11,5.71-.14.07-.28.14-.41.21-.28,0-.56.01-.84.02-.47-.51-.51-1.02-.25-1.69.78-2.06,1.54-4.14,2.17-6.24.5-1.67.82-3.41,1.21-5.11.09-.19.18-.39.27-.58-.09-.05-.18-.1-.27-.16-.19.25-.38.5-.57.75-.5.48-1,.97-1.5,1.45-.29.21-.58.42-.87.62,0,0,0,0,0,0-.28.22-.56.44-.83.66-.14.06-.28.12-.42.19-.21.15-.42.3-.63.45-.49.22-.98.44-1.47.66-.34.14-.68.28-1.01.42-.43.16-.85.31-1.28.47-.15.05-.3.1-.45.15-.77.08-1.55.17-2.32.25-.29.47-.58.94-.87,1.41,0,0,0,0,0,0-.14.21-.28.43-.43.64,0,0,0,0,0,0-.13.22-.27.44-.4.65,0,0,0,0,0,0-.22.28-.43.56-.65.83-.14.14-.27.29-.41.43l-.88,1.03c-.13.13-.27.26-.4.4-.34.29-.69.59-1.03.88-.14.14-.29.27-.43.41-.22.14-.44.27-.66.41,0,0,.01,0,.01,0-.21.15-.41.3-.62.45-.07.02-.14.04-.2.06-.08.05-.15.1-.23.15,0,0,0,0,0,0-.19.08-.39.17-.58.25-.15.07-.31.14-.46.22-.14.05-.29.1-.43.16-2.42.69-3.84-.02-5.46-2.95-.03-.18-.06-.35-.12-.73-.33.5-.55.84-.78,1.17-.13.13-.27.27-.4.4-.2.15-.41.31-.61.46-.07.07-.14.14-.22.21-.48.22-.96.43-1.44.65-2.05.75-3.83-.49-3.84-2.67,0-.8-.02-1.6-.03-2.39-.01-.22-.03-.44-.04-.66-.07,0-.13,0-.2-.01-.12.22-.25.44-.37.66,0,0,0,0,0,0-.14.21-.28.43-.42.64h0c-.14.21-.29.42-.43.63-.06.08-.12.16-.18.24-.22.27-.44.54-.67.81-.56.56-1.11,1.11-1.67,1.67-.22.14-.43.29-.65.43-.07,0-.13.02-.19.06-.07.05-.14.1-.22.16,0,0,0,0,0,0-.35.14-.7.27-1.06.41-3.17.41-4.54-2-4.6-4.75-.04-2.2.22-4.4.35-6.59.09-.46.17-.92.26-1.39-.1-.04-.21-.08-.31-.11-.69.97-1.18,2.04-1.56,3.18l-.27.62-.55,1.28c-.05.04-.08.1-.06.17-.63,1.27-1.26,2.55-1.9,3.82h0c-.28.42-.57.84-.85,1.26,0,0,0,0,0,0-.14.21-.29.43-.43.64-.49.49-.97.98-1.46,1.48-.22.14-.44.27-.65.41,0,0,0,0,0,0-.21.15-.42.29-.63.44-.07,0-.13.03-.2.05-.28.13-.56.26-.84.38-.14.01-.28.02-.42.03-.56,0-1.13,0-1.69,0-1.48-.15-2.87-1.74-2.96-3.42-.02-.35-.02-.69-.03-1.04,0-.49,0-.98,0-1.48,0-.42,0-.84,0-1.26-.06-.06-.11-.11-.17-.17-.64.45-1.29.9-1.93,1.35-.21.15-.41.31-.62.47-.42.22-.85.44-1.27.66-.41.08-.83.17-1.24.25-.08.06-.16.12-.23.17-.13.02-.26.04-.4.05-.07,0-.14,0-.21,0h-.63c-.29.47-.58.94-.86,1.42,0,0,0,0,0,0-.14.22-.28.43-.41.65-.42.42-.84.84-1.26,1.26-.21.14-.43.28-.64.43-.14.06-.29.12-.43.17-.34.16-.69.32-1.03.48-2.2.6-3.58.05-4.28-1.7-.04-.14-.09-.29-.13-.43.03-1.16.46-2.11,1.45-2.78.85.2.25.9.46,1.32,0,.42,0,.84,0,1.26.06.07.12.15.17.22,0,0,0,0,0,0,.34.56.79.54,1.29.24.63-.3,1.26-.61,1.89-.91.07-.06.14-.12.21-.18,1.19-.83,1.61-2.32.93-4.02-.81-2.05-1.18-4.18-1.19-6.39v-.7c-.41.33-.71.57-1.01.8-.07.07-.14.14-.22.22-.22.13-.44.26-.66.4,0,0,0,0,0,0-.21.14-.43.29-.64.43,0,0,0,0,0,0-.22.14-.43.28-.65.42,0,0,.01,0,.01,0-.49.29-.98.58-1.47.87-.07,0-.14.03-.2.05-.07.05-.15.11-.22.16-.07,0-.13.02-.19.05-.29.11-.57.23-.86.34-.07,0-.14.02-.2.06-.28.13-.56.26-.85.39-.14.01-.28.03-.42.04-.07.06-.15.11-.22.17-.49.21-.99.42-1.48.63-.21.42-.42.84-.63,1.26h0c-.21.35-.41.71-.62,1.06-.35.42-.71.83-1.06,1.25-.22.28-.44.56-.67.84-.2.2-.41.41-.61.61-.28.22-.56.44-.84.66-.21.21-.41.42-.62.63-.21.14-.42.29-.63.43-.07.07-.14.14-.21.21-.21.14-.43.28-.64.42-.14.06-.28.12-.43.18-.7.29-1.4.59-2.09.88-.91-.14-1.82-.29-2.73-.43-.07-.05-.15-.11-.22-.16-.21-.15-.42-.31-.64-.46-.14-.21-.28-.42-.42-.63-.07-.14-.14-.28-.21-.42-.07-.22-.14-.44-.21-.65,0-.42,0-.84,0-1.26,0-.27.02-.54.02-.81.05-.14.11-.28.16-.43.02-.14.03-.28.05-.42l.12-.43c.31-.69.61-1.39.92-2.08.05-.07.1-.15.15-.22.09-.21.18-.42.27-.64.06-.07.11-.14.17-.21.22-.49.45-.98.67-1.47.14-.21.29-.42.43-.63.21-.28.41-.57.62-.85.78-.77,1.55-1.54,2.33-2.31.21-.13.42-.26.64-.39.42-.16.84-.33,1.25-.49.34.02.69.03,1.03.05.02.14.04.28.07.42-.5.42-1.01.84-1.51,1.26-.21.22-.42.43-.63.65-.28.27-.57.55-.85.82-.07.07-.14.15-.21.22-.35.49-.7.98-1.06,1.47,0,0,0,0,0,0-.21.35-.43.7-.64,1.05-.14.28-.28.56-.41.85l-.6,1.26c-.29,1.07-.74,2.12-.85,3.21-.19,2,1.17,2.88,2.99,2.08,2.31-1.01,4.01-2.75,5.53-4.69.4-.51.77-1.07,1.02-1.66.46-1.1-.79-.89-1.19-1.31-1.28-1.32-1.6-2.84-1.41-4.57.05-.14.1-.29.15-.43.36-.35.72-.7,1.08-1.05.14-.09.29-.17.43-.26.49,0,.99,0,1.48.01.07.02.14.03.2.05.14.07.28.14.42.21h0c.15.13.29.26.44.4.29.63.58,1.27.86,1.9v2.79c.24-.09.43-.16.62-.23,1.94-.58,3.65-1.59,5.26-2.79.07-.06.15-.12.22-.18.28-.21.56-.42.84-.63.21-.21.42-.41.64-.62.21-.15.41-.3.62-.45.27-.28.54-.56.81-.84.36-.42.73-.84,1.09-1.25,1.58-.27,1.91.06,1.48,1.48-.14.28-.28.56-.42.84-.13.42-.26.84-.39,1.27,0,1.12,0,2.24,0,3.36l.21,1.05c0,.07,0,.14,0,.21.37,1.4.74,2.8,1.13,4.19.02.09.21.12.32.19,3.78-.57,5.69-3.15,6.95-6.43.36-.94.71-1.88,1.06-2.81,1.3-.25,1.34.59,1.3,1.5-.07.35-.14.7-.21,1.05,0,.28,0,.56-.01.84,0,.21-.01.42-.02.63-.06.42-.12.84-.19,1.26v.21c-.07.49-.14.98-.22,1.47,0,1.54,0,3.09,0,4.63.2.36.39.72.59,1.08h0c.47.9,1.2.68,1.94.43,2.01-.54,3.13-2.07,4.02-3.75,1.6-3.07,3.09-6.2,4.63-9.3.19-.36.39-.72.58-1.08.07-.16.14-.31.21-.47.07-.19.13-.39.2-.58.02-.07.04-.13.05-.2.05-.07.1-.14.15-.21.02-.14.04-.27.06-.41.05-.07.11-.15.16-.22.02-.07.04-.14.05-.2.12-.28.25-.57.37-.85.02-.07.03-.14.05-.2.13-.28.25-.57.38-.85.02-.07.03-.14.05-.21.05-.14.11-.28.16-.43.01-.13.03-.27.04-.4.06-.08.11-.15.17-.23.01-.14.02-.28.03-.42.13-.28.26-.56.39-.84.23-1.05.45-2.09.68-3.14.51-.49,1.06-.69,1.69-.23l-.18,1.9c0,.42,0,.84,0,1.26-.07.21-.14.42-.21.63,0,.21-.02.42-.03.63,0,.13,0,.26,0,.39.21-.12.41-.24.62-.35.63.05,1.26.09,1.9.14.35.09.7.18,1.05.27.31.43.34.81-.21,1.08-.07.05-.14.11-.21.16-.07.02-.14.04-.21.05-.85.06-1.7.07-2.54.19-.29.04-.75.31-.79.54-.21,1.06-.3,2.14-.43,3.22,0,.07,0,.14,0,.21-.07.49-.15.98-.22,1.47-.07.21-.14.42-.21.63-.08.98-.15,1.97-.23,2.95-.07.35-.13.7-.2,1.05,0,.35,0,.7,0,1.05,0,1.4,0,2.8-.01,4.21l.6,1.28c.06.07.12.14.18.2.08.06.16.11.24.17.67-.21,1.48-.24,1.98-.65,2.64-2.16,4.46-4.95,5.85-8.03.36-.8.73-1.61,1.11-2.41.24-.51.59-.8,1.19-.5.07.01.14.03.21.04h0c0,.63.02,1.26.03,1.89-.01.14-.03.28-.04.42-.13.56-.25,1.13-.38,1.69-.01.14-.03.28-.04.41-.06.21-.11.42-.17.64-.01.14-.03.28-.04.41-.06.21-.11.42-.17.64-.01.14-.03.28-.04.42-.13.7-.25,1.41-.38,2.11v2.99c1.86.54,2.89-.19,3.75-1.44.93-1.35,1.79-2.71,2.25-4.33.87-3.04,3.18-4.99,5.53-6.89.21-.17.44-.31.67-.46,1.29-.5,2.57-1.04,4.01-.84.12.02.28-.25.42-.39.07-.07.14-.14.21-.21,1.49-.48,2.74-.25,3.38.72.36.55.55,1.2.82,1.8,0,.63,0,1.25,0,1.88-.05.28-.11.57-.16.85l-.21.42c-.07.64,0,1.11.83.69,2.54-.54,4.77-1.7,6.74-3.36.58-.49,1.11-1.05,1.67-1.57.48-.55.96-1.1,1.45-1.65.08-.07.16-.14.24-.21.21-.28.42-.55.64-.83,0,0,0,0,0,0,1.4-.42,1.65-.23,1.72,1.27,0,.07,0,.14,0,.21-.07.28-.15.56-.22.84-.07.14-.14.28-.21.42v.84c.1.05.19.09.29.14.52-.61,1.04-1.22,1.56-1.83.14-.14.29-.29.43-.43.43-.34.85-.69,1.28-1.03,0,0,0,0,0,0,.21-.14.42-.29.62-.43.21-.08.42-.16.64-.24.24.01.49.05.73.03,2.52-.18,2.9,1,3.27,2.74.23,1.09.18,2.24.26,3.37,0,.14,0,.28,0,.42-.07.14-.14.28-.21.42,0,.21,0,.42,0,.63,0,.14,0,.28,0,.42-.02.07-.03.14-.05.21-.05.28-.11.56-.16.85-.02.07-.03.14-.05.21-.12.63-.25,1.27-.37,1.9-.02.14-.03.28-.05.41-.05.28-.11.57-.16.85Zm-25.9-9.03c-.21.02-.45-.03-.61.06-1.2.71-2.48,1.33-3.55,2.2-2.63,2.14-4.59,4.66-4.36,8.35.12,1.99,1.51,3.65,3.9,2.47,2.92-1.43,4.87-3.76,6.47-6.46.13-.22-.04-.81-.27-1.03-1.57-1.55-1.79-3.44-1.59-5.59Zm-62.87,2.34s.06,0,.09-.01c-.1-.56-.11-1.17-.34-1.67-.12-.25-.64-.45-.97-.43-.24.02-.66.43-.65.66.04.73.13,1.5.41,2.16.17.39.73.62,1.12.92.11-.4.24-.8.34-1.2.03-.13,0-.28,0-.42Zm66.02,1.77c.06-1.25.1-2.35.17-3.46.06-.82-.31-1.22-1.1-1.28-.95,1.57-.63,3.54.93,4.74Z"/>
  <path class="cls-4" d="m61.69,33.2c.98-.58,1.96-1.16,2.94-1.75.07-.06.14-.12.21-.18,1.47-1.14,2.95-2.28,4.42-3.42.21.02.42.05.63.07-.07.34-.14.67-.21,1.01-.21.36-.42.71-.63,1.07-.07.07-.14.15-.21.22-.15.2-.31.41-.46.61-.34.35-.69.69-1.03,1.04-.35.29-.69.58-1.04.87-.14.13-.29.27-.43.4-.22.14-.44.28-.66.43-.06.07-.12.14-.18.21-.21.14-.43.29-.64.43-.14.06-.28.12-.42.18-.28.14-.56.29-.84.43-.14.09-.28.17-.41.26-.14.06-.29.11-.43.17-.28.09-.56.18-.84.27-.07,0-.14,0-.21,0-1.97-.21-2.99-1.68-2.47-3.69.27-1.04.68-2.05,1.02-3.08.08-.26.16-.51.24-.77l-.19-.12c-.53.43-1.06.86-1.58,1.29-.06.07-.12.14-.18.21-.22.14-.44.27-.66.41h0c-.21.14-.43.28-.64.43-.2.13-.41.27-.61.4-.21.15-.42.3-.63.45l-.41.25c-.07.06-.14.12-.21.17-.77.57-1.55,1.14-2.32,1.71-.08.06-.15.12-.23.17-.28.16-.55.32-.83.47-.08.05-.16.1-.23.15-.48.23-.96.46-1.45.69-.14.05-.28.1-.43.16-.63.15-1.26.31-1.89.46-.07,0-.14,0-.21,0-1.07-.27-2.2-.4-3.2-.83-1.33-.58-1.86-1.84-2.11-3.21-.04-.14-.07-.29-.11-.43-.24.14-.48.28-.72.42-.2.14-.41.27-.61.41-.22.15-.43.29-.65.44-.14.06-.27.13-.41.19-1.12.57-2.25,1.14-3.37,1.71-.07.01-.14.03-.2.05-.2.06-.39.12-.59.19-.37.07-.73.14-1.1.22-.28,0-.56,0-.85,0-1.83-.1-2.78-1.33-3.56-2.77-.02-.18-.05-.37-.08-.67-.24.29-.41.49-.57.68l-1.7,1.65c-.28.22-.56.44-.84.66,0,0,0,0,0,0-.28.21-.56.42-.85.64-.14.06-.28.12-.42.19-.49.29-.99.58-1.48.86-.27.08-.54.16-.81.25-.43.12-.86.25-1.3.37-.42.09-.84.17-1.26.26-.21.06-.43.11-.64.17-2.08-.11-4.17.3-6.23-.55-1.65-.69-2.98-1.66-4.11-3-.22-.25-.55-.41-.83-.61-.07.06-.15.12-.22.18-.07.02-.14.04-.2.06-.07.05-.13.1-.2.16-.92.57-1.83,1.15-2.75,1.72-.21-.02-.42-.04-.63-.06.41-.63.76-1.32,1.26-1.87.56-.62,1.26-1.12,1.9-1.67.14-.05.27-.1.41-.15-.06-.1-.11-.2-.17-.3l-.7-3.35c0-.07,0-.14,0-.21.3-2.52.59-5.04.89-7.56.12-.36.24-.71.36-1.07.02-.13.04-.27.07-.4.05-.07.1-.15.16-.22.02-.14.04-.27.06-.41.05-.07.1-.15.16-.22.02-.14.04-.27.06-.41.04-.13.09-.26.13-.38.1-.22.19-.45.29-.67l.16-.22c.07-.16.15-.31.22-.47.3-.61.59-1.23.89-1.84.07-.14.13-.29.2-.43.21-.35.43-.7.64-1.04h0c.28-.42.56-.84.85-1.26h0c.13-.21.26-.43.39-.64.08-.07.16-.15.23-.22.28-.34.57-.69.85-1.03,0,0,0,0,0,0l.42-.64,3.17-3.15c.21-.14.42-.28.63-.42h0c.7-.56,1.41-1.12,2.11-1.68h0c.21-.14.42-.28.63-.42h0c.21-.14.42-.28.63-.42h0c.7-.35,1.41-.69,2.11-1.04.07-.02.14-.03.21-.05.19-.07.39-.14.58-.21.3-.07.6-.14.89-.21.14,0,.28,0,.42,0,.56,0,1.12,0,1.68,0,.63.16,1.26.31,1.89.47h0c.84.85,1.65,1.71,1.9,2.94.01.07.03.14.04.21v2.11c0,.07,0,.14,0,.21-.12.49-.25.98-.37,1.48-.04.13-.07.25-.11.38-.42.85-.84,1.7-1.26,2.56-.28.42-.55.84-.83,1.27-.21.28-.43.56-.64.84-.13.08-.25.15-.38.23-.16-.08-.32-.16-.48-.23,0-.07-.02-.14-.03-.2.02-.06.04-.13.05-.2.05-.07.11-.15.16-.22.38-.77.76-1.55,1.14-2.32.05-.07.11-.14.16-.21l.09-.21c.11-.28.21-.57.32-.85.08-.28.17-.56.25-.84.14-.49.27-.98.41-1.47,0-.7,0-1.41,0-2.11-.06-.14-.13-.28-.19-.42-.09-.21-.17-.42-.26-.63-.14-.14-.27-.29-.41-.43h0c-.14-.12-.29-.24-.43-.36-1.05-.07-2.1-.13-3.16-.2-.5.18-1,.37-1.5.55-.21.09-.41.18-.62.27-.07.05-.14.11-.21.16-.14.07-.28.13-.42.2-.34.22-.69.44-1.03.65h0c-.57.43-1.13.84-1.7,1.25h0c-.7.63-1.41,1.26-2.11,1.9-.14.14-.28.28-.42.42-.77.91-1.55,1.82-2.32,2.74h0c-.21.28-.42.56-.62.85h0c-.21.35-.42.7-.64,1.05h0c-1.49,2.02-2.29,4.34-2.91,6.74-.02.07-.04.14-.05.2-.12.42-.25.85-.37,1.27,0,.07,0,.14,0,.21l-.44,1.89c-.01.14-.03.28-.04.42-.06.28-.11.57-.17.85,0,1.47,0,2.94,0,4.42.12,1.4.42,2.73,1.46,3.78.42.43.84.85,1.26,1.28.92.96,2.14,1.13,3.38,1.24,1.47,0,2.95,0,4.42,0,.22-.05.43-.1.65-.15,2.34-.45,4.27-1.6,6.03-3.2,1.78-1.63,3-3.44,3.56-5.84.57-2.46,2.06-4.44,4.3-5.76.84-.28,1.69-.56,2.53-.85.63,0,1.26,0,1.89,0,.7.31,1.4.61,2.09.92.07.06.14.12.21.18.41.88.61,1.78.26,2.73-.08.2-.17.41-.25.61-.15.21-.29.42-.44.63,0,0,0,0,0,0-.22.28-.43.57-.65.85-.06.06-.13.13-.19.19-.29.22-.57.44-.86.65-.2.14-.41.27-.61.41-.21.15-.42.29-.64.44-.07,0-.13.03-.2.05-.43.19-.86.39-1.29.58-.07,0-.13.01-.19.04-.14.06-.28.11-.43.17-.14.03-.28.06-.42.09-.14.05-.28.09-.42.14-.84.08-1.69.16-2.53.24-.07.06-.15.11-.22.17h0c-.21.28-.43.56-.64.84-.08.14-.15.28-.23.41-.05.14-.1.29-.15.43,0,.14,0,.28,0,.42-.06,1.65.66,2.74,2.09,3.13.81-.2,1.66-.3,2.43-.61,2.21-.88,4.23-2.09,6-3.69.35-.31.65-.73.83-1.16,1.27-3.14,3.48-5.51,6.17-7.47.39-.29.95-.35,1.43-.52.49.02.98.04,1.46.05.07.05.15.09.22.14.49.44.98.87,1.47,1.31.01.21.03.41.04.62,0,.14,0,.28,0,.42-.02.14-.03.28-.05.41-.14.35-.29.7-.43,1.05-.07.07-.13.13-.2.2-.21.09-.42.18-.62.27-.21-.44-.5-.87-.62-1.33-.18-.7-.32-1.35-1.27-1.19-.35.2-.71.39-1.06.59l-.43.4c-.29.29-.57.57-.86.86-.2.21-.4.43-.61.64-.29.35-.58.69-.87,1.04-.27.36-.54.72-.81,1.08-.15.2-.3.4-.45.61,0,0,0,0,0,0-.14.21-.29.43-.43.64,0,0,0,0,0,0-.49,1.12-1.06,2.22-1.42,3.39-.13.41.24.97.39,1.47.21.21.42.43.63.64l1.47.61c.77,0,1.54,0,2.32,0,.21-.05.43-.11.64-.16,2.06-.57,3.92-1.49,5.47-2.99.37-.34.73-.68,1.1-1.02,2.87-3.04,5.73-6.08,8.6-9.12,1.6.08,1.78.32,1.27,1.74-.02.06-.02.14-.03.2l-.4.83c-.43.77-.86,1.55-1.29,2.32-.35.7-.71,1.4-1.06,2.1-.2.38-.46.74-.59,1.15-.45,1.37-.93,2.74-1.23,4.14-.17.78.01.83.82.64Zm-28.89-7.67c1.9.35,3.46-.45,4.89-1.42.85-.58,1.54-1.46,2.15-2.31.38-.52.21-1.02-.65-1.07-1.06-.07-1.93.22-2.78.85-1.46,1.07-3.07,1.97-3.61,3.94Z"/>
  <path class="cls-4" d="m270.36,23.06c.15-.35.31-.7.46-1.05.06-.08.11-.16.17-.24.09-.27.17-.54.26-.81l.16-.24c.02-.13.04-.26.06-.39.05-.08.11-.15.16-.23.02-.13.04-.27.06-.4.05-.08.1-.15.15-.23.13-.41.25-.82.38-1.24.02-.07.03-.14.05-.21.05-.07.1-.14.15-.21.09-.21.19-.42.28-.62.35,0,.7-.01,1.05-.02.02.07.03.14.04.21.12.49.25.98.37,1.48.07.42.14.84.22,1.26,0,.21.01.43.02.64.2.64.41,1.29.61,1.93l-.37,1.3c.1.03.2.07.29.1.17-.48.33-.96.5-1.44.14-.21.29-.42.43-.63.21-.28.42-.55.63-.83.91-.93,1.82-1.85,2.73-2.78.22-.13.43-.26.65-.39,0,0,0,0,0,0,.35-.21.7-.43,1.05-.64.07-.02.14-.03.21-.05.35-.12.71-.24,1.06-.37.07-.01.14-.03.21-.04.14-.06.28-.11.43-.17.7.07,1.4.14,2.1.21.14.07.28.14.42.21,0,0,0,0,0,0,1.16.92,1.74,2.2,2.15,3.57,0,.07,0,.14-.01.21.01,1.05.03,2.11.04,3.16-.03.14-.06.27-.09.41-.26.99-.52,1.97-.78,2.96-.05.04-.07.1-.06.17-.48,1.31-1.04,2.6-1.4,3.94-.13.46.22,1.06.35,1.59,0,.07.02.13.07.18,0,.05.01.1.02.16.05-.05.1-.1.15-.15,1.54-.22,2.23-1.53,3.12-2.53,1.66-1.86,2.61-4.13,3.59-6.39.41-.95,1.13-1.78,1.71-2.66.28-.28.56-.56.85-.84,1.47-.92,2.95-1.85,4.42-2.77.07-.06.15-.11.22-.17.07-.02.13-.03.2-.05.42-.12.85-.24,1.27-.36.48,0,.97,0,1.45-.01.78.66,1.07,1.51.85,2.49-.13.59-.41,1.14-.63,1.71-1.55,2.44-3.84,3.88-6.53,4.74-.61.19-1.28.19-1.9.33-.24.05-.45.25-.67.39-.12.5-.23.99-.35,1.49,0,1.05,0,2.1,0,3.15.13.22.25.43.38.65,0,0,0,0,0,0,.59.73,1.32.78,2.13.44,2.17-.44,3.74-1.9,5.4-3.2,1.16-.9,2.3-1.84,3.44-2.76.14.15.29.31.43.46h0c-.14.21-.28.42-.42.63-1.48,1.41-2.96,2.83-4.44,4.24-.07.06-.14.12-.2.18-.98.59-1.97,1.17-2.95,1.76-.35.11-.71.22-1.06.33-1.25-.03-2.62.36-3.57-.82-.46-.57-.75-1.26-1.11-1.9-.08-.22-.16-.44-.25-.66l-.77.85s0,0,0,0c-.14.21-.29.43-.43.64-.7.63-1.4,1.25-2.09,1.88-.21.15-.42.29-.63.44-.07.01-.13.03-.2.05-.98.14-1.97.28-2.95.42-.99-.28-1.61-.88-1.73-1.94,0-.49,0-.98,0-1.48.54-1.96,1.03-3.93,1.62-5.87.54-1.78,1.23-3.51,1.18-5.43-.06-2.16-1.37-3.12-3.36-2.25-.93.41-1.71,1.17-2.56,1.77-.22.21-.43.42-.65.63-.56.7-1.12,1.39-1.68,2.09-.14.22-.29.43-.43.65-.07.13-.14.27-.21.4l-.17.23c-.16.35-.31.7-.47,1.05-.05.14-.1.28-.15.43-.05.05-.07.11-.06.18-.19.5-.38,1-.57,1.5-.08.91-.16,1.83-.24,2.74-.07.21-.14.42-.21.63-.01.14-.02.27-.03.41-.06.14-.11.28-.17.42l-.04.84c-.06.14-.11.28-.17.42,0,.07,0,.14,0,.21-.09.21-.18.41-.27.62-.07.07-.13.14-.2.21-.28.07-.56.15-.84.22-.21-.13-.43-.26-.64-.4-.07-.5-.14-1-.21-1.5.01-.28.03-.56.04-.84.05-.14.1-.28.16-.43.02-.35.03-.7.05-1.05.06-.28.12-.56.18-.84.01-.56.02-1.12.03-1.68.62-.26.47-.64.17-1.05.01-.84.03-1.69.04-2.53.06-.28.11-.56.17-.84-.07-.29-.13-.58-.2-.87.05-.3.1-.6.15-.89-.09-.02-.17-.05-.26-.07-.1.34-.2.68-.3,1.03-.03.19-.04.4-.11.58-.3.92-.61,1.84-.92,2.75-.06.04-.08.1-.06.17-.63,1.27-1.27,2.54-1.9,3.82h0c-.14.21-.28.42-.41.64,0,0,0,0,0,0-.29.42-.57.84-.86,1.26,0,0,0,0,0,0-.14.21-.29.43-.43.64l-2.52,2.3c-.21.14-.43.29-.64.43,0,0,0,0,0,0-.98.16-1.96.33-2.94.49-.49-.36-.99-.72-1.48-1.08-.12-.22-.24-.44-.36-.65-.05-.05-.08-.11-.06-.18-.13-.36-.25-.72-.38-1.09-.02-.84-.05-1.68-.07-2.53.02-.07.05-.14.07-.21.57-.61.64-1.78.11-2.22-.19.4-.37.8-.56,1.19-.29.69-.58,1.38-.87,2.07-.07.13-.13.27-.2.4-.14.22-.28.43-.42.65h0c-.15.21-.29.41-.44.62,0,0,0,0,0,0-.15.21-.3.42-.45.64-.27.28-.54.55-.82.83-.28.22-.56.43-.84.65h0c-.7.29-1.4.58-2.1.88-.07,0-.14,0-.21,0-.14.06-.28.11-.43.17-.77-.07-1.55-.15-2.32-.22-.08-.06-.17-.11-.25-.17-.48-.42-.96-.84-1.44-1.26-.06-.08-.11-.15-.17-.23-.06-.29-.13-.58-.19-.87-.02-.9-.04-1.81-.06-2.71.01-.35.02-.7.03-1.05.08-.35.16-.7.23-1.05,0-.07-.01-.14-.02-.22l.25-.81c.06-.36.11-.72.17-1.09.2-.64.39-1.27.59-1.91l.04-.41c.22-.43.44-.85.65-1.28-.14-.07-.28-.15-.43-.22-.23.41-.46.82-.68,1.23-.34.3-.69.61-1.03.91l-.63-.21c.06-.15.12-.29.18-.44.05-.07.11-.13.16-.2.09-.14.19-.28.28-.43.06-.07.12-.14.19-.21.08-.14.16-.27.24-.41.2-.28.41-.57.61-.85,0,0,0,0,0,0,.14-.21.28-.42.42-.62,0,0,0,0,0,0,.14-.21.28-.42.42-.62,0,0,0,0,0,0,.14-.19.27-.38.41-.57.07-.09.14-.19.21-.28.41,0,.81,0,1.37,0-.11.68-.19,1.27-.3,1.86-.19.99-.41,1.98-.61,2.98-.03.13-.06.27-.08.4-.11.43-.22.85-.33,1.28-.02.14-.04.28-.06.41-.05.21-.1.43-.15.64l-.06.41c-.13.91-.25,1.83-.38,2.74,0,.35,0,.7,0,1.05.13.49.25.99.37,1.48.14.21.28.42.42.63.22.13.43.25.65.38.49,0,.98.02,1.47.03.14-.06.28-.12.42-.18,2.07-.75,3.13-2.5,4.21-4.23.14-.21.28-.43.42-.64.08-.21.16-.42.25-.63.06-.07.12-.15.17-.22.03-.07.06-.13.08-.2.18-.36.37-.71.55-1.07-.01-.07,0-.14.06-.19.12-.28.24-.56.37-.84.03-.07.06-.14.09-.21.11-.28.22-.56.33-.84.08-.21.17-.42.25-.63.05-.08.11-.16.16-.24.09-.27.17-.54.26-.81.05-.08.11-.15.16-.23,0-.07.02-.13.07-.18.12-.29.24-.58.35-.87,0-.07.02-.13.07-.19.12-.29.24-.58.35-.87.02-.13.04-.27.06-.4.05-.07.1-.14.16-.21.14-.28.28-.55.43-.83,1.49-.17.93.98,1.08,1.68v.64c-.08.35-.14.7-.21,1.05v.21c-.06.35-.14.7-.22,1.05,0,.07,0,.14.01.21-.07.35-.15.7-.22,1.05-.02.14-.03.28-.05.42-.06.28-.12.56-.17.85-.01.14-.03.28-.04.41-.13.7-.26,1.41-.38,2.11-.01.14-.02.28-.03.42-.05.49-.11.99-.16,1.48,0,.42,0,.84,0,1.26-.05.59-.15,1.21.57,1.51h0c.08.04.16.1.25.15.35,0,.7.01,1.04.02.07-.05.15-.11.22-.16.06-.04.12-.05.19-.05.08-.05.15-.11.23-.16,1.33-1.49,2.66-2.98,3.99-4.47.14-.21.29-.43.43-.64.07-.14.14-.27.21-.41.14-.22.28-.43.42-.65.14-.27.28-.55.42-.82.49-.98.98-1.96,1.48-2.95Zm24.12,2.2c2.89.15,8.52-3.6,7.51-6.47-3.63.84-5.62,3.51-7.51,6.47Zm-35.22,1.67c.12.05.23.09.35.14.04-.23.08-.46.11-.69,0,0-.12-.03-.24-.05-.07.2-.15.4-.22.61Zm.42-1.05c.09.01.18.03.27.04.01-.18.02-.36.03-.54-.05,0-.09-.01-.14-.02-.05.17-.1.34-.16.51Z"/>
  <path class="cls-5" d="m341.2,34.88c.36-.5.73-1.01,1.09-1.51.05-.08.11-.16.16-.23.02-.13.04-.26.05-.39.05-.14.09-.29.14-.43.02-.21.04-.41.06-.62.13-.17.37-.33.37-.51.04-.92.04-1.85,0-2.77,0-.17-.24-.34-.37-.51-.02-.28-.04-.55-.05-.83-.12-.42-.24-.85-.36-1.27-.02-.21-.03-.42-.05-.62-.04-.14-.09-.29-.13-.43-.01-.14-.02-.29-.03-.43-.06-.21-.12-.41-.18-.62-.01-.14-.03-.28-.04-.43-.06-.14-.13-.28-.19-.42,0-.07.01-.15.02-.22-.08-.28-.15-.56-.23-.83-.01-.21-.02-.42-.04-.63v-1.12c-.09-.04-.19-.07-.28-.11-.09.14-.18.28-.25.43-.05.12-.07.26-.1.38,0,.07,0,.13-.02.19-.49.64-.97,1.27-1.46,1.91-.15.2-.3.41-.44.61,0,0,0,0,0,0-.15.21-.29.43-.44.64-.13.21-.27.42-.4.63-.14.21-.28.43-.42.64-.28.35-.56.71-.84,1.06-.15.21-.3.41-.45.62-1.33,1.33-2.66,2.65-3.99,3.98-.49.43-.99.86-1.48,1.29-.35.34-.7.69-1.05,1.03-.2.15-.41.3-.61.46-.5.34-.99.68-1.49,1.02-.63.28-1.26.56-1.9.85-.14.02-.27.05-.41.07-.56,0-1.12-.02-1.68-.02-.41-.09-.82-.18-1.24-.27-1.01-.56-1.87-1.26-2.15-2.46-.05-.08-.11-.16-.16-.24-.07-1.19-.15-2.39-.22-3.58l.23-.59c.47-2.73,2.08-4.82,3.87-6.78.79-.86,1.74-1.58,2.61-2.37.21-.12.42-.24.64-.36.35-.15.7-.3,1.05-.46.14,0,.28,0,.42,0,.7.02,1.4.03,2.1.05,1.05.87,1.01,1.98.7,3.15-.86.92-1.73,1.84-2.59,2.76-.07.06-.14.12-.21.18-.35.23-.7.45-1.06.68-.07.05-.14.11-.21.16-.14.08-.28.16-.42.24-.08.06-.16.11-.24.17-.07,0-.13.02-.18.05-.08.05-.15.11-.23.16-.07,0-.13.02-.19.05-.08.05-.15.1-.23.16-.07,0-.13.02-.19.05-.08.05-.16.1-.24.15-.06,0-.12.01-.18.05-.19.07-.39.14-.58.2-.44.14-.88.29-1.32.43-.14.05-.29.1-.43.14-.13.01-.25.02-.38.04-.09.05-.17.1-.26.15,0,0,.04.04.04.04v.05c-.29.69-.57,1.37-.85,2.06,0,.7,0,1.4,0,2.1.2.42.4.85.6,1.27.21.21.41.42.62.63.22.13.43.25.65.38.76-.06,1.53-.12,2.29-.18.08-.05.15-.11.23-.16.06-.04.12-.05.19-.05l.23-.15c.06-.02.13-.04.2-.05.07-.06.15-.11.22-.17,1.75-1.52,3.6-2.95,5.22-4.59,1.87-1.89,3.56-3.97,5.32-5.98.52-.6,1-1.23,1.5-1.84.2-.23.4-.45.61-.68.21-.22.43-.45.64-.67.05-.05.1-.11.15-.16.09-.14.18-.29.27-.43.05-.07.11-.14.16-.2.16-.28.31-.56.47-.84.05-.07.11-.14.16-.21.09-.14.17-.28.26-.43.35,0,.71,0,1.06,0-.06.85-.12,1.69-.18,2.54.05.14.09.29.14.43.04.13.07.27.11.4.32.93.64,1.86.95,2.79.02.12.04.24.06.36.12.35.24.71.35,1.06.03.14.05.27.08.41.07.21.13.42.2.63,0,.07,0,.14,0,.21.13.36.26.73.39,1.09.05.08.09.15.14.23l.06-.29c.09-.27.17-.55.26-.82.05-.08.11-.15.16-.23,1.01-2.45,2.14-4.81,4.64-6.12.63.09,1.26.18,1.89.27.65.77.43,1.62.2,2.46-.12.02-.24.04-.36.06-.09,0-.19,0-.28,0-.06,0-.12-.01-.18-.01-.12-.48-.23-.96-.35-1.43-.47.26-1.05.42-1.38.8-.63.71-1.11,1.54-1.66,2.32-.14.21-.28.43-.43.64-.21.48-.43.96-.64,1.44-.11.29-.22.59-.33.88-.04.13-.08.27-.12.4-.05.15-.09.29-.14.44,0,.07,0,.14.01.21-.07.35-.15.7-.22,1.05,0,1.05,0,2.1,0,3.15.13.42.25.84.38,1.27.46,1.01,1.41,1.48,2.55,1.01,1.14-.48,2.3-1.07,3.24-1.86,2.1-1.77,3.72-3.96,4.96-6.42.06-.11.15-.2.22-.31.16-.11.39-.19.47-.34.59-1.13,1.17-2.28,1.72-3.43.05-.11-.05-.29-.08-.44.37-.77.73-1.55,1.1-2.32.06-.07.11-.14.17-.2.07-.21.14-.41.22-.62.05-.07.11-.15.16-.22.22-.37.45-.75.67-1.12.35.02.71.04,1.06.05h0c0,.43.02.85.03,1.27-.07.28-.14.56-.21.84,0,.14,0,.28,0,.42,0,.28,0,.56-.01.83-.13.12-.27.24-.4.35.09.08.18.17.27.25.18-.21.35-.41.53-.62.57-.49,1.13-.97,1.7-1.46.07-.06.14-.12.21-.18.28-.17.57-.35.85-.52.07-.05.14-.09.21-.14l.42-.27c.21-.12.43-.24.64-.36.42-.08.84-.17,1.26-.25.35,0,.7,0,1.06,0,.28.15.55.31.83.46l.66,1.22c.12.22.25.45.37.67,0,.98,0,1.96,0,2.95-.13.22-.25.43-.38.65.01.13.02.27.03.4-.02.13-.04.26-.06.38-.26.71-.53,1.43-.79,2.14-.09.34-.17.68-.26,1.03-.05.08-.1.15-.15.23-.02.14-.04.28-.07.42-.18.56-.35,1.13-.53,1.69-.03.13-.07.26-.1.39-.05.08-.1.16-.15.24-.02.14-.05.28-.07.42-.05.14-.1.29-.15.43-.1.42-.2.83-.29,1.25-.04.15-.09.29-.13.44-.02.21-.04.42-.05.62-.33.81-.28,1.03.23,1.21.91-.47,1.83-.94,2.74-1.4.42-.42.85-.85,1.27-1.27.59-.55,1.18-1.1,1.77-1.65.12.35.23.7.35,1.05-.07.27-.15.54-.22.81-.07.07-.14.14-.21.22-.16.2-.31.4-.47.61-.06.07-.12.13-.18.2-.21.22-.43.43-.64.65-.14.13-.28.26-.42.4-.21.15-.42.3-.64.45-.42.3-.83.6-1.25.9-.07.05-.15.1-.22.15-.07,0-.14.03-.2.06-.07.05-.15.1-.22.15-.07,0-.14.02-.2.05-.08.05-.16.1-.24.15-.69,0-1.39-.02-2.08-.02-.08-.05-.17-.1-.25-.15-.27-.43-.53-.85-.8-1.28,0-.42,0-.84,0-1.26l.03-.63c.13-.49.27-.98.4-1.47.02-.14.04-.28.05-.42.18-.56.37-1.13.55-1.69.02-.14.05-.28.07-.42.05-.08.1-.16.15-.24.02-.13.04-.26.05-.4.05-.08.1-.16.15-.24.02-.13.04-.26.05-.38.34-.98.67-1.97,1.01-2.95.02-.14.04-.28.06-.42.05-.07.1-.15.15-.22.02-.13.04-.27.05-.4.05-.14.11-.28.16-.42.02-.14.04-.28.06-.42.05-.14.1-.28.16-.42.05-1.13.61-2.29-.21-3.37-.07-.06-.14-.12-.21-.17-.63.08-1.27.15-1.9.23-.07.05-.14.1-.21.16-.07.02-.14.04-.21.06-.07.05-.14.1-.21.16-.14.08-.28.17-.42.25-.07.06-.14.12-.21.17-1.55,1.01-2.78,2.31-3.59,3.99-.46,1.13-.93,2.25-1.39,3.38l-.1.38c-.26.85-.51,1.71-.77,2.56-.03.12-.06.24-.08.37-.12.3-.23.6-.35.9-.02.19-.05.39-.07.58-.05.09-.1.17-.14.26-.02.13-.04.26-.06.39-.05.08-.1.16-.14.24-.02.2-.05.39-.07.59-.05.08-.1.17-.14.25-.02.19-.05.39-.07.58-.05.09-.1.18-.16.26-.23.98-.46,1.96-.69,2.94-.05.14-.1.29-.14.43-.02.14-.04.28-.06.41-.05.14-.1.29-.14.43-.02.14-.04.28-.06.41-.05.14-.1.29-.15.43-.02.14-.04.28-.06.41-.05.14-.1.29-.15.43-.02.14-.04.28-.06.41-.05.14-.1.28-.15.43l-.06.41c-.05.14-.1.29-.15.43-.02.14-.04.28-.07.41-.05.14-.1.29-.15.43-.02.14-.04.28-.07.41-.05.14-.1.29-.14.43-.02.14-.04.28-.07.41-.05.14-.1.29-.14.43l-.06.41c-.05.14-.1.29-.14.43-.02.14-.04.28-.06.42-.06.14-.11.28-.17.42-.09.49-.18.98-.27,1.47-.05.14-.11.29-.16.43,0,.07,0,.14,0,.21-.07.28-.15.56-.22.84-.02.2-.03.4-.05.59-.41.29-.83.57-1.24.86-.13-.42-.26-.83-.39-1.25.06-.14.11-.28.17-.42.16-.77.33-1.54.49-2.31.04-.14.09-.29.13-.43.23-1.05.46-2.1.69-3.15.06-.14.13-.28.19-.41.02-.14.03-.28.05-.43.05-.14.1-.28.14-.42.36-1.47.72-2.95,1.09-4.42l.18-.42c.02-.14.04-.28.06-.42.05-.14.11-.28.16-.42.02-.14.04-.28.05-.42.07-.2.13-.4.2-.6.14-.57.27-1.14.41-1.72.06-.14.12-.28.18-.42.02-.14.04-.28.06-.43.05-.08.1-.16.14-.24.1-.48.19-.96.29-1.45.05-.07.09-.15.14-.22.01-.21.03-.41.04-.62.12-.29.25-.59.37-.88.08-.55.17-1.09.25-1.64.15-.35.3-.71.45-1.06.05-.08.1-.15.15-.23.01-.13.03-.27.04-.4l1.08-2.35c-.13-.06-.25-.12-.38-.18-.6.53-.93,1.21-.94,2.07-.43.85-.85,1.71-1.28,2.56,0,0,0,0,0,0-.21.35-.42.71-.64,1.06,0,0,0,0,0,0-.14.21-.28.43-.42.64h0c-.14.21-.29.42-.43.63-.2.29-.41.57-.61.86-.15.2-.3.41-.45.61-.77.77-1.53,1.54-2.3,2.31l-.66.43c-.2.14-.41.27-.61.41-.22.14-.43.29-.65.43-.34.16-.68.32-1.02.48-.14.05-.28.1-.43.15-.84.06-1.68.12-2.53.18-.65-.26-1.29-.53-1.94-.79-.34-.36-.68-.71-1.01-1.07-.06-.07-.12-.14-.17-.21-.04-.05-.06-.11-.05-.18-.04-.2-.08-.39-.12-.59-.05,0-.11,0-.16,0-.04.17-.09.34-.13.51-.79,1.4-1.88,2.23-3.59,1.89-.08-.05-.15-.1-.23-.15-.2-.14-.41-.28-.61-.42-.12-.77-.25-1.53-.37-2.3.26-.43.52-.87.78-1.3.07-.06.15-.12.22-.18l.22-.09.23-.14c.13,0,.27,0,.4,0,.08.21.16.42.25.63-.22.28-.44.56-.67.84-.06.07-.12.14-.17.21-.02.49-.03.99-.05,1.48.07.06.14.12.22.19.28-.05.57-.11.85-.16Zm-11.19-14.12h0c-.39-.7-.81-.62-1.26-.04-.2.04-.42.03-.6.11-2.38,1.06-3.89,2.97-5.09,5.18,0,.13,0,.26.01.38.14-.11.27-.23.41-.34.28-.09.55-.18.83-.26l.22-.16c.07-.03.13-.04.2-.05.07-.06.15-.12.22-.17.2-.09.4-.17.6-.26.08-.05.16-.1.24-.15.28-.16.57-.31.85-.47.07-.05.13-.11.2-.16.14-.09.29-.17.43-.26.07-.06.14-.12.2-.17.86-.92,1.71-1.85,2.57-2.77.1-.06.2-.12.3-.19l-.35-.23Zm30.98,1.94c-.08-.07-.14-.12-.2-.18-.06.07-.15.13-.16.2,0,.05.09.13.13.19.07-.06.13-.12.23-.21Zm-.25.87c-.02-.06-.03-.11-.04-.17-.05.03-.12.04-.15.08-.02.03.02.1.03.15.05-.02.11-.05.16-.07Z"/>
  <path class="cls-15" d="m151.22,13.6c.02-.07.03-.14.05-.2.06-.07.11-.14.17-.22.15-.42.31-.83.46-1.25l.16-.22c.23-.56.46-1.12.69-1.67.05-.07.1-.15.16-.22.09-.14.18-.27.26-.41.34.07.69.14,1.03.2v.82c-.47,1.32-.95,2.63-1.5,4.14.35-.17.52-.25.68-.32l.63-.05c.56,0,1.13,0,1.69,0,.07.02.14.03.2.05.21.05.43.1.64.16,0,.28,0,.57-.01.85-.19.09-.39.18-.58.27-.15.07-.31.14-.46.22l-.85.16c-.07.02-.14.03-.21.05-.35.06-.7.11-1.06.17-.64.02-1.43-.22-1.48.84-.13.35-.25.7-.38,1.05,0,.07,0,.14,0,.21-.07.28-.14.56-.22.84,0,.07,0,.14,0,.21-.07.35-.15.7-.22,1.05l-.05.42c-.05.35-.11.7-.16,1.06,0,.07,0,.14,0,.21-.07.35-.14.7-.22,1.05-.01.21-.03.42-.04.63-.06.28-.12.56-.18.84-.07.21-.13.42-.2.63v.84c-.08.28-.14.56-.21.84,0,.35-.01.7-.02,1.05-.06.21-.13.42-.19.63,0,.42,0,.84-.01,1.26,0,.98,0,1.96,0,2.94.06,1.05.57,1.64,1.66,1.65,1.07,0,1.73-.66,2.32-1.44.05-.07.11-.14.16-.21.02-.07.04-.13.05-.2.04-.13.09-.25.13-.38.08-.1.16-.2.25-.31.2-.11.39-.22.78-.45-.19.78-.34,1.37-.49,1.96-.51.65-1.02,1.29-1.53,1.94-.07.05-.15.11-.22.16-.07.01-.13.03-.2.05-.14.04-.29.09-.43.13-3.17.51-4.5-1.72-4.45-4.6,0-.98,0-1.97,0-2.95.07-1.12.14-2.24.2-3.36l.17-.81c-.08-.06-.16-.13-.24-.19-.32.4-.65.8-.97,1.2-.84.84-1.68,1.67-2.51,2.51-.27.22-.55.44-.82.66-.15.08-.29.17-.44.25-.07.06-.13.11-.2.17-.43.27-.86.54-1.29.81-.35.22-.71.44-1.06.65-.07,0-.13.02-.19.05-.14.05-.29.1-.43.15-.07.02-.14.04-.21.05-.07.06-.14.12-.22.17h0c-.19.42-.37.84-.56,1.27-.02.07-.05.13-.07.2-.14.28-.28.56-.43.85-.77.9-1.55,1.81-2.32,2.71l-.84.43c-.14.02-.28.04-.41.06-.35,0-.7,0-1.06-.01-1.58-.17-1.94-2.12-.89-3.62.18-.25.45-.43.68-.65.14.02.27.03.41.05h0c.02.2.05.41.07.61-.12.66-.23,1.32-.36,2.07h1.15c.09-.05.17-.11.26-.16,1.87-.44,2.65-2.19,2.64-4,0-1.87-.35-3.73-.54-5.6-.03-.31-.05-.62-.08-.93v-.84c-.09-.02-.18-.05-.27-.07-.19.3-.38.6-.57.9-.62.7-1.25,1.4-1.87,2.1-.15.21-.3.42-.45.63-.27.28-.54.56-.81.84-.29.35-.58.7-.87,1.06-.85.83-1.67,1.69-2.56,2.47-1.57,1.39-3.19,2.74-4.79,4.11-.08.05-.16.1-.23.16-.07,0-.13.02-.19.06-.08.05-.15.1-.23.16-.07,0-.13.02-.19.05-.07.05-.15.11-.22.16-.07,0-.13.02-.19.05-.14.05-.29.1-.43.15-.14.02-.28.04-.41.06-.56,0-1.13,0-1.69,0-2.27-.41-3.85-2.57-3.99-4.86-.06-1.05.09-2.12.15-3.18-.05-.06-.11-.11-.16-.17-.36-.08-.73-.17-1.09-.25.02-.14.03-.28.05-.42.21-.09.41-.18.62-.27.14-.05.29-.09.43-.14.28-.22.65-.39.83-.68.85-1.38,1.53-2.88,2.5-4.16.66-.87,1.7-1.46,2.56-2.17.21-.12.42-.25.63-.37.07-.02.14-.03.21-.05.14-.05.28-.1.43-.15.07-.02.14-.03.21-.05.14-.05.28-.11.43-.16.14.05.28.11.42.16.35,0,.71,0,1.06,0,.14.02.28.03.42.05.79.41,1.44.9,1.27,1.94-.06.33-.11.66-.16,1-.05.05-.07.11-.06.19-.14.21-.29.43-.43.64,0,0,0,0,0,0-.64.63-1.28,1.26-1.92,1.9-.69.42-1.39.84-2.08,1.25l-.58.26c-.16.08-.31.15-.47.23-.08.05-.15.11-.23.16-.56.16-1.11.32-1.67.47l-.6.2c-.21.15-.42.3-.64.45-.07.26-.15.52-.22.78,0,.07,0,.14.01.21-.43,1.15-.43,2.27.14,3.37.07.14.14.28.21.42.15.21.3.42.45.63.07.07.13.14.2.2.71.34,1.42.68,2.13,1.01.21,0,.42,0,.63,0l.43-.15c2.84-.71,4.61-2.7,6.27-4.95,1.57-2.14,3.39-4.11,5.1-6.15.91-1.09,1.83-2.17,2.74-3.25l.4-.64c.08-.07.16-.15.23-.22.05-.06.11-.13.16-.19.09-.14.18-.29.27-.43.05-.07.11-.13.16-.2.23-.28.46-.56.68-.84.35.07.7.14,1.05.21-.28.77-.56,1.55-.83,2.32-.06.14-.12.28-.19.42,0,.07,0,.14,0,.21-.07.21-.14.42-.21.63v.21c-.06.35-.14.7-.21,1.05.19,2.18.38,4.36.56,6.54.06.05.12.1.18.15.03-.05.06-.11.09-.16,3.18-2.5,5.84-5.46,7.99-8.88.21-.34.42-.68.63-1.02,0,0,0,0,0,0,.22-.35.43-.7.65-1.05.14-.28.27-.56.41-.84.05-.07.1-.14.16-.21.02-.07.04-.14.05-.21.05-.07.11-.14.16-.21.02-.07.04-.14.05-.21.05-.07.11-.14.16-.21.02-.07.04-.14.05-.21.05-.07.1-.14.16-.21.02-.07.04-.14.05-.21.06-.07.11-.14.17-.21.16-.42.31-.83.47-1.25l.16-.22Zm-24.44,6.8c-2.65-.32-5.58,2.03-6.42,5.12,2.54-.62,6.42-2.97,6.42-5.12Z"/>
  <path class="cls-14" d="m198.91,34.63c-.14.02-.28.04-.42.06-.63,0-1.27.01-1.9.02-1.42-.21-2.18-1.21-2.78-2.38-.09-.34.12-.89-.57-.83-.28,0-.55,0-.83,0,.13-.14.23-.38.39-.41.79-.19.79-.74.85-1.41.22-2.33,1.22-4.4,2.54-6.27.99-1.4,2.21-2.62,3.33-3.92.21-.13.43-.27.64-.4,0,0,0,0,0,0,.21-.14.42-.28.63-.42,0,0,0,0,0,0,.16-.05.32-.09.47-.16,2.2-1.09,4.19-.99,5.85,1.03.08.2.17.41.25.61.05.08.1.17.15.25,0,0-.01,0-.01,0,.09.12.18.25.26.37.07-.13.15-.26.22-.39.21-.14.41-.27.62-.41.28.07.55.14.83.2h0c.02.2.03.41.05.62,0,.07,0,.14,0,.21-.13.35-.27.7-.4,1.05-.05.05-.07.11-.06.18-.82,1.97-1.65,3.95-2.47,5.92-.02.12-.04.25-.06.37-.26.79-.52,1.58-.78,2.37-.02.14-.05.27-.07.41-.05.28-.1.57-.15.85,0,.42,0,.84,0,1.26-.08.62.2.95.81,1.03,1.38.3,2.3-.62,3.17-1.38,1.28-1.11,2.4-2.4,3.59-3.61.27-.29.55-.59.82-.88,2.45-3.14,4.89-6.27,7.34-9.41.23-.29.46-.59.69-.89.28,0,.56,0,.9,0-.17.66-.3,1.17-.43,1.67-.02.14-.03.28-.05.42-.06.21-.12.42-.19.63-.01.42-.02.84-.04,1.26l-.18,2.74c-.01.28-.02.56-.04.84-.06.35-.11.7-.17,1.05,0,.7-.02,1.4-.03,2.11-.06.21-.12.42-.18.63-.01.28-.03.56-.04.84-.05.14-.1.28-.15.42-.02.2-.05.39-.07.59-.12.29-.23.59-.35.88l-.49,1.04c-.14.21-.29.43-.43.64-.42.43-.83.87-1.25,1.3-.08.06-.16.11-.24.17-.07,0-.13.01-.18.05-.63.08-1.27.15-1.9.23-.97-.62-1.94-1.26-1.88-2.59.04-.99.48-1.76,1.46-2.13.28.08.56.16.84.25-.8.41-.98,1.08-.81,1.9.06.08.11.16.17.24,1.16.31,2.38-.16,2.95-1.4.55-1.18,1.04-2.44,1.24-3.71.29-1.86.3-3.76.43-5.64v-.66l-.2-.07c-.13.24-.27.47-.4.71-.07.07-.13.15-.2.22-.15.21-.3.41-.45.62-1.96,2.45-3.92,4.91-5.89,7.36-.22.28-.44.56-.66.84-1.4,1.19-2.79,2.37-4.19,3.56-.33.16-.67.32-1,.48-2.03.69-3.7-.18-4.09-2.14-.05-.14-.1-.29-.14-.43,0-.28,0-.55,0-.83.08-.39.16-.79.24-1.18-.09-.05-.18-.1-.28-.15-.29.37-.57.73-.86,1.1-.27.28-.55.55-.82.83-.29.21-.58.42-.86.63h0c-.22.13-.43.28-.65.42h.01c-.49.21-.97.42-1.46.64Zm-2.96-5.86c.3,1,.54,2.03.93,2.99.16.4.7.94,1.02.91,1.09-.11,2.15-.26,3.03-1.18,2.28-2.36,3.9-5.16,5.54-7.95.78-1.33-.32-4.03-1.68-4.24-1.26-.2-2.5,0-3.51.86-.77.65-1.56,1.29-2.22,2.04-1.63,1.85-2.92,3.89-3.13,6.55Z"/>
  <path class="cls-5" d="m192.42,31.48c.28,0,.55,0,.83,0-.06.28-.13.56-.19.84-.16.42-.31.84-.47,1.26-.15.21-.29.42-.44.63-.35.42-.69.85-1.04,1.27-.22.14-.44.27-.66.41-.07,0-.13.01-.19.05l-.22.16c-.07,0-.13.02-.19.05-.2.07-.4.13-.59.2-2.27.49-3.51-.02-4.07-1.92-.21-.72-.05-1.63.19-2.37.9-2.8,1.96-5.56,2.84-8.36.29-.93.31-1.97.34-2.96.02-.82-.37-1.39-1.35-1.25-.38.05-.77.04-1.16.05-.07.05-.15.11-.22.16-.07.01-.13.03-.2.05-.07.05-.14.11-.21.16-1.6,1.35-2.82,3-3.8,4.83l-.43.64c-.07.14-.14.27-.21.41-.14.21-.29.43-.43.64-.14.28-.27.56-.41.84-.4.78-.81,1.55-1.21,2.33-.16.35-.32.69-.48,1.04-.12.28-.24.57-.36.85-.05.05-.07.11-.07.18-.12.29-.23.58-.35.87-.04.06-.07.12-.07.19-.48,1.34-.95,2.68-1.43,4.02l-.06.38c-.1.3-.21.59-.31.89-.03.13-.07.26-.1.38-.05.08-.1.16-.15.24l-.08.41c-.26.78-.52,1.55-.78,2.33-.02.12-.04.24-.06.36-.05.09-.1.18-.15.27-.02.12-.04.24-.06.36-.05.09-.1.18-.15.27-.02.12-.04.24-.06.36-.05.09-.1.18-.15.27l-.06.36c-.46,1.28-.91,2.57-1.37,3.85-.03.13-.07.25-.1.38-.05.08-.1.17-.15.25-.02.13-.04.25-.06.38-.05.09-.1.17-.15.26-.03.06-.05.12-.04.19-.05.08-.1.15-.15.23-.02.14-.04.28-.06.41-.05.07-.1.15-.15.22-.02.14-.04.27-.06.41-.05.07-.11.15-.16.22-.09.14-.17.28-.26.41-.14.01-.27.03-.41.04-.2-.08-.4-.16-.61-.24.07-.49.14-.98.2-1.48.06-.08.11-.16.17-.24.09-.41.19-.82.28-1.24.05-.08.09-.16.14-.24.01-.13.03-.26.04-.39.06-.14.11-.28.17-.42.09-.35.18-.7.27-1.05.05-.08.1-.16.14-.24.01-.13.03-.26.04-.38.13-.35.25-.71.38-1.06.02-.14.04-.28.07-.42.05-.08.1-.16.14-.24.01-.13.03-.25.04-.38.2-.57.39-1.14.59-1.71.08-.34.17-.68.25-1.02.27-.77.53-1.55.8-2.32.02-.14.05-.28.07-.42.05-.08.1-.16.14-.24.44-1.32.87-2.65,1.31-3.97.05-.09.11-.17.16-.26l.05-.37.16-.25c.02-.13.04-.25.06-.38.05-.08.11-.16.16-.24.16-.48.31-.96.47-1.44.05-.09.11-.17.16-.26.02-.13.04-.25.06-.38.05-.08.11-.16.16-.24.08-.27.17-.54.25-.81l.38-.88c.02-.13.04-.26.06-.39.05-.08.11-.15.16-.23.08-.27.17-.55.25-.82.05-.08.11-.17.16-.25.02-.13.04-.26.06-.38.05-.08.11-.16.16-.23.02-.13.04-.27.06-.4.05-.08.1-.15.15-.23,0-.07,0-.13.04-.19.3-.54.6-1.09.9-1.63-.13-.07-.26-.14-.39-.21-.25.45-.5.91-.75,1.36-.22.22-.44.45-.66.67-.41.37-.83.73-1.24,1.1-.07.06-.14.12-.21.17-.14.08-.28.17-.43.25-.07-.01-.14-.02-.21-.03-.08-.22-.15-.45-.23-.67.22-.27.43-.54.65-.81.26-.28.52-.57.78-.85,1.07-1.35,2.15-2.69,3.22-4.04.28.01.56.03.85.04,0,.06.01.12.01.18.07.29.14.59.21.88-.07.21-.13.42-.2.63-.02.12-.03.25-.05.37-.2.58-.4,1.15-.6,1.73-.07.31-.15.61-.22.92.11.03.23.07.34.1.17-.4.34-.8.51-1.2h0c.11-.14.23-.26.34-.39,0-.06,0-.13,0-.19,1.15-1.29,2.3-2.57,3.44-3.86.21-.14.42-.28.63-.43,1.08-.87,2.36-.61,3.59-.62.14.07.28.14.42.22.07.07.14.13.21.2.35.63.71,1.26,1.06,1.89,0,.56,0,1.12-.01,1.68-.05.14-.11.28-.16.43-.02.14-.03.28-.05.41-.69,2.17-1.39,4.34-2.07,6.52-.37,1.19-.69,2.39-1.04,3.59.09.48.07,1.31.29,1.38.92.3,1.85.02,2.57-.62.78-.69,1.47-1.48,2.21-2.23Zm-12.69-6.1c-.06.15-.12.31-.17.46.06.02.11.04.17.06.07-.17.14-.35.22-.52,0-.12.02-.23.02-.35-.08.11-.16.23-.24.34Z"/>
  <path class="cls-4" d="m94.77,28.54l-.21.41c-.14.21-.28.43-.42.64-.14.28-.28.56-.42.84-.14.21-.28.42-.42.63-.28.56-.56,1.12-.84,1.68-.21.35-.43.7-.64,1.05-.21.35-.42.69-.63,1.04-.28.1-.56.19-.84.29-.7-.5-.47-1.13-.22-1.75,1.02-2.59,2.12-5.15,3.02-7.78.44-1.27.5-2.66.74-4-.05-.05-.11-.1-.16-.16-.14,0-.28,0-.43,0l-.22.15c-.07,0-.13.02-.19.05-.21.12-.43.25-.64.37-.14.06-.28.12-.43.18-.21.15-.42.3-.63.45-.14.06-.28.12-.42.18-.21.15-.43.29-.64.44-.44.15-.88.31-1.32.46-.09-.06-.18-.12-.26-.18.25-.46.4-1.02.77-1.36,1.01-.96,2.1-1.82,3.16-2.73.14-.06.28-.11.43-.17.07-.02.14-.03.2-.05.14,0,.28,0,.42,0,.56.01,1.12.02,1.69.04.14.08.27.16.41.24.3.69.59,1.38.89,2.07v1.18c.26-.17.36-.2.42-.27.14-.15.26-.32.39-.48.07-.07.14-.14.21-.21.28-.28.56-.56.85-.84.7-.51,1.4-1.01,2.1-1.52,1.26-.12,2.53-.24,3.79-.37,0,0,0,0,0,0,.28.29.56.57.84.86,0,0,0,0,0,0,.16.41.33.83.49,1.24v.21c0,.42,0,.84,0,1.27-.01.21-.02.42-.04.63-.76,1.86-1.53,3.72-2.28,5.58-.38.94-.71,1.89-1.06,2.83-.07.14-.13.28-.2.42.05.28.11.56.16.85.01.21.03.42.04.63.06.06.12.11.18.17.42-.08.84-.15,1.26-.23.24.23.47.46.71.69-.03.07-.05.13-.08.2-.15.21-.3.42-.45.62,0,0,.01-.01.01-.01-.21.15-.43.29-.64.44-.07,0-.13.01-.18.05-.42,0-.85.01-1.27.02-1.16-.62-1.88-2.45-1.39-3.96.76-2.34,1.65-4.64,2.44-6.97.28-.83.52-1.69.61-2.56.13-1.17-.06-1.3-1.24-1.25-.14.05-.29.1-.43.15-.14.07-.28.13-.43.2-.21.15-.42.3-.64.45-.07.06-.14.13-.2.19-.21.15-.41.3-.62.45-.63.63-1.27,1.25-1.9,1.88-.15.21-.29.42-.44.64l-.4.44-.42.62c-.07.07-.14.15-.21.22-.15.2-.3.4-.44.61h0c-.14.21-.29.42-.43.63h0c-.14.21-.28.42-.42.63,0,0,0,0,0,0-.14.22-.28.43-.42.65Z"/>
  <path class="cls-15" d="m67.59,10.2c.46-1.53.85-1.87,2.09-1.83.14.04.29.08.43.13.14.09.27.18.41.27.38.93.39,1.79-.41,2.53-.21.08-.42.16-.63.24-.14,0-.28,0-.42,0-.43-.36-.87-.73-1.3-1.09-.05-.08-.11-.16-.16-.24Z"/>
  <path class="cls-14" d="m412.45,9.59c-.07.02-.14.03-.2.05-.28,0-.56,0-.85,0-.36-.43-.99-.87-.99-1.3,0-.43.63-.87.99-1.3.56.08,1.12.17,1.69.25.06.07.13.14.19.21.01.49.02.98.04,1.47-.15.13-.29.27-.44.4-.14.07-.28.14-.42.21Z"/>
  <path class="cls-14" d="m440.7,11.28c-1.01-.29-1.49-.95-1.26-1.75.21-.73,1.02-1.14,1.91-.96.2.04.38.13.58.19.55,1.49.36,1.87-1.22,2.51Z"/>
  <path class="cls-13" d="m116.91,17.8c-.34-.09-.68-.19-1.02-.28.13-.3.22-.61.39-.88.47-.76.98-1.5,1.47-2.25.28.02.56.03.84.05h0c.07.14.14.28.22.42l-.64,2.3c-.42.21-.84.43-1.26.64Z"/>
  <path class="cls-1" d="m477.42,22.65c-.08-1.12-.04-2.27-.26-3.37-.36-1.74-.75-2.92-3.27-2.74-.24.02-.48-.02-.73-.03.47-.77,1.09-.71,1.9-.55,1.51.29,1.86,1.47,2.32,2.6.54,1.32.41,2.71.41,4.09-.13,0-.26,0-.38,0Z"/>
  <path class="cls-2" d="m187.35,32.96c.35-1.2.67-2.4,1.04-3.59.68-2.18,1.38-4.35,2.07-6.52-.09.68-.09,1.39-.29,2.04-.8,2.63-1.65,5.24-2.49,7.85-.03.1-.21.15-.33.22Z"/>
  <path class="cls-3" d="m102.18,31.7c.35-.94.69-1.9,1.06-2.83.75-1.87,1.52-3.72,2.28-5.58,0,.35.13.74.01,1.04-.77,1.89-1.58,3.77-2.41,5.63-.27.6-.63,1.17-.94,1.75Z"/>
  <path class="cls-3" d="m154.69,33.38c.15-.59.29-1.19.49-1.96-.39.22-.58.33-.78.45-.28-.99.46-1.54.84-2.37.77,1.19.44,3.05-.55,3.88Z"/>
  <path class="cls-6" d="m455.86,20.55c-.27-.61-.46-1.26-.82-1.8-.63-.97-1.88-1.2-3.38-.72.47-.28.92-.76,1.41-.81,1.55-.15,3.05,1.72,2.78,3.34Z"/>
  <path class="cls-2" d="m250.17,24.12c.2-.99.42-1.98.61-2.98.11-.59.19-1.19.3-1.86h-1.37c.32-.24.65-.48.97-.72.24.32.72.68.67.95-.26,1.53-.64,3.03-1,4.54,0,.04-.12.05-.19.07Z"/>
  <path class="cls-2" d="m61.69,33.2c-.81.19-.99.14-.82-.64.3-1.41.78-2.77,1.23-4.14.13-.4.39-.77.59-1.15-.01.27.03.56-.05.81-.4,1.14-.93,2.25-1.23,3.42-.13.51.18,1.13.28,1.71Z"/>
  <path class="cls-2" d="m464.09,34.43c.7-1.9,1.41-3.81,2.11-5.71-.6,1.87-1.2,3.75-1.82,5.62-.02.05-.19.06-.29.09Z"/>
  <path class="cls-3" d="m104.25,19.08c-1.26.12-2.53.24-3.79.37.98-1.19,2.98-1.38,3.79-.37Z"/>
  <path class="cls-2" d="m302.83,21.8c.21-.57.5-1.12.63-1.71.22-.98-.06-1.83-.85-2.49.64-.11.92.21,1.1.79.38,1.22,0,2.8-.88,3.41Z"/>
  <path class="cls-2" d="m272.48,22.19c.07.29.13.58.2.87l-.24.77c-.25.27-.52.53-.75.82-.23.3-.43.62-.64.94.31-.92.62-1.83.92-2.75.06-.19.07-.39.11-.58.14-.02.27-.04.41-.06Z"/>
  <path class="cls-2" d="m43.97,32.1c-.14-.49-.51-1.06-.39-1.47.36-1.16.93-2.26,1.42-3.39-.05.26-.04.57-.17.79-.79,1.26-.98,2.62-.86,4.06Z"/>
  <path class="cls-14" d="m359.54,22.22c.03.15.14.33.08.44-.56,1.15-1.13,2.3-1.72,3.43-.08.15-.31.23-.47.34.7-1.4,1.4-2.81,2.1-4.21Z"/>
  <path class="cls-8" d="m400.65,18.44c.43-1.42.11-1.75-1.48-1.48.74-1.2,1.11-1.11,2.39.67-.29.25-.6.53-.91.8Z"/>
  <path class="cls-6" d="m451.45,18.23c-.14.14-.3.41-.42.39-1.44-.21-2.72.34-4.01.84.95-.41,1.88-.88,2.86-1.2.47-.16,1.04-.02,1.57-.02Z"/>
  <path class="cls-3" d="m421.13,24.75c.38-1.14.88-2.22,1.56-3.18.1.04.21.08.31.11-.09.46-.17.92-.26,1.39-.28.24-.58.45-.83.72-.29.3-.52.64-.78.97Z"/>
  <path class="cls-3" d="m401.49,29.55c-.11-.06-.3-.1-.32-.19-.39-1.39-.76-2.79-1.13-4.19.24.42.56.82.7,1.28.3,1.02.51,2.07.75,3.1Z"/>
  <path class="cls-2" d="m33.64,32.93c-1.42-.39-2.15-1.47-2.09-3.13.07.02.19.04.19.06.06,1.38,1.11,2.14,1.9,3.06Z"/>
  <path class="cls-14" d="m342.71,27.91c.13.17.36.33.37.51.04.92.04,1.85,0,2.77,0,.17-.24.34-.37.51,0-1.26,0-2.53,0-3.79Z"/>
  <path class="cls-1" d="m331.57,21.81c.31-1.17.35-2.28-.7-3.15.25.07.57.05.73.21.8.78.77,2.09-.03,2.94Z"/>
  <path class="cls-2" d="m358.05,28.53c.43-.85.85-1.71,1.28-2.56.08.16.16.31.24.47-.01.13-.03.27-.04.4-.05.08-.1.15-.15.23-.15.35-.3.71-.45,1.06-.3.13-.59.27-.89.4Z"/>
  <path class="cls-2" d="m269.08,29.58c.63-1.27,1.27-2.54,1.9-3.82-.21,1.48-.78,2.79-1.9,3.82Z"/>
  <path class="cls-2" d="m11.3,31.89c-1.04-1.05-1.33-2.38-1.46-3.78.1.04.26.06.28.12.4,1.22.79,2.44,1.18,3.66Z"/>
  <path class="cls-3" d="m440.7,11.28c1.59-.64,1.77-1.02,1.22-2.51,1.01.36.78,1.13.48,1.77-.31.67-.82,1.22-1.7.74Z"/>
  <path class="cls-3" d="m418.34,30.63c.63-1.27,1.26-2.55,1.9-3.82-.63,1.27-1.26,2.55-1.9,3.82Z"/>
  <path class="cls-3" d="m153.38,14.24c-.16.08-.32.15-.68.32.55-1.51,1.03-2.82,1.51-4.14-.2.83-.4,1.66-.59,2.5-.1.43-.17.88-.25,1.31Z"/>
  <path class="cls-2" d="m65.45,22.01c0-.07,0-.14.03-.2.5-1.41.33-1.65-1.27-1.74.53-.68,1.14-.53,1.62-.02.55.58.32,1.51-.38,1.96Z"/>
  <path class="cls-11" d="m380.84,20.13c-.78.77-1.55,1.54-2.33,2.31.39-1.16,1.14-1.95,2.33-2.31Z"/>
  <path class="cls-2" d="m119.41,31.91c-.58-1.1-.57-2.23-.14-3.37.05,1.12.1,2.25.14,3.37Z"/>
  <path class="cls-2" d="m36.16,34.01c1.12-.57,2.25-1.14,3.37-1.71-1.12.57-2.25,1.14-3.37,1.71Z"/>
  <path class="cls-1" d="m468.77,18.02c-.07-1.5-.33-1.68-1.72-1.27.38-.8,1.03-.87,1.59-.35.43.4.99,1.01.13,1.62Z"/>
  <path class="cls-2" d="m262.39,20.54c-.15-.69.41-1.85-1.08-1.68.55-.63,1.07-.62,1.3.08.18.54.52,1.16-.22,1.6Z"/>
  <path class="cls-2" d="m15.93,34.41c-1.24-.11-2.45-.28-3.38-1.24,1.13.41,2.25.83,3.38,1.24Z"/>
  <path class="cls-8" d="m389.69,23.72c-.19.07-.38.14-.62.23,0-1.01,0-1.9,0-2.79.13.27.33.54.39.83.12.57.16,1.15.23,1.73Z"/>
  <path class="cls-15" d="m270.36,23.06c-.49.98-.98,1.96-1.48,2.95.49-.98.98-1.96,1.48-2.95Z"/>
  <path class="cls-3" d="m147.86,28.12c0,.98,0,1.97,0,2.95-.56-.62-.56-2.33,0-2.95Z"/>
  <path class="cls-3" d="m70.11,11.29c.8-.74.79-1.6.41-2.53.9.34.7,1.11.56,1.73-.09.39-.19,1.1-.97.8Z"/>
  <path class="cls-2" d="m360.89,27.7c.46-1.13.93-2.25,1.39-3.38-.46,1.13-.93,2.25-1.39,3.38Z"/>
  <path class="cls-3" d="m410.8,21.81c.04-.91,0-1.75-1.3-1.5.37-.72.97-.53,1.32-.13.39.45.76,1.1-.02,1.63Z"/>
  <path class="cls-1" d="m470.2,18.64c-.52.61-1.04,1.22-1.56,1.83-.1-.05-.19-.09-.29-.14v-.84l1.85-.84Z"/>
  <path class="cls-3" d="m426.8,9.17c-.64-.46-1.19-.26-1.69.23-.03-.73.34-1.15,1.05-1.03.25.04.43.52.64.8Z"/>
  <path class="cls-2" d="m41.89,22.44c.35-.95.15-1.85-.26-2.73,1.15.75,1.25,1.81.26,2.73Z"/>
  <path class="cls-7" d="m221.92,24.96c.06-.91.12-1.82.18-2.74.24.93.55,1.87-.18,2.74Z"/>
  <path class="cls-2" d="m261.31,35.32c.98-.16,1.96-.33,2.94-.49-.66.9-2.19,1.15-2.94.49Z"/>
  <path class="cls-2" d="m249.11,30.01c.13-.91.25-1.83.38-2.74.21.96.23,1.89-.38,2.74Z"/>
  <path class="cls-2" d="m259.02,29.59c-.02.07-.05.14-.07.21-.16,0-.38-.08-.46,0-.29.25-.53.56-.78.84.29-.69.58-1.38.87-2.07.88.03.21.73.45,1.03Z"/>
  <path class="cls-15" d="m247.4,30.01c.02.9.04,1.81.06,2.71-.02-.9-.04-1.81-.06-2.71Z"/>
  <path class="cls-2" d="m20.36,2.66c-.7.56-1.41,1.12-2.11,1.68.37-.98,1.16-1.43,2.11-1.68Z"/>
  <path class="cls-14" d="m368.81,25.17c-.34.98-.67,1.97-1.01,2.95.34-.98.67-1.97,1.01-2.95Z"/>
  <path class="cls-2" d="m37.44,18.61c-.84.28-1.69.56-2.53.85.67-.84,1.95-1.27,2.53-.85Z"/>
  <path class="cls-3" d="m151.48,34.4c-1.09-.01-1.6-.61-1.66-1.65l1.66,1.65Z"/>
  <path class="cls-15" d="m248.24,23.21c.23-.41.46-.82.68-1.23.14.07.28.15.43.22-.22.43-.44.85-.65,1.28-.15-.09-.3-.18-.46-.27Z"/>
  <path class="cls-2" d="m41.43,19.53c-.7-.31-1.4-.61-2.09-.92.57-.51,1.71,0,2.09.92Z"/>
  <path class="cls-2" d="m63.76,25.16c.43-.77.86-1.55,1.29-2.32-.43.77-.86,1.55-1.29,2.32Z"/>
  <path class="cls-8" d="m190.69,20.33c-.35-.63-.71-1.26-1.06-1.89.95.3,1.19.99,1.06,1.89Z"/>
  <path class="cls-2" d="m261.12,28.54c.13-.7.26-1.41.38-2.11.14.75.27,1.5-.38,2.11Z"/>
  <path class="cls-1" d="m466.18,17.8l-1.45,1.65,1.45-1.65Z"/>
  <path class="cls-2" d="m58.27,29.16c.53-.43,1.06-.86,1.58-1.29l.19.12c-.08.26-.16.51-.24.77-.51.13-1.02.27-1.54.4Z"/>
  <path class="cls-2" d="m360.03,30.64c.26-.85.51-1.71.77-2.56-.26.85-.51,1.71-.77,2.56Z"/>
  <path class="cls-2" d="m23.74.77c-.7.35-1.41.69-2.11,1.04.7-.35,1.41-.69,2.11-1.04Z"/>
  <path class="cls-2" d="m468.93,23.26c.43-.63.85-1.26,1.28-1.9-.43.63-.85,1.26-1.28,1.9Z"/>
  <path class="cls-3" d="m394.36,31.7c-.21-.42.39-1.12-.46-1.32.25-.03.49-.07.74-.1-.1.47-.19.94-.29,1.41Z"/>
  <path class="cls-14" d="m174.02,37.79c-.27.77-.53,1.55-.8,2.32.27-.77.53-1.55.8-2.32Z"/>
  <path class="cls-3" d="m434.83,29.59c.13-.7.25-1.41.38-2.11-.13.7-.25,1.41-.38,2.11Z"/>
  <path class="cls-2" d="m53.66,20.97c-.49-.44-.98-.87-1.47-1.31.23-.05.61-.2.66-.13.31.45.55.95.82,1.44Z"/>
  <path class="cls-2" d="m295.89,32.99c-.81.34-1.54.29-2.13-.44.71.15,1.42.29,2.13.44Z"/>
  <path class="cls-1" d="m321.62,29.8c.28-.69.56-1.37.83-2.06-.28.69-.56,1.37-.83,2.06Z"/>
  <path class="cls-14" d="m338.93,33.41c.12.77.25,1.53.37,2.3-.75-.67-.86-1.43-.37-2.3Z"/>
  <path class="cls-2" d="m122.39,34.19c-.71-.34-1.42-.68-2.13-1.01.71.34,1.42.68,2.13,1.01Z"/>
  <path class="cls-3" d="m379.36,34.65c.7-.29,1.4-.59,2.09-.88-.45.88-1.25.94-2.09.88Z"/>
  <path class="cls-3" d="m476.57,27.7c.12-.63.25-1.27.37-1.9-.12.63-.25,1.27-.37,1.9Z"/>
  <path class="cls-3" d="m412.68,33.42c-.74.25-1.47.47-1.94-.44.65.15,1.29.3,1.94.44Z"/>
  <path class="cls-2" d="m252.46,35.3c.7-.29,1.4-.59,2.1-.88-.49.79-1.19,1.09-2.1.88Z"/>
  <path class="cls-3" d="m372.41,32.54c-.42.42-.85.85-1.27,1.27-.08-.93.34-1.35,1.27-1.27Z"/>
  <path class="cls-3" d="m330.85,32.32c.49-.43.99-.86,1.48-1.29-.22.75-.62,1.28-1.48,1.29Z"/>
  <path class="cls-3" d="m325.8,35.67c.63-.28,1.26-.56,1.9-.85-.4.81-1.06,1.02-1.9.85Z"/>
  <path class="cls-8" d="m385.25,18.85c-.36.35-.72.7-1.08,1.05-.11-.07-.22-.13-.33-.2-.02-.14-.04-.28-.07-.42.49-.15.99-.29,1.48-.44Z"/>
  <path class="cls-3" d="m147.03,24.95c.32-.4.65-.8.97-1.2.08.06.16.13.24.19l-.17.81c-.34.07-.69.13-1.03.2Z"/>
  <path class="cls-14" d="m345.38,35.92c.65.26,1.29.53,1.94.79-.65-.26-1.29-.53-1.94-.79Z"/>
  <path class="cls-3" d="m323.71,35.71c.56,0,1.12.02,1.68.02-.51.69-1.1.44-1.69.15,0-.06,0-.11.02-.17Z"/>
  <path class="cls-2" d="m121.33,35.74c.56,0,1.13,0,1.69,0-.56.59-1.13.59-1.69,0Z"/>
  <path class="cls-3" d="m411.19,35.31c.56,0,1.13,0,1.69,0-.56.59-1.13.59-1.69,0Z"/>
  <path class="cls-2" d="m10.89,13.18c-.3.61-.59,1.23-.89,1.84.3-.61.59-1.23.89-1.84Z"/>
  <path class="cls-3" d="m370.12,26.86c.26-.71.53-1.43.79-2.14-.26.71-.53,1.43-.79,2.14Z"/>
  <path class="cls-2" d="m353.86,51.25c.41-.29.83-.57,1.24-.86-.2.39-.38.79-.61,1.16-.02.03-.41-.19-.63-.29Z"/>
  <path class="cls-2" d="m413.08,7.29c-.56-.08-1.12-.17-1.69-.25.55-.5,1.1-.42,1.69.25Z"/>
  <path class="cls-3" d="m154.2,9.61c-.34-.07-.69-.14-1.03-.2.26-.18.52-.36.77-.55.09.25.17.5.26.75Z"/>
  <path class="cls-3" d="m435.67,24.96c.13-.56.25-1.13.38-1.69-.13.56-.25,1.13-.38,1.69Z"/>
  <path class="cls-14" d="m175.5,25.56c.08.22.15.45.23.67-.02.06-.03.13-.02.19-.07,0-.13.02-.19.05-.21,0-.42,0-.64-.01q-.18-.46.62-.9Z"/>
  <path class="cls-3" d="m104.34,34.22c-.24-.23-.47-.46-.71-.69.29-.06.58-.12.87-.18l-.16.88Z"/>
  <path class="cls-2" d="m246.76,24.74c-.25.09-.5.18-.75.28.11-.3.22-.6.33-.9.14.21.28.41.42.62Z"/>
  <path class="cls-15" d="m248.65,23.89c-.2.64-.39,1.27-.59,1.91.2-.64.39-1.27.59-1.91Z"/>
  <path class="cls-15" d="m275.43,22.65c-.17.48-.33.96-.5,1.44-.1-.03-.2-.07-.29-.1.12-.43.24-.87.37-1.3.14-.01.28-.02.42-.04Z"/>
  <path class="cls-8" d="m387.16,18.61c-.49,0-.99,0-1.48-.01.5-.59.99-.62,1.48.01Z"/>
  <path class="cls-2" d="m261.49,33.21c-.72-.3-.62-.92-.57-1.51.19.5.38,1.01.57,1.51Z"/>
  <path class="cls-14" d="m340.79,20.77c.03-.13.04-.27.1-.38.07-.15.17-.29.25-.43.09.04.19.07.28.11v1.12c-.08-.07-.16-.14-.24-.21-.13-.07-.26-.13-.39-.2Z"/>
  <path class="cls-2" d="m51.97,19.52c-.49-.02-.98-.04-1.46-.05.59-.58.98-.56,1.46.05Z"/>
  <path class="cls-3" d="m369.12,30.22c.18-.56.35-1.13.53-1.69-.18.56-.35,1.13-.53,1.69Z"/>
  <path class="cls-2" d="m305.16,27.49c-.14-.15-.29-.31-.43-.46.14-.18.27-.35.41-.53.14.13.4.29.39.39-.04.21-.23.4-.36.6Z"/>
  <path class="cls-14" d="m367.32,29.79c-.18.56-.37,1.13-.55,1.69.18-.56.37-1.13.55-1.69Z"/>
  <path class="cls-3" d="m97.31,22.02c-.13.16-.25.33-.39.48-.06.07-.16.11-.42.27v-1.18c.27.14.54.28.81.42Z"/>
  <path class="cls-2" d="m413.31,8.97c-.01-.49-.02-.98-.04-1.47.62.5.63.89.04,1.47Z"/>
  <path class="cls-1" d="m471.9,17.18c-.43.34-.85.69-1.28,1.03.43-.34.85-.69,1.28-1.03Z"/>
  <path class="cls-2" d="m260.92,30.43c.05-.49.11-.99.16-1.48.3.53.48,1.05-.16,1.48Z"/>
  <path class="cls-2" d="m55.6,29.18c-.37.34-.73.68-1.1,1.02-.09-.83.3-1.14,1.1-1.02Z"/>
  <path class="cls-3" d="m408.2,29.38c0,.49,0,.98,0,1.48-.62-.49-.62-.98,0-1.48Z"/>
  <path class="cls-3" d="m400.63,32.32c.29-.47.58-.95.86-1.42-.29.47-.58.95-.86,1.42Z"/>
  <path class="cls-2" d="m249.49,32.54c-.12-.49-.25-.99-.37-1.48.13.49.25.99.37,1.48Z"/>
  <path class="cls-15" d="m271.84,32.32c.07.5.14,1,.21,1.5-.65-.42-.51-.95-.21-1.5Z"/>
  <path class="cls-10" d="m293.38,28.75c.12-.5.23-.99.35-1.49-.12.5-.23.99-.35,1.49Z"/>
  <path class="cls-2" d="m467.31,26.23l.79-1.5-.79,1.5Z"/>
  <path class="cls-3" d="m393.05,24.32c.49-.29.98-.58,1.47-.87-.49.29-.98.58-1.47.87Z"/>
  <path class="cls-3" d="m370.94,19.66c-.22-.41-.44-.81-.66-1.22.92,0,.74.73.85,1.27-.07,0-.13-.03-.19-.05Z"/>
  <path class="cls-9" d="m410.16,27.28c.08-.49.15-.98.23-1.47.2.53.45,1.08-.23,1.47Z"/>
  <path class="cls-2" d="m274.16,18.86c-.12-.49-.25-.98-.37-1.48.12.49.25.98.37,1.48Z"/>
  <path class="cls-2" d="m453.75,28.31c.29-.47.58-.94.87-1.41-.29.47-.58.94-.87,1.41Z"/>
  <path class="cls-3" d="m374.3,32.75c.07-.27.15-.54.22-.81.14-.02.27-.04.41-.06.07.22.14.44.21.65-.28.07-.56.14-.84.21Z"/>
  <path class="cls-3" d="m382.73,19.24c-.42.16-.84.33-1.25.49.27-.54.56-1.03,1.25-.49Z"/>
  <path class="cls-14" d="m366.71,31.91c-.13.49-.27.98-.4,1.47.13-.49.27-.98.4-1.47Z"/>
  <path class="cls-2" d="m23.93,35.69c.49-.29.99-.58,1.48-.86-.49.29-.99.58-1.48.86Z"/>
  <path class="cls-13" d="m29.86,6.24c-.14.49-.27.98-.41,1.47.14-.49.27-.98.41-1.47Z"/>
  <path class="cls-14" d="m172.97,41.13c-.2.57-.39,1.14-.59,1.71.2-.57.39-1.14.59-1.71Z"/>
  <path class="cls-2" d="m140.52,17.39c-.35-.07-.7-.14-1.05-.21.29-.13.57-.26.86-.39.06.2.13.4.19.59Z"/>
  <path class="cls-2" d="m273.75,17.17c-.35,0-.7.01-1.05.02l.52-.62c.18.2.36.4.54.61Z"/>
  <path class="cls-2" d="m136.48,23.69c.19-.3.38-.6.57-.9.09.02.18.05.27.07v.84c-.28,0-.56,0-.84-.01Z"/>
  <path class="cls-3" d="m362.92,17.8c-.35-.02-.71-.04-1.06-.05.17-.18.34-.36.5-.54.19.2.37.4.56.6Z"/>
  <path class="cls-3" d="m387.77,27.48c.21-.42.42-.84.63-1.26-.21.42-.42.84-.63,1.26Z"/>
  <path class="cls-2" d="m12.57,10.45c-.28.42-.56.85-.85,1.27.28-.42.56-.85.85-1.27Z"/>
  <path class="cls-2" d="m436.95,34.45c.48-.22.96-.43,1.44-.65-.48.22-.96.43-1.44.65Z"/>
  <path class="cls-3" d="m346.46,34.01c-.13-.42-.25-.84-.38-1.27.13.42.25.84.38,1.27Z"/>
  <path class="cls-9" d="m410.38,25.59c.06-.42.12-.84.19-1.26.22.46.49.93-.19,1.26Z"/>
  <path class="cls-2" d="m439.61,32.73c.22-.34.44-.67.78-1.17.06.38.09.56.12.73-.3.15-.6.29-.89.44Z"/>
  <path class="cls-2" d="m46.08,33.35l-1.47-.61,1.47.61Z"/>
  <path class="cls-3" d="m101.73,35.54c.42,0,.85-.01,1.27-.02-.41.61-.84.59-1.27.02Z"/>
  <path class="cls-3" d="m417.49,31.89l.85-1.27c-.03.59-.09,1.16-.85,1.27Z"/>
  <path class="cls-14" d="m374.93,31.88c-.14.02-.27.04-.41.06-.11-.35-.23-.7-.35-1.05.25-.09.5-.18.74-.27,0,.42,0,.84,0,1.26Z"/>
  <path class="cls-3" d="m420.3,26.65c.18-.43.37-.85.55-1.28-.18.43-.37.85-.55,1.28Z"/>
  <path class="cls-2" d="m116.91,17.8c.42-.21.84-.43,1.26-.64-.42.21-.84.43-1.26.64Z"/>
  <path class="cls-3" d="m368.4,35.22c-.52-.18-.56-.41-.23-1.21.08.4.16.81.23,1.21Z"/>
  <path class="cls-2" d="m351.79,22.87c.12-.02.24-.04.36-.06-.21.21-.42.43-.63.64-.06-.2-.13-.4-.19-.6.06,0,.12,0,.18.01.09,0,.19,0,.28,0Z"/>
  <path class="cls-14" d="m366.29,34.01c0,.42,0,.84,0,1.26,0-.42,0-.84,0-1.26Z"/>
  <path class="cls-2" d="m267.82,31.47c.29-.42.57-.84.86-1.26-.29.42-.57.84-.86,1.26Z"/>
  <path class="cls-8" d="m399.83,20.54l.39-1.27-.39,1.27Z"/>
  <path class="cls-3" d="m362.95,19.07c0-.42-.02-.85-.03-1.27.65.41.61.83.03,1.27Z"/>
  <path class="cls-3" d="m105.56,22.65c0-.42,0-.84,0-1.27.59.42.59.84,0,1.27Z"/>
  <path class="cls-15" d="m247.66,27.91c-.08.35-.16.7-.23,1.05.08-.35.16-.7.23-1.05Z"/>
  <path class="cls-2" d="m132.47,28.31c.29-.35.58-.7.87-1.06-.29.35-.58.7-.87,1.06Z"/>
  <path class="cls-2" d="m449.56,33.17c.34-.29.69-.59,1.03-.88-.34.29-.69.59-1.03.88Z"/>
  <path class="cls-2" d="m21.83,36.3c.43-.12.86-.25,1.3-.37-.43.12-.86.25-1.3.37Z"/>
  <path class="cls-1" d="m456.32,24.38c-.82.42-.89-.05-.83-.69.28.23.55.46.83.69Z"/>
  <path class="cls-2" d="m46.68,24.95c.29-.35.58-.69.87-1.04-.29.35-.58.69-.87,1.04Z"/>
  <path class="cls-2" d="m322.23,33.18c-.2-.42-.4-.85-.6-1.27.2.42.4.85.6,1.27Z"/>
  <path class="cls-2" d="m450.99,31.89l.88-1.03-.88,1.03Z"/>
  <path class="cls-2" d="m66.32,32.75c.35-.29.69-.58,1.04-.87-.35.29-.69.58-1.04.87Z"/>
  <path class="cls-14" d="m342.29,25.8c.12.42.24.85.36,1.27-.12-.42-.24-.85-.36-1.27Z"/>
  <path class="cls-3" d="m395.81,33.41c-.5.3-.95.32-1.29-.24.43.08.86.16,1.29.24Z"/>
  <path class="cls-2" d="m249.76,25.8c.11-.43.22-.85.33-1.28-.11.43-.22.85-.33,1.28Z"/>
  <path class="cls-14" d="m363.12,21.16c-.18.21-.35.41-.53.62-.09-.08-.18-.17-.27-.25.13-.12.27-.24.4-.35.13,0,.27,0,.4-.01Z"/>
  <path class="cls-2" d="m14.04,8.55c-.28.34-.57.69-.85,1.03.28-.34.57-.69.85-1.03Z"/>
  <path class="cls-2" d="m272.22,18.23c-.13.41-.25.82-.38,1.24-.07,0-.13.02-.19.05.19-.43.38-.86.58-1.28Z"/>
  <path class="cls-2" d="m48.16,23.27c.29-.29.57-.57.86-.86-.29.29-.57.57-.86.86Z"/>
  <path class="cls-14" d="m323.71,35.71c0,.06-.01.11-.02.17-.41-.15-.81-.29-1.22-.44.41.09.82.18,1.24.27Z"/>
  <path class="cls-15" d="m272.47,26.43c.3.41.45.8-.17,1.05.06-.35.12-.7.17-1.05Z"/>
  <path class="cls-3" d="m396.65,22.02c.3-.24.59-.47,1.01-.8v.7c-.34.03-.67.07-1.01.1Z"/>
  <path class="cls-2" d="m36.78,26.85c.43-.19.86-.39,1.29-.58-.43.19-.86.39-1.29.58Z"/>
  <path class="cls-3" d="m105.57,21.17c-.16-.41-.33-.83-.49-1.24.16.41.33.83.49,1.24Z"/>
  <path class="cls-2" d="m262.18,22.23c.06-.35.13-.7.19-1.05-.06.35-.13.7-.19,1.05Z"/>
  <path class="cls-15" d="m246.76,24.74c-.14-.21-.28-.41-.42-.62,0,0,0,0,0,0,.05-.07.11-.14.16-.22,0,0,.08.02.08.02.21.07.42.14.63.21-.15.2-.3.41-.45.61Z"/>
  <path class="cls-3" d="m133.98,35.94c.35,0,.7,0,1.06.01-.36.6-.71.61-1.06-.01Z"/>
  <path class="cls-3" d="m369.45,17.98c-.35,0-.7,0-1.06,0,.35-.62.71-.61,1.06,0Z"/>
  <path class="cls-15" d="m272.44,23.84c.08-.26.16-.52.24-.77-.06.28-.11.56-.17.84,0,0-.07-.07-.07-.07Z"/>
  <path class="cls-3" d="m410.75,32.98c-.2-.36-.39-.72-.59-1.08.2.36.39.72.59,1.08Z"/>
  <path class="cls-3" d="m404.21,30.42c.42-.22.85-.44,1.27-.66-.42.22-.85.44-1.27.66Z"/>
  <path class="cls-3" d="m139.11,31.7l.56-1.27-.56,1.27Z"/>
  <path class="cls-8" d="m98.36,20.96c-.28.28-.56.56-.85.84.28-.28.56-.56.85-.84Z"/>
  <path class="cls-8" d="m398.08,18.22l-.81.84.81-.84Z"/>
  <path class="cls-7" d="m221.71,26.86c.06-.35.11-.7.17-1.05-.06.35-.11.7-.17,1.05Z"/>
  <path class="cls-2" d="m53.22,23.48c.14-.35.29-.7.43-1.05.41.57.12.86-.43,1.05Z"/>
  <path class="cls-3" d="m105.09,19.94c-.28-.29-.56-.57-.84-.86.63-.05.91.23.84.86Z"/>
  <path class="cls-2" d="m261.97,23.49c.08-.35.15-.7.23-1.05-.08.35-.15.7-.23,1.05Z"/>
  <path class="cls-2" d="m296.09,34.63c.35-.11.71-.22,1.06-.33-.35.11-.71.22-1.06.33Z"/>
  <path class="cls-2" d="m49.45,22.01c.35-.2.71-.39,1.06-.59-.35.2-.71.39-1.06.59Z"/>
  <path class="cls-3" d="m421.9,19.28c-.19.36-.39.72-.58,1.08.19-.36.39-.72.58-1.08Z"/>
  <path class="cls-3" d="m424.43,12.54l-.39.84c-.4-.53-.27-.8.39-.84Z"/>
  <path class="cls-3" d="m396.86,35.29c.34-.16.69-.32,1.03-.48-.34.16-.69.32-1.03.48Z"/>
  <path class="cls-3" d="m91.81,33.79c.21-.35.43-.7.64-1.05-.21.35-.43.7-.64,1.05Z"/>
  <path class="cls-3" d="m90.35,35.12c.28-.1.56-.19.84-.29-.16.44-.3.93-.84.29Z"/>
  <path class="cls-2" d="m346.08,29.59c.07-.35.15-.7.22-1.05-.07.35-.15.7-.22,1.05Z"/>
  <path class="cls-15" d="m258.14,26.42c-.18.36-.37.71-.55,1.07.18-.36.37-.71.55-1.07Z"/>
  <path class="cls-2" d="m357.42,29.58c.21-.35.42-.71.64-1.06-.21.35-.42.71-.64,1.06Z"/>
  <path class="cls-3" d="m400.04,24.96l-.21-1.05.21,1.05Z"/>
  <path class="cls-3" d="m102.14,32.96c-.05-.28-.11-.56-.16-.85.74.15.52.49.16.85Z"/>
  <path class="cls-3" d="m148.52,18.86c-.21.34-.42.68-.63,1.02.21-.34.42-.68.63-1.02Z"/>
  <path class="cls-6" d="m139.07,22.23c.07-.35.15-.7.22-1.05-.07.35-.15.7-.22,1.05Z"/>
  <path class="cls-3" d="m149.17,17.81c-.22.35-.43.7-.65,1.05.22-.35.43-.7.65-1.05Z"/>
  <path class="cls-9" d="m341.03,32.33c-.08-.21-.16-.42-.25-.63.18.02.36.04.55.06-.1.19-.2.38-.3.56Z"/>
  <path class="cls-8" d="m396.65,19.51c-.21.21-.42.41-.64.62.11-.31-.29-1.15.64-.62Z"/>
  <path class="cls-2" d="m69.05,30.01c.21-.36.42-.71.63-1.07-.21.36-.42.71-.63,1.07Z"/>
  <path class="cls-3" d="m387.16,28.54c.21-.36.41-.71.62-1.07-.21.36-.41.71-.62,1.07Z"/>
  <path class="cls-2" d="m261.76,24.75c.07-.35.15-.7.22-1.05-.07.35-.15.7-.22,1.05Z"/>
  <path class="cls-3" d="m426.99,34.41c.35-.14.7-.27,1.06-.41-.35.14-.7.27-1.06.41Z"/>
  <path class="cls-14" d="m172.12,43.89c-.13.35-.25.71-.38,1.06.13-.35.25-.71.38-1.06Z"/>
  <path class="cls-3" d="m140.71,30c.35-.22.71-.44,1.06-.65-.35.22-.71.44-1.06.65Z"/>
  <path class="cls-2" d="m468.29,24.32c.22-.35.43-.71.65-1.06-.22.35-.43.71-.65,1.06Z"/>
  <path class="cls-2" d="m11.73,11.71c-.21.35-.43.7-.64,1.04.21-.35.43-.7.64-1.04Z"/>
  <path class="cls-3" d="m390.53,25.37l.85-.39-.85.39Z"/>
  <path class="cls-2" d="m63.15,34.83c.28-.14.56-.29.84-.43-.28.14-.56.29-.84.43Z"/>
  <path class="cls-2" d="m33.43,34.46c.28,0,.56,0,.85,0-.28.56-.56.56-.85,0Z"/>
  <path class="cls-15" d="m272.27,29.17c-.06.28-.12.56-.18.84.06-.28.12-.56.18-.84Z"/>
  <path class="cls-2" d="m40.56,24.53c.22-.28.43-.57.65-.85-.22.28-.43.57-.65.85Z"/>
  <path class="cls-3" d="m143.7,28.12c.27-.22.55-.44.82-.66-.27.22-.55.44-.82.66Z"/>
  <path class="cls-2" d="m463.02,23.68c.29-.21.58-.42.87-.62-.29.21-.58.42-.87.62Z"/>
  <path class="cls-2" d="m452.28,30.43c.22-.28.43-.56.65-.83-.22.28-.43.56-.65.83Z"/>
  <path class="cls-2" d="m26.68,34c.28-.22.56-.44.84-.66-.28.22-.56.44-.84.66Z"/>
  <path class="cls-3" d="m430.76,31.68c.22-.27.44-.54.67-.81-.22.27-.44.54-.67.81Z"/>
  <path class="cls-2" d="m462.19,24.33c.28-.22.56-.44.83-.66-.28.22-.56.44-.83.66Z"/>
  <path class="cls-2" d="m458.66,26.03c.34-.14.68-.28,1.01-.42-.34.14-.68.28-1.01.42Z"/>
  <path class="cls-3" d="m135.45,35.89l.84-.43-.84.43Z"/>
  <path class="cls-2" d="m465.39,21.6c.19-.25.38-.5.57-.75.09.05.18.1.27.16-.09.19-.18.39-.27.58-.19,0-.39,0-.58,0Z"/>
  <path class="cls-2" d="m31.94,28.53c.21-.28.43-.56.64-.85-.21.28-.43.56-.64.85Z"/>
  <path class="cls-9" d="m410.58,23.7c0-.28,0-.56.01-.84.55.29.55.57-.01.84Z"/>
  <path class="cls-2" d="m462.83,34.65c.28,0,.56-.01.84-.02-.12.14-.28.41-.35.39-.18-.05-.33-.24-.49-.37Z"/>
  <path class="cls-3" d="m385.43,30.63c.22-.28.44-.56.67-.84-.22.28-.44.56-.67.84Z"/>
  <path class="cls-9" d="m272.69,34.22c.28-.07.56-.15.84-.22-.14.6-.46.51-.84.22Z"/>
  <path class="cls-15" d="m259.02,32.33c.13.36.25.72.38,1.09-.13-.36-.25-.72-.38-1.09Z"/>
  <path class="cls-2" d="m8.71,18.44c-.12.36-.24.71-.36,1.07.12-.36.24-.71.36-1.07Z"/>
  <path class="cls-2" d="m25.83,34.64c.28-.21.56-.42.85-.64-.28.21-.56.42-.85.64Z"/>
  <path class="cls-15" d="m258.98,24.33c-.11.28-.22.56-.33.84.11-.28.22-.56.33-.84Z"/>
  <path class="cls-2" d="m411.4,9.64c.28,0,.56,0,.85,0-.28.55-.56.55-.85,0Z"/>
  <path class="cls-13" d="m29.21,8.54c-.11.28-.21.57-.32.85.11-.28.21-.57.32-.85Z"/>
  <path class="cls-15" d="m276.49,21.19l-.63.83.63-.83Z"/>
  <path class="cls-14" d="m341.2,34.88c-.28.05-.57.11-.85.16,0-.06.01-.12.03-.18.27,0,.55.02.82.02Z"/>
  <path class="cls-15" d="m248.24,21.38c-.2.28-.41.57-.61.85.2-.28.41-.57.61-.85Z"/>
  <path class="cls-3" d="m383.98,31.9c.28-.22.56-.44.84-.66-.28.22-.56.44-.84.66Z"/>
  <path class="cls-3" d="m476.36,28.96c.05-.28.11-.57.16-.85-.05.28-.11.57-.16.85Z"/>
  <path class="cls-3" d="m391.57,24.92c.29-.11.57-.23.86-.34-.29.11-.57.23-.86.34Z"/>
  <path class="cls-3" d="m413.3,35.28c.28-.13.56-.26.84-.38-.28.13-.56.26-.84.38Z"/>
  <path class="cls-2" d="m466.26,28.54c.11-.29.23-.57.34-.86-.11.29-.23.57-.34.86Z"/>
  <path class="cls-2" d="m39.51,25.37c.29-.22.57-.44.86-.65-.29.22-.57.44-.86.65Z"/>
  <path class="cls-2" d="m118.59,14.44c-.28-.02-.56-.03-.84-.05.32-.55.6-.54.84.05Z"/>
  <path class="cls-13" d="m427,13.63c-.21.12-.41.24-.62.35,0-.13,0-.26,0-.39.14-.01.27-.02.41-.03.07.02.14.05.21.07Z"/>
  <path class="cls-1" d="m455.7,23.28c.05-.28.11-.57.16-.85-.05.28-.11.57-.16.85Z"/>
  <path class="cls-3" d="m476.99,25.59c.05-.28.11-.56.16-.85-.05.28-.11.56-.16.85Z"/>
  <path class="cls-2" d="m254.55,34.43c.28-.22.56-.43.84-.65-.28.22-.56.43-.84.65Z"/>
  <path class="cls-2" d="m261.54,26.01c.06-.28.12-.56.17-.85-.06.28-.12.56-.17.85Z"/>
  <path class="cls-1" d="m467.05,16.75c-.21.28-.42.55-.64.83.21-.28.42-.55.64-.83Z"/>
  <path class="cls-14" d="m181.22,20.97c-.07-.29-.14-.59-.21-.88.13.28.26.56.4.84-.06.02-.12.03-.18.04Z"/>
  <path class="cls-3" d="m432.46,29.37c.12-.22.25-.44.37-.66.07,0,.13,0,.2.01.01.22.03.44.04.66-.21,0-.41,0-.62-.01Z"/>
  <path class="cls-1" d="m468.56,19.07c.07-.28.15-.56.22-.84-.07.28-.15.56-.22.84Z"/>
  <path class="cls-2" d="m41.2,31.26c.24-.14.48-.28.72-.42.04.14.07.29.11.43-.28,0-.55,0-.83-.01Z"/>
  <path class="cls-15" d="m258.57,25.38c-.12.28-.24.56-.37.84.12-.28.24-.56.37-.84Z"/>
  <path class="cls-3" d="m423.16,16.12c-.12.28-.25.57-.37.85.12-.28.25-.57.37-.85Z"/>
  <path class="cls-14" d="m177.6,27.66c-.13.29-.25.59-.38.88.13-.29.25-.59.38-.88Z"/>
  <path class="cls-2" d="m4.77,34.62c.21.02.42.04.63.06-.1.12-.2.23-.29.35-.11-.14-.22-.27-.33-.41Z"/>
  <path class="cls-14" d="m341.89,23.7c.06.21.12.41.18.62-.06-.21-.12-.41-.18-.62Z"/>
  <path class="cls-2" d="m52.4,23.95c.21-.09.42-.18.62-.27-.13.17-.26.34-.39.52-.08-.08-.16-.16-.23-.24Z"/>
  <path class="cls-1" d="m477.21,24.12c0-.21,0-.42,0-.63.13.21.25.42.38.63-.13,0-.26,0-.38,0Z"/>
  <path class="cls-3" d="m435.46,26.01c.06-.21.11-.42.17-.64-.06.21-.11.42-.17.64Z"/>
  <path class="cls-3" d="m423.59,15.07c-.13.28-.25.57-.38.85.13-.28.25-.57.38-.85Z"/>
  <path class="cls-14" d="m358.68,29.76c-.12.29-.25.59-.37.88.12-.29.25-.59.37-.88Z"/>
  <path class="cls-15" d="m274.4,30.86c.07-.21.14-.42.21-.63-.07.21-.14.42-.21.63Z"/>
  <path class="cls-2" d="m21,34.25c-.22.05-.43.1-.65.15.22-.05.43-.1.65-.15Z"/>
  <path class="cls-13" d="m27.31,13.43c-.08-.15-.16-.31-.24-.46.02-.07.04-.13.06-.2.06,0,.11-.01.17-.02.16.08.32.16.48.23-.15.15-.31.3-.46.45Z"/>
  <path class="cls-3" d="m372.8,34.42c.21-.22.43-.43.64-.65-.21.22-.43.43-.64.65Z"/>
  <path class="cls-14" d="m343.73,34.38c.04-.17.09-.34.13-.51.05,0,.11,0,.16,0,.04.2.08.39.12.59-.14-.03-.27-.05-.41-.08Z"/>
  <path class="cls-14" d="m341.45,21.8c.08.28.15.56.23.83-.08-.28-.15-.56-.23-.83Z"/>
  <path class="cls-2" d="m29.22,31.7c.16-.2.33-.39.57-.68.04.3.06.49.08.67-.22,0-.44,0-.65.01Z"/>
  <path class="cls-2" d="m49.04,33.19c-.21.05-.43.11-.64.16.21-.05.43-.11.64-.16Z"/>
  <path class="cls-15" d="m260.24,21.36c-.12.29-.24.58-.35.87.12-.29.24-.58.35-.87Z"/>
  <path class="cls-2" d="m19.93,36.73c.21-.06.43-.11.64-.17-.21.06-.43.11-.64.17Z"/>
  <path class="cls-15" d="m247.89,26.89l-.25.81.25-.81Z"/>
  <path class="cls-2" d="m359.59,31.91c.12-.3.23-.6.35-.9-.12.3-.23.6-.35.9Z"/>
  <path class="cls-2" d="m355.15,49.79c.07-.28.15-.56.22-.84-.07.28-.15.56-.22.84Z"/>
  <path class="cls-2" d="m346.54,27.49c.11-.29.22-.59.33-.88-.11.29-.22.59-.33.88Z"/>
  <path class="cls-3" d="m435.25,27.07c.06-.21.11-.42.17-.64-.06.21-.11.42-.17.64Z"/>
  <path class="cls-2" d="m249.55,26.86c.05-.21.1-.43.15-.64-.05.21-.1.43-.15.64Z"/>
  <path class="cls-15" d="m260.66,20.3c-.12.29-.24.58-.35.87.12-.29.24-.58.35-.87Z"/>
  <path class="cls-3" d="m138.61,32.74c.14-.28.28-.56.43-.85-.14.28-.28.56-.43.85Z"/>
  <path class="cls-15" d="m274.4,20.76c0-.21-.01-.43-.02-.64,0,.21.01.43.02.64Z"/>
  <path class="cls-3" d="m134.25,32.33c-.02-.21-.05-.41-.07-.62.14.11.27.21.41.32-.11.1-.22.2-.34.3Z"/>
  <path class="cls-2" d="m69.89,27.93c-.21-.02-.42-.05-.63-.07.1-.11.2-.23.3-.34.11.14.22.28.32.41Z"/>
  <path class="cls-14" d="m170.28,50.63c.2.08.4.16.61.24,0,.06-.01.12-.01.18l-.6-.42Z"/>
  <path class="cls-2" d="m250.56,33.56c-.22-.13-.43-.25-.65-.38.22.13.43.25.65.38Z"/>
  <path class="cls-2" d="m356.57,30.85c.14-.21.29-.42.43-.63-.14.21-.29.42-.43.63Z"/>
  <path class="cls-2" d="m21.62,1.81c-.21.14-.42.28-.63.42.21-.14.42-.28.63-.42Z"/>
  <path class="cls-3" d="m336.33,27.06c.15-.21.3-.41.45-.62-.15.21-.3.41-.45.62Z"/>
  <path class="cls-3" d="m381.88,33.59c.21-.14.43-.28.64-.42-.21.14-.43.28-.64.42Z"/>
  <path class="cls-2" d="m45,27.26c.14-.21.29-.43.43-.64-.14.21-.29.43-.43.64Z"/>
  <path class="cls-3" d="m95.6,27.26c.14-.21.29-.43.43-.64-.14.21-.29.43-.43.64Z"/>
  <path class="cls-2" d="m65.23,33.58c.22-.14.44-.28.66-.43-.22.14-.44.28-.66.43Z"/>
  <path class="cls-2" d="m20.99,2.23c-.21.14-.42.28-.63.42.21-.14.42-.28.63-.42Z"/>
  <path class="cls-2" d="m438.6,33.59l.61-.46-.61.46Z"/>
  <path class="cls-3" d="m375.35,32.96c.14.21.28.42.42.63-.14-.21-.28-.42-.42-.63Z"/>
  <path class="cls-3" d="m373.62,33.57c.16-.2.31-.4.47-.61-.16.2-.31.4-.47.61Z"/>
  <path class="cls-15" d="m268.47,26.83c-.14.22-.28.43-.42.65.14-.22.28-.43.42-.65Z"/>
  <path class="cls-3" d="m329.19,33.8c.2-.15.41-.3.61-.46-.2.15-.41.3-.61.46Z"/>
  <path class="cls-3" d="m428.45,33.79c.22-.14.43-.29.65-.43-.22.14-.43.29-.65.43Z"/>
  <path class="cls-2" d="m137.96,19.06l-.4.64.4-.64Z"/>
  <path class="cls-3" d="m96.02,26.63c.15-.2.3-.4.44-.61-.15.2-.3.4-.44.61Z"/>
  <path class="cls-2" d="m45.42,26.63c.15-.2.3-.4.45-.61-.15.2-.3.4-.45.61Z"/>
  <path class="cls-3" d="m95.18,27.9c.14-.21.28-.43.42-.64-.14.21-.28.43-.42.64Z"/>
  <path class="cls-3" d="m382.73,32.96c.21-.14.42-.29.63-.43-.21.14-.42.29-.63.43Z"/>
  <path class="cls-2" d="m134.16,26.42c.15-.21.3-.42.45-.63-.15.21-.3.42-.45.63Z"/>
  <path class="cls-15" d="m259.46,33.59c.12.22.24.44.36.65-.12-.22-.24-.44-.36-.65Z"/>
  <path class="cls-2" d="m38.26,26.22c.21-.15.42-.29.64-.44-.21.15-.42.29-.64.44Z"/>
  <path class="cls-2" d="m448.47,33.98c.22-.14.44-.27.66-.41-.22.14-.44.27-.66.41Z"/>
  <path class="cls-15" d="m249.5,19.56c-.14.19-.27.38-.41.57.14-.19.27-.38.41-.57Z"/>
  <path class="cls-3" d="m400.22,32.96c.14-.22.28-.43.41-.65-.14.22-.28.43-.41.65Z"/>
  <path class="cls-2" d="m64.41,34.22c.21-.14.43-.29.64-.43-.21.14-.43.29-.64.43Z"/>
  <path class="cls-2" d="m323.5,34.19c-.22-.13-.43-.25-.65-.38.22.13.43.25.65.38Z"/>
  <path class="cls-2" d="m256.21,32.94c.15-.21.3-.42.45-.64-.15.21-.3.42-.45.64Z"/>
  <path class="cls-3" d="m367.14,18.23c-.21.12-.43.24-.64.36.21-.12.43-.24.64-.36Z"/>
  <path class="cls-2" d="m304.74,28.12c.14-.21.28-.42.42-.62-.14.21-.28.42-.42.62Z"/>
  <path class="cls-2" d="m120.07,32.97l-.45-.63c.15.21.3.42.45.63Z"/>
  <path class="cls-2" d="m119.25,28.33c.07-.26.15-.52.22-.78-.07.26-.15.52-.22.78Z"/>
  <path class="cls-3" d="m417.07,32.53c.14-.21.29-.43.43-.64-.14.21-.29.43-.43.64Z"/>
  <path class="cls-3" d="m414.96,34.41c.22-.14.44-.27.65-.41-.22.14-.44.27-.65.41Z"/>
  <path class="cls-2" d="m447.86,34.43c.21-.15.41-.3.62-.45-.21.15-.41.3-.62.45Z"/>
  <path class="cls-3" d="m96.68,25.8l.42-.62-.42.62Z"/>
  <path class="cls-3" d="m398.32,34.64c.21-.14.43-.28.64-.43-.21.14-.43.28-.64.43Z"/>
  <path class="cls-3" d="m94.77,28.54c.14-.22.28-.43.42-.65-.14.22-.28.43-.42.65Z"/>
  <path class="cls-2" d="m293.76,32.55c-.13-.22-.25-.43-.38-.65.13.22.25.43.38.65Z"/>
  <path class="cls-15" d="m267.84,27.89c-.14.21-.29.43-.43.64.14-.21.29-.43.43-.64Z"/>
  <path class="cls-14" d="m370.94,19.66c.06.03.13.04.19.05.06.21.12.41.18.62-.12-.22-.25-.45-.37-.67Z"/>
  <path class="cls-2" d="m355.51,32.32c.15-.2.3-.41.45-.61-.15.2-.3.41-.45.61Z"/>
  <path class="cls-2" d="m18.25,4.34c-.21.14-.42.28-.63.42.21-.14.42-.28.63-.42Z"/>
  <path class="cls-3" d="m337.62,25.38c.14-.21.28-.43.42-.64-.14.21-.28.43-.42.64Z"/>
  <path class="cls-2" d="m256.65,32.31c.15-.21.29-.42.44-.63-.15.21-.29.42-.44.63Z"/>
  <path class="cls-2" d="m14.46,7.92c-.14.21-.28.43-.42.64.14-.21.28-.43.42-.64Z"/>
  <path class="cls-2" d="m461.14,24.96c.21-.15.42-.3.63-.45-.21.15-.42.3-.63.45Z"/>
  <path class="cls-15" d="m249.09,20.13c-.14.21-.28.42-.42.62.14-.21.28-.42.42-.62Z"/>
  <path class="cls-1" d="m472.53,16.75c-.21.14-.42.29-.62.43.21-.14.42-.29.62-.43Z"/>
  <path class="cls-2" d="m453.33,28.95c.14-.21.28-.43.43-.64-.14.21-.28.43-.43.64Z"/>
  <path class="cls-2" d="m347.52,25.17c.14-.21.28-.43.43-.64-.14.21-.28.43-.43.64Z"/>
  <path class="cls-2" d="m39.94,32.11c.22-.15.43-.29.65-.44-.22.15-.43.29-.65.44Z"/>
  <path class="cls-3" d="m103.81,35.04l.45-.62-.45.62Z"/>
  <path class="cls-6" d="m139.28,20.96c.07-.21.14-.42.21-.63l-.21.63Z"/>
  <path class="cls-15" d="m257.09,28.53c-.14.21-.28.43-.42.64.14-.21.28-.43.42-.64Z"/>
  <path class="cls-2" d="m267.4,32.11c.14-.21.29-.43.43-.64-.14.21-.29.43-.43.64Z"/>
  <path class="cls-15" d="m248.66,20.76c-.14.21-.28.42-.42.62.14-.21.28-.42.42-.62Z"/>
  <path class="cls-3" d="m97.49,24.74c.15-.21.29-.42.44-.64-.15.21-.29.42-.44.64Z"/>
  <path class="cls-2" d="m12.95,9.8c-.13.22-.26.43-.39.65.13-.22.26-.43.39-.65Z"/>
  <path class="cls-2" d="m351.29,35.89c.22-.14.43-.29.65-.43-.22.14-.43.29-.65.43Z"/>
  <path class="cls-2" d="m264.24,34.84c.21-.14.43-.29.64-.43-.21.14-.43.29-.64.43Z"/>
  <path class="cls-3" d="m414.34,34.85c.21-.15.42-.29.63-.44-.21.15-.42.29-.63.44Z"/>
  <path class="cls-3" d="m370.97,24.33c-.01-.13-.02-.27-.03-.4.13-.09.27-.17.4-.26-.12.22-.25.44-.37.66Z"/>
  <path class="cls-3" d="m100.66,21.59c.21-.15.42-.3.64-.45-.21.15-.42.3-.64.45Z"/>
  <path class="cls-3" d="m94.14,29.59c.14-.21.28-.43.42-.64-.14.21-.28.43-.42.64Z"/>
  <path class="cls-2" d="m352.56,35.05l.66-.43-.66.43Z"/>
  <path class="cls-3" d="m338.44,24.11l.44-.64c-.15.21-.29.43-.44.64Z"/>
  <path class="cls-2" d="m452.93,29.59c.13-.22.27-.44.4-.65-.13.22-.27.44-.4.65Z"/>
  <path class="cls-2" d="m257.08,31.69c.14-.22.28-.43.42-.65-.14.22-.28.43-.42.65Z"/>
  <path class="cls-3" d="m377.89,23.28c-.14.21-.29.42-.43.63.14-.21.29-.42.43-.63Z"/>
  <path class="cls-3" d="m92.24,22.01c.21-.12.43-.25.64-.37-.21.12-.43.25-.64.37Z"/>
  <path class="cls-2" d="m57.43,29.78c.22-.14.44-.27.66-.41-.22.14-.44.27-.66.41Z"/>
  <path class="cls-14" d="m371.33,23.67c-.13.09-.27.17-.4.26.13-.22.25-.43.38-.65,0,.13.02.26.02.39Z"/>
  <path class="cls-3" d="m99.84,22.23c.21-.15.41-.3.62-.45-.21.15-.41.3-.62.45Z"/>
  <path class="cls-3" d="m371.75,35.27c.21-.15.42-.3.64-.45-.21.15-.42.3-.64.45Z"/>
  <path class="cls-3" d="m432.04,30c.14-.21.28-.43.42-.64-.14.21-.28.43-.42.64Z"/>
  <path class="cls-3" d="m91.18,22.64c.21-.15.42-.3.63-.45-.21.15-.42.3-.63.45Z"/>
  <path class="cls-2" d="m268.68,30.22c.14-.22.27-.43.41-.65-.14.22-.27.43-.41.65Z"/>
  <path class="cls-2" d="m357,30.22c.14-.21.28-.43.42-.64-.14.21-.28.43-.42.64Z"/>
  <path class="cls-3" d="m394.5,23.46c.22-.14.43-.28.65-.42-.22.14-.43.28-.65.42Z"/>
  <path class="cls-2" d="m56.8,30.21c.21-.15.43-.29.64-.44-.21.15-.43.29-.64.44Z"/>
  <path class="cls-3" d="m395.77,22.63c.22-.13.44-.26.66-.4-.22.13-.44.26-.66.4Z"/>
  <path class="cls-2" d="m41.21,23.68c.15-.21.29-.42.44-.63-.15.21-.29.42-.44.63Z"/>
  <path class="cls-3" d="m103.18,35.47c.21-.15.43-.29.64-.44-.21.15-.43.29-.64.44Z"/>
  <path class="cls-2" d="m55.55,31.06c.21-.15.42-.3.63-.45-.21.15-.42.3-.63.45Z"/>
  <path class="cls-3" d="m395.14,23.05c.21-.14.43-.29.64-.43-.21.14-.43.29-.64.43Z"/>
  <path class="cls-3" d="m93.3,31.06c.14-.21.28-.42.42-.63-.14.21-.28.42-.42.63Z"/>
  <path class="cls-3" d="m338.86,23.48c.15-.2.3-.41.44-.61-.15.2-.3.41-.44.61Z"/>
  <path class="cls-3" d="m431.62,30.63c.14-.21.29-.42.43-.64-.14.21-.29.42-.43.64Z"/>
  <path class="cls-2" d="m68.39,30.84c.15-.2.31-.41.46-.61-.15.2-.31.41-.46.61Z"/>
  <path class="cls-9" d="m273.73,33.79c.09-.21.18-.41.27-.62-.09.21-.18.41-.27.62Z"/>
  <path class="cls-3" d="m90.12,23.27c.21-.15.43-.29.64-.44-.21.15-.43.29-.64.44Z"/>
  <path class="cls-2" d="m445.96,35.25c.14-.05.29-.1.43-.16-.14.05-.29.1-.43.16Z"/>
  <path class="cls-14" d="m341.66,22.86c.06.14.13.28.19.42-.06-.14-.13-.28-.19-.42Z"/>
  <path class="cls-3" d="m477.42,22.65c.13,0,.26,0,.38,0-.13.14-.26.28-.39.42,0-.14,0-.28,0-.42Z"/>
  <path class="cls-2" d="m356.43,44.32c.05-.14.1-.29.14-.43-.05.14-.1.29-.14.43Z"/>
  <path class="cls-2" d="m8.16,30.63c.06.1.11.2.17.3-.14.05-.27.1-.41.15.08-.15.16-.3.23-.45Z"/>
  <path class="cls-3" d="m140.09,30.2c.14-.05.29-.1.43-.15-.14.05-.29.1-.43.15Z"/>
  <path class="cls-2" d="m251.82,35.47c.14-.06.28-.11.43-.17-.14.06-.28.11-.43.17Z"/>
  <path class="cls-2" d="m62.3,35.25c.14-.06.29-.11.43-.17-.14.06-.29.11-.43.17Z"/>
  <path class="cls-14" d="m369.45,22.86c-.05.14-.1.28-.16.42.05-.14.1-.28.16-.42Z"/>
  <path class="cls-2" d="m118.81,14.86c-.07-.14-.14-.28-.22-.42.07.14.14.28.22.42Z"/>
  <path class="cls-3" d="m423.8,14.44l-.16.43.16-.43Z"/>
  <path class="cls-3" d="m392.45,33.16c.04.14.09.29.13.43-.04-.14-.09-.29-.13-.43Z"/>
  <path class="cls-2" d="m190.51,22.44c.05-.14.11-.28.16-.43-.05.14-.11.28-.16.43Z"/>
  <path class="cls-3" d="m375.11,29.38c-.05.14-.11.28-.16.43.05-.14.11-.28.16-.43Z"/>
  <path class="cls-3" d="m93.51,19.24c-.14,0-.28,0-.42,0,.07-.1.14-.2.21-.3.07.1.14.2.21.3Z"/>
  <path class="cls-2" d="m123.44,35.68c.14-.05.29-.1.43-.15-.14.05-.29.1-.43.15Z"/>
  <path class="cls-2" d="m53.7,22.02c0-.14,0-.28,0-.42.1.07.2.14.3.21-.1.07-.2.14-.3.21Z"/>
  <path class="cls-3" d="m152.31,35.66c.14-.04.29-.09.43-.13-.14.04-.29.09-.43.13Z"/>
  <path class="cls-15" d="m272.04,31.06c-.05.14-.1.28-.16.43.05-.14.1-.28.16-.43Z"/>
  <path class="cls-2" d="m446.85,34.87c.19-.08.39-.17.58-.25-.19.08-.39.17-.58.25Z"/>
  <path class="cls-14" d="m369.24,23.7c-.05.14-.11.28-.16.42.05-.14.11-.28.16-.42Z"/>
  <path class="cls-2" d="m31.56,29.38c.05-.14.1-.29.15-.43-.05.14-.1.29-.15.43Z"/>
  <path class="cls-2" d="m49.45,34.85c.14-.05.28-.1.43-.16-.14.05-.28.1-.43.16Z"/>
  <path class="cls-3" d="m134.18,31.71c-.14-.02-.27-.03-.41-.05.06-.1.12-.21.18-.31.08.12.15.24.23.35Z"/>
  <path class="cls-2" d="m470.39,21.16c.15-.15.29-.29.44-.44-.15.15-.29.29-.44.44Z"/>
  <path class="cls-9" d="m274.2,31.7c.06-.14.11-.28.17-.42-.06.14-.11.28-.17.42Z"/>
  <path class="cls-2" d="m456.93,26.65c.15-.05.3-.1.45-.15-.15.05-.3.1-.45.15Z"/>
  <path class="cls-3" d="m69.05,11.53c.14,0,.28,0,.42,0-.07.1-.14.2-.21.3-.07-.1-.14-.2-.21-.3Z"/>
  <path class="cls-3" d="m368.65,31.7c.05-.14.1-.29.15-.43-.05.14-.1.29-.15.43Z"/>
  <path class="cls-13" d="m480.75,31.47c.01-.05.02-.11.02-.16.12,0,.25-.02.37-.02,0,.14,0,.27,0,.41-.13-.07-.26-.15-.39-.22Z"/>
  <path class="cls-3" d="m375.28,28.54c-.04.14-.08.29-.12.43.04-.14.08-.29.12-.43Z"/>
  <path class="cls-2" d="m412.45,9.59c.14-.07.28-.14.42-.21-.14.07-.28.14-.42.21Z"/>
  <path class="cls-3" d="m101.72,20.94c.14-.05.29-.1.43-.15-.14.05-.29.1-.43.15Z"/>
  <path class="cls-1" d="m324.81,26.88c.19-.07.39-.14.58-.2-.19.07-.39.14-.58.2Z"/>
  <path class="cls-3" d="m477.21,24.12c.13,0,.26,0,.38,0-.13.14-.26.28-.39.42,0-.14,0-.28,0-.42Z"/>
  <path class="cls-14" d="m357.06,35.73c-.07.2-.13.4-.2.6.07-.2.13-.4.2-.6Z"/>
  <path class="cls-2" d="m349.84,36.53c.14-.05.28-.1.43-.15-.14.05-.28.1-.43.15Z"/>
  <path class="cls-3" d="m70.11,8.49c-.14-.04-.29-.08-.43-.13.14.04.29.08.43.13Z"/>
  <path class="cls-14" d="m356.81,36.75c-.05.14-.11.28-.16.42.05-.14.11-.28.16-.42Z"/>
  <path class="cls-14" d="m356.59,37.59l-.18.42.18-.42Z"/>
  <path class="cls-2" d="m357.9,38.43l.14-.43c-.05.14-.1.29-.14.43Z"/>
  <path class="cls-2" d="m346.29,28.33c.05-.15.09-.29.14-.44-.05.15-.09.29-.14.44Z"/>
  <path class="cls-3" d="m362.73,20.33c0-.14,0-.28,0-.42.1.07.2.14.3.21-.1.07-.21.14-.31.21Z"/>
  <path class="cls-14" d="m342.11,24.75c.04.14.09.29.13.43-.04-.14-.09-.29-.13-.43Z"/>
  <path class="cls-2" d="m357.69,39.27c.05-.14.1-.29.14-.43-.05.14-.1.29-.14.43Z"/>
  <path class="cls-13" d="m29.67,3.71c.06.14.13.28.19.42-.06-.14-.13-.28-.19-.42Z"/>
  <path class="cls-8" d="m189.42,18.24c-.14-.07-.28-.14-.42-.22.14.07.28.14.42.22Z"/>
  <path class="cls-2" d="m35.37,34.24c.2-.06.39-.12.59-.19-.2.06-.39.12-.59.19Z"/>
  <path class="cls-2" d="m357.48,40.11c.05-.14.1-.29.15-.43-.05.14-.1.29-.15.43Z"/>
  <path class="cls-6" d="m139.5,20.12c.06-.14.12-.28.19-.42-.06.14-.12.28-.19.42Z"/>
  <path class="cls-2" d="m357.27,40.96c.05-.14.1-.29.15-.43-.05.14-.1.29-.15.43Z"/>
  <path class="cls-2" d="m357.06,41.8c.05-.14.1-.28.15-.43-.05.14-.1.28-.15.43Z"/>
  <path class="cls-2" d="m356.85,42.64c.05-.14.1-.29.15-.43-.05.14-.1.29-.15.43Z"/>
  <path class="cls-14" d="m355.32,42.43c-.05.14-.1.28-.14.42.05-.14.1-.28.14-.42Z"/>
  <path class="cls-2" d="m356.64,43.48c.05-.14.1-.29.15-.43-.05.14-.1.29-.15.43Z"/>
  <path class="cls-14" d="m355.13,43.27c-.06.14-.13.28-.19.41.06-.14.13-.28.19-.41Z"/>
  <path class="cls-3" d="m422.31,18.23c-.07.19-.13.39-.2.58.07-.19.13-.39.2-.58Z"/>
  <path class="cls-2" d="m123.45,34.04l-.43.15.43-.15Z"/>
  <path class="cls-14" d="m342.65,32.31l-.14.43c.05-.14.09-.29.14-.43Z"/>
  <path class="cls-2" d="m36.17,27.06c.14-.06.28-.11.43-.17-.14.06-.28.11-.43.17Z"/>
  <path class="cls-2" d="m24.52.51c-.19.07-.39.14-.58.21.19-.07.39-.14.58-.21Z"/>
  <path class="cls-1" d="m323.06,27.46c.14-.05.29-.1.43-.14-.14.05-.29.1-.43.14Z"/>
  <path class="cls-9" d="m273.99,32.96c.06-.14.11-.28.17-.42-.06.14-.11.28-.17.42Z"/>
  <path class="cls-14" d="m357.64,33.59c-.06.14-.12.28-.18.42.06-.14.12-.28.18-.42Z"/>
  <path class="cls-14" d="m353.63,49.58c-.06.14-.11.28-.17.42.06-.14.11-.28.17-.42Z"/>
  <path class="cls-2" d="m356.22,45.16c.05-.14.1-.29.14-.43-.05.14-.1.29-.14.43Z"/>
  <path class="cls-2" d="m356.01,46.01c.05-.14.1-.29.14-.43-.05.14-.1.29-.14.43Z"/>
  <path class="cls-2" d="m35.33,27.29c.14-.05.28-.09.42-.14-.14.05-.28.09-.42.14Z"/>
  <path class="cls-2" d="m355.78,46.85c.06-.14.11-.28.17-.42-.06.14-.11.28-.17.42Z"/>
  <path class="cls-14" d="m171.29,46.63c-.06.14-.11.28-.17.42.06-.14.11-.28.17-.42Z"/>
  <path class="cls-8" d="m387.78,18.87c-.14-.07-.28-.14-.42-.21.14.07.28.14.42.21Z"/>
  <path class="cls-3" d="m95.61,19.52c-.14-.08-.27-.16-.41-.24.14.08.27.16.41.24Z"/>
  <path class="cls-3" d="m92.88,19.29c-.14.06-.28.11-.43.17.14-.06.28-.11.43-.17Z"/>
  <path class="cls-14" d="m354.25,46.84c-.04.14-.09.29-.13.43.04-.14.09-.29.13-.43Z"/>
  <path class="cls-8" d="m388.21,19.27c-.15-.13-.29-.27-.44-.4.15.13.29.27.44.4Z"/>
  <path class="cls-2" d="m355.36,48.74c.05-.14.11-.29.16-.43-.05.14-.11.29-.16.43Z"/>
  <path class="cls-15" d="m252.45,33.4c-.14.06-.28.12-.42.18.14-.06.28-.12.42-.18Z"/>
  <path class="cls-3" d="m368.22,33.38c.04-.15.09-.29.13-.44-.04.15-.09.29-.13.44Z"/>
  <path class="cls-2" d="m25.84.3c-.14,0-.28,0-.42,0,.07-.1.14-.2.21-.3.07.1.14.2.21.3Z"/>
  <path class="cls-14" d="m320.17,28.58l-.23.59.23-.59Z"/>
  <path class="cls-2" d="m7.46,27.06c0,.07,0,.14,0,.21-.08-.03-.17-.07-.25-.1.08-.04.17-.07.25-.11Z"/>
  <path class="cls-3" d="m340.79,20.77c.13.07.26.13.39.2-.14,0-.27,0-.41,0,.02-.06.03-.13.02-.19Z"/>
  <path class="cls-2" d="m61.25,35.52h.21c-.04.08-.07.17-.11.25-.04-.08-.07-.17-.11-.25Z"/>
  <path class="cls-3" d="m402.12,30.9c.07,0,.14,0,.21,0-.04.08-.07.17-.11.25-.04-.08-.07-.17-.11-.25Z"/>
  <path class="cls-2" d="m47.34,35.31c.07,0,.14,0,.21,0-.04.08-.07.17-.11.25l-.11-.25Z"/>
  <path class="cls-14" d="m345.25,26.43c-.04-.06-.04-.13-.03-.2.06-.02.12-.03.19-.03-.05.08-.11.15-.16.23Z"/>
  <path class="cls-3" d="m376.35,26.23c-.05.07-.1.15-.15.22.05-.07.1-.15.15-.22Z"/>
  <path class="cls-9" d="m340.19,33.38c.06-.07.12-.14.17-.21-.06.07-.12.14-.17.21Z"/>
  <path class="cls-14" d="m342.46,33.14c-.05.08-.11.16-.16.23.05-.08.11-.16.16-.23Z"/>
  <path class="cls-2" d="m359.18,33.38c.05-.08.1-.16.14-.24-.05.08-.1.16-.14.24Z"/>
  <path class="cls-2" d="m261.73,33.36c-.08-.06-.16-.11-.25-.17l.25.17Z"/>
  <path class="cls-2" d="m52.38,33.37c.08-.06.15-.12.23-.17-.08.06-.15.12-.23.17Z"/>
  <path class="cls-3" d="m361.18,18.86c-.05.07-.11.15-.16.22.05-.07.11-.15.16-.22Z"/>
  <path class="cls-2" d="m138.35,18.65c-.05.06-.11.13-.16.19.05-.06.11-.13.16-.19Z"/>
  <path class="cls-3" d="m366.08,18.86c-.07.05-.14.09-.21.14.07-.05.14-.09.21-.14Z"/>
  <path class="cls-3" d="m394.53,33.18c-.06-.07-.12-.15-.17-.22.06.07.12.15.17.22Z"/>
  <path class="cls-14" d="m357.84,32.92c-.05.08-.1.16-.14.24.05-.08.1-.16.14-.24Z"/>
  <path class="cls-14" d="m326.86,33.41c-.07.06-.15.11-.22.17.07-.06.15-.11.22-.17Z"/>
  <path class="cls-15" d="m263.41,33c-.08.05-.15.11-.23.16.08-.05.15-.11.23-.16Z"/>
  <path class="cls-14" d="m175.7,32.9c-.05.09-.11.17-.16.26.05-.09.11-.17.16-.26Z"/>
  <path class="cls-3" d="m102.36,33.76c-.06-.06-.12-.11-.18-.17.06.06.12.11.18.17Z"/>
  <path class="cls-14" d="m320.16,32.75c.05.08.11.16.16.24-.05-.08-.11-.16-.16-.24Z"/>
  <path class="cls-3" d="m153.96,32.75c-.05.07-.11.14-.16.21.05-.07.11-.14.16-.21Z"/>
  <path class="cls-2" d="m8.14,32.96l.2-.16-.2.16Z"/>
  <path class="cls-15" d="m247.64,33.59c.06.08.11.15.17.23-.06-.08-.11-.15-.17-.23Z"/>
  <path class="cls-2" d="m369.03,19.31c.07.06.14.12.21.17-.07-.06-.14-.12-.21-.17Z"/>
  <path class="cls-14" d="m326.44,33.64c-.08.05-.15.1-.23.15.08-.05.15-.1.23-.15Z"/>
  <path class="cls-2" d="m359.38,32.74c.05-.09.1-.17.14-.26-.05.09-.1.17-.14.26Z"/>
  <path class="cls-1" d="m326,26.43c.08-.05.15-.1.23-.16-.08.05-.15.1-.23.16Z"/>
  <path class="cls-2" d="m51.32,34c.08-.05.16-.1.23-.15-.08.05-.16.1-.23.15Z"/>
  <path class="cls-3" d="m397.91,32.33c-.07.06-.14.12-.21.18.07-.06.14-.12.21-.18Z"/>
  <path class="cls-2" d="m300.1,32.54c.07-.06.14-.12.2-.18-.07.06-.14.12-.2.18Z"/>
  <path class="cls-15" d="m271.64,19.51c.06-.02.13-.04.19-.05-.05.08-.1.15-.15.23-.04-.06-.06-.12-.04-.18Z"/>
  <path class="cls-14" d="m326.02,33.84c-.08.05-.15.11-.23.16.08-.05.15-.11.23-.16Z"/>
  <path class="cls-14" d="m175.92,32.28c-.05.08-.11.17-.16.25.05-.08.11-.17.16-.25Z"/>
  <path class="cls-3" d="m154.15,32.17c-.04.13-.09.25-.13.38.04-.13.09-.25.13-.38Z"/>
  <path class="cls-3" d="m428.04,34.01c.07-.05.14-.1.22-.16-.07.05-.14.1-.22.16Z"/>
  <path class="cls-14" d="m365.02,19.52c-.07.06-.14.12-.21.18.07-.06.14-.12.21-.18Z"/>
  <path class="cls-2" d="m366.91,19.7l.21-.16-.21.16Z"/>
  <path class="cls-2" d="m138.78,18.02c-.05.07-.11.13-.16.2.05-.07.11-.13.16-.2Z"/>
  <path class="cls-3" d="m422.52,17.81c-.05.07-.1.14-.15.21.05-.07.1-.14.15-.21Z"/>
  <path class="cls-2" d="m272.42,17.81c-.05.07-.1.14-.15.21.05-.07.1-.14.15-.21Z"/>
  <path class="cls-2" d="m358.96,34.22c.05-.08.1-.17.14-.25-.05.08-.1.17-.14.25Z"/>
  <path class="cls-15" d="m260.88,19.69c-.05.07-.1.14-.16.21.05-.07.1-.14.16-.21Z"/>
  <path class="cls-2" d="m8.93,17.81c-.05.07-.1.15-.16.22.05-.07.1-.15.16-.22Z"/>
  <path class="cls-3" d="m376.41,34.05c.07.05.15.11.22.16-.07-.05-.15-.11-.22-.16Z"/>
  <path class="cls-14" d="m360.81,19.7c-.06.07-.11.14-.17.2.06-.07.11-.14.17-.2Z"/>
  <path class="cls-3" d="m422.74,17.18c-.05.07-.11.15-.16.22.05-.07.11-.15.16-.22Z"/>
  <path class="cls-14" d="m339.93,31.93c-.07.06-.15.12-.22.18.07-.06.15-.12.22-.18Z"/>
  <path class="cls-3" d="m135.29,34.24c-.09.05-.17.11-.26.16.09-.05.17-.11.26-.16Z"/>
  <path class="cls-2" d="m9.14,17.18c-.05.07-.1.15-.16.22.05-.07.1-.15.16-.22Z"/>
  <path class="cls-2" d="m366.49,19.91c.07-.05.14-.1.21-.16-.07.05-.14.1-.21.16Z"/>
  <path class="cls-9" d="m340.38,31.7l-.23.14.23-.14Z"/>
  <path class="cls-14" d="m176.13,31.66c-.05.08-.11.16-.16.24.05-.08.11-.16.16-.24Z"/>
  <path class="cls-15" d="m271.63,20.1c-.05.08-.11.15-.16.23.05-.08.11-.15.16-.23Z"/>
  <path class="cls-2" d="m365.86,20.33c.07-.06.14-.12.21-.17-.07.06-.14.12-.21.17Z"/>
  <path class="cls-3" d="m149.74,16.76c-.05.07-.1.14-.16.21.05-.07.1-.14.16-.21Z"/>
  <path class="cls-15" d="m271.41,20.72c-.05.08-.11.16-.16.24.05-.08.11-.16.16-.24Z"/>
  <path class="cls-14" d="m358.27,31.26c-.05.07-.09.15-.14.22.05-.07.09-.15.14-.22Z"/>
  <path class="cls-2" d="m447.43,34.63l.23-.15-.23.15Z"/>
  <path class="cls-8" d="m395.17,20.76c-.07.06-.15.12-.22.18.07-.06.15-.12.22-.18Z"/>
  <path class="cls-2" d="m64.84,31.27c-.07.06-.14.12-.21.18.07-.06.14-.12.21-.18Z"/>
  <path class="cls-2" d="m9.33,16.39c-.04.13-.09.26-.13.38.04-.13.09-.26.13-.38Z"/>
  <path class="cls-2" d="m54.93,31.48c.07-.06.14-.12.21-.17-.07.06-.14.12-.21.17Z"/>
  <path class="cls-14" d="m344.19,34.64c.06.07.12.14.17.21-.06-.07-.12-.14-.17-.21Z"/>
  <path class="cls-3" d="m93.07,21.59l.22-.15-.22.15Z"/>
  <path class="cls-3" d="m93.72,21.44c.05.05.11.1.16.16-.05-.05-.11-.1-.16-.16Z"/>
  <path class="cls-3" d="m149.95,16.34c-.05.07-.11.14-.16.21.05-.07.11-.14.16-.21Z"/>
  <path class="cls-3" d="m150.16,15.91c-.05.07-.11.14-.16.21.05-.07.11-.14.16-.21Z"/>
  <path class="cls-3" d="m150.37,15.49c-.05.07-.1.14-.16.21.05-.07.1-.14.16-.21Z"/>
  <path class="cls-2" d="m9.77,15.49l-.16.22.16-.22Z"/>
  <path class="cls-2" d="m124.89,35.05c.08-.05.16-.1.23-.16-.08.05-.16.1-.23.16Z"/>
  <path class="cls-15" d="m270.99,21.77c-.06.08-.11.16-.17.24.06-.08.11-.16.17-.24Z"/>
  <path class="cls-9" d="m340.38,34.86c-.01.06-.02.12-.03.18-.07-.06-.14-.12-.22-.19.08,0,.16,0,.25,0Z"/>
  <path class="cls-3" d="m150.6,15.07c-.06.07-.11.14-.17.21.06-.07.11-.14.17-.21Z"/>
  <path class="cls-2" d="m358.73,35.06c.05-.09.1-.18.16-.26-.05.09-.1.18-.16.26Z"/>
  <path class="cls-15" d="m259.82,22.41c-.05.08-.11.15-.16.23.05-.08.11-.15.16-.23Z"/>
  <path class="cls-15" d="m262.99,33.21c-.07.05-.15.11-.22.16.07-.05.15-.11.22-.16Z"/>
  <path class="cls-3" d="m368.87,30.85c.05-.08.1-.16.15-.24-.05.08-.1.16-.15.24Z"/>
  <path class="cls-15" d="m247.39,22.64c-.06.07-.12.14-.19.21.06-.07.12-.14.19-.21Z"/>
  <path class="cls-2" d="m124.48,35.26c.08-.05.15-.1.23-.16-.08.05-.15.1-.23.16Z"/>
  <path class="cls-15" d="m249.25,35.08c.08.06.17.11.25.17-.08-.06-.17-.11-.25-.17Z"/>
  <path class="cls-3" d="m424.01,13.81c-.06.08-.11.15-.17.23.06-.08.11-.15.17-.23Z"/>
  <path class="cls-3" d="m139.67,30.43c.07-.06.14-.12.22-.17-.07.06-.14.12-.22.17Z"/>
  <path class="cls-14" d="m176.76,29.96c-.05.09-.11.17-.16.26.05-.09.11-.17.16-.26Z"/>
  <path class="cls-2" d="m124.06,35.48c.07-.05.15-.11.22-.16-.07.05-.15.11-.22.16Z"/>
  <path class="cls-3" d="m152.94,35.48c.07-.05.15-.11.22-.16-.07.05-.15.11-.22.16Z"/>
  <path class="cls-3" d="m151.22,13.6c-.05.07-.11.15-.16.22.05-.07.11-.15.16-.22Z"/>
  <path class="cls-3" d="m151.44,13.18c-.06.07-.11.14-.17.22.06-.07.11-.14.17-.22Z"/>
  <path class="cls-2" d="m246.92,23.28c-.05.07-.11.13-.16.2.05-.07.11-.13.16-.2Z"/>
  <path class="cls-14" d="m176.97,29.34l-.16.24c.05-.08.11-.16.16-.24Z"/>
  <path class="cls-14" d="m367.54,29.14l-.15.24.15-.24Z"/>
  <path class="cls-3" d="m152.06,11.71l-.16.22.16-.22Z"/>
  <path class="cls-15" d="m259.4,23.46c-.05.08-.11.16-.16.24.05-.08.11-.16.16-.24Z"/>
  <path class="cls-2" d="m246.5,23.9c-.05.07-.11.14-.16.22.05-.07.11-.14.16-.22Z"/>
  <path class="cls-3" d="m139.9,28.75l-.09.16c-.06-.05-.12-.1-.18-.15.09,0,.18,0,.26,0Z"/>
  <path class="cls-3" d="m67.59,10.2c.05.08.11.16.16.24-.05-.08-.11-.16-.16-.24Z"/>
  <path class="cls-3" d="m152.91,9.81c-.05.07-.1.15-.16.22.05-.07.1-.15.16-.22Z"/>
  <path class="cls-14" d="m367.75,28.5c-.05.08-.1.16-.15.24.05-.08.1-.16.15-.24Z"/>
  <path class="cls-13" d="m28.79,9.6c-.05.07-.11.14-.16.21.05-.07.11-.14.16-.21Z"/>
  <path class="cls-3" d="m392.62,24.53c.07-.05.15-.11.22-.16-.07.05-.15.11-.22.16Z"/>
  <path class="cls-14" d="m339.91,36.12c.08.05.15.1.23.15-.08-.05-.15-.1-.23-.15Z"/>
  <path class="cls-3" d="m370.28,36.32c.07-.05.15-.1.22-.15-.07.05-.15.1-.22.15Z"/>
  <path class="cls-1" d="m328.77,24.75c.07-.06.14-.12.21-.18-.07.06-.14.12-.21.18Z"/>
  <path class="cls-3" d="m369.86,36.53c.07-.05.15-.1.22-.15-.07.05-.15.1-.22.15Z"/>
  <path class="cls-3" d="m143.06,28.54c.07-.06.13-.11.2-.17-.07.06-.13.11-.2.17Z"/>
  <path class="cls-14" d="m367.08,36.55c.08.05.17.1.25.15-.08-.05-.17-.1-.25-.15Z"/>
  <path class="cls-3" d="m369.41,36.73c.08-.05.16-.1.24-.15-.08.05-.16.1-.24.15Z"/>
  <path class="cls-14" d="m369.02,24.52c-.05.07-.1.15-.15.22.05-.07.1-.15.15-.22Z"/>
  <path class="cls-14" d="m174.23,37.13c-.05.08-.1.16-.14.24.05-.08.1-.16.14-.24Z"/>
  <path class="cls-14" d="m178.48,24.76c.06-.01.12-.02.18-.03-.05.08-.1.15-.15.23-.04-.06-.05-.13-.03-.2Z"/>
  <path class="cls-3" d="m408.03,27.95l.17.17-.17-.17Z"/>
  <path class="cls-3" d="m369.72,28.11c.05-.08.1-.15.15-.23-.05.08-.1.15-.15.23Z"/>
  <path class="cls-14" d="m178.45,25.35c-.05.08-.11.16-.16.23.05-.08.11-.16.16-.23Z"/>
  <path class="cls-15" d="m257.51,27.68c-.06.07-.12.15-.17.22.06-.07.12-.15.17-.22Z"/>
  <path class="cls-1" d="m327.5,25.59c.07-.05.14-.11.21-.16-.07.05-.14.11-.21.16Z"/>
  <path class="cls-3" d="m376.79,25.38c-.06.07-.11.14-.17.21.06-.07.11-.14.17-.21Z"/>
  <path class="cls-14" d="m322.43,27.65c.09-.05.17-.1.26-.15-.09.05-.17.1-.26.15Z"/>
  <path class="cls-3" d="m389.88,25.59c.07-.06.15-.11.22-.17-.07.06-.15.11-.22.17Z"/>
  <path class="cls-14" d="m172.33,43.23c-.05.08-.1.16-.14.24.05-.08.1-.16.14-.24Z"/>
  <path class="cls-2" d="m32.58,27.69c.07-.06.15-.11.22-.17-.07.06-.15.11-.22.17Z"/>
  <path class="cls-1" d="m326.84,26c.08-.06.16-.11.24-.17-.08.06-.16.11-.24.17Z"/>
  <path class="cls-14" d="m171.7,45.34c-.05.08-.1.16-.14.24.05-.08.1-.16.14-.24Z"/>
  <path class="cls-14" d="m177.82,27.04c-.05.08-.11.15-.16.23.05-.08.11-.15.16-.23Z"/>
  <path class="cls-2" d="m466.87,27.06c.06-.08.11-.17.17-.25-.06.08-.11.17-.17.25Z"/>
  <path class="cls-14" d="m178.24,25.97c-.05.08-.11.17-.16.25.05-.08.11-.17.16-.25Z"/>
  <path class="cls-1" d="m326.42,26.22c.08-.05.15-.11.23-.16-.08.05-.15.11-.23.16Z"/>
  <path class="cls-14" d="m171.07,47.44c-.05.08-.09.16-.14.24.05-.08.09-.16.14-.24Z"/>
  <path class="cls-14" d="m170.65,48.92c-.06.08-.11.16-.17.24.06-.08.11-.16.17-.24Z"/>
  <path class="cls-1" d="m325.57,26.63c.08-.05.16-.1.24-.15-.08.05-.16.1-.24.15Z"/>
  <path class="cls-2" d="m8.55,32.74c.07-.06.15-.12.22-.18-.07.06-.15.12-.22.18Z"/>
  <path class="cls-3" d="m402.73,30.84c.08-.06.16-.12.23-.17-.08.06-.16.12-.23.17Z"/>
  <path class="cls-7" d="m450.46,19.93c-.2,2.16.02,4.05,1.59,5.59.23.22.4.81.27,1.03-1.6,2.7-3.54,5.03-6.47,6.46-2.4,1.17-3.78-.48-3.9-2.47-.23-3.69,1.73-6.21,4.36-8.35,1.07-.87,2.35-1.49,3.55-2.2.16-.09.4-.04.61-.06Z"/>
  <path class="cls-10" d="m378.51,26.01c.14-.28.28-.56.41-.85.21-.35.43-.7.64-1.05,0,0,0,0,0,0,.35-.49.7-.98,1.06-1.47.07-.07.14-.15.21-.22.28-.27.57-.55.85-.82.21-.22.42-.43.63-.65.56-.21,1.13-.42,1.69-.63-.18,1.72.13,3.24,1.41,4.57.4.42,1.65.21,1.19,1.31-.25.59-.62,1.15-1.02,1.66-1.52,1.94-3.21,3.67-5.53,4.69-1.82.8-3.18-.08-2.99-2.08.1-1.09.55-2.14.85-3.21.2-.42.4-.84.6-1.26Z"/>
  <path class="cls-2" d="m387.59,22.26c0,.14.03.28,0,.42-.1.4-.22.8-.34,1.2-.39-.3-.95-.53-1.12-.92-.28-.66-.37-1.43-.41-2.16-.01-.22.41-.64.65-.66.32-.02.85.18.97.43.23.5.24,1.11.34,1.67-.03,0-.06,0-.09.01Z"/>
  <path class="cls-3" d="m384.01,20.34c-.56.21-1.13.42-1.69.63.5-.42,1.01-.84,1.51-1.26.11.07.22.13.33.2-.05.14-.1.29-.15.43Z"/>
  <path class="cls-3" d="m380.62,22.65c-.35.49-.7.98-1.06,1.47.35-.49.7-.98,1.06-1.47Z"/>
  <path class="cls-3" d="m378.51,26.01l-.6,1.26.6-1.26Z"/>
  <path class="cls-3" d="m381.68,21.61c-.28.27-.57.55-.85.82.28-.27.57-.55.85-.82Z"/>
  <path class="cls-3" d="m379.57,24.12c-.21.35-.43.7-.64,1.05.21-.35.43-.7.64-1.05Z"/>
  <path class="cls-3" d="m32.8,25.53c.54-1.97,2.15-2.87,3.61-3.94.85-.63,1.72-.91,2.78-.85.86.05,1.02.54.65,1.07-.61.85-1.3,1.73-2.15,2.31-1.42.97-2.99,1.77-4.89,1.42Z"/>
  <path class="cls-3" d="m294.49,25.26c1.89-2.96,3.88-5.64,7.51-6.47,1.01,2.87-4.62,6.62-7.51,6.47Z"/>
  <path class="cls-15" d="m259.02,29.59c-.24-.3.43-1-.45-1.03.19-.4.37-.79.56-1.19.52.45.45,1.61-.11,2.22Z"/>
  <path class="cls-15" d="m272.48,22.19c-.14.02-.27.04-.41.06.1-.34.2-.68.3-1.03.09.02.17.05.26.07-.05.3-.1.6-.15.89Z"/>
  <path class="cls-15" d="m259.26,26.93c.08-.2.15-.41.22-.61.12.03.24.05.24.05-.03.23-.07.46-.11.69-.12-.05-.23-.09-.35-.14Z"/>
  <path class="cls-15" d="m259.69,25.88c.05-.17.1-.34.16-.51.05,0,.09.01.14.02-.01.18-.02.36-.03.54-.09-.01-.18-.03-.27-.04Z"/>
  <path class="cls-14" d="m359.57,26.43c-.08-.16-.16-.31-.24-.47.01-.86.34-1.54.94-2.07.13.06.25.12.38.18l-1.08,2.35Z"/>
  <path class="cls-14" d="m330.02,20.77c-.42-.02-.84-.03-1.26-.05.44-.58.86-.66,1.26.05Z"/>
  <path class="cls-14" d="m323.07,26.01c.14.02.28.03.43.05-.14.11-.27.23-.41.34,0-.13,0-.26-.01-.38Z"/>
  <path class="cls-14" d="m360.99,22.7c-.1.09-.16.15-.23.21-.05-.06-.14-.13-.13-.19.01-.07.1-.13.16-.2.06.05.12.11.2.18Z"/>
  <path class="cls-14" d="m330.07,21.17c-.02-.14-.03-.27-.05-.41.12.08.24.15.35.23-.1.06-.2.12-.3.19Z"/>
  <path class="cls-14" d="m360.74,23.57c-.05.02-.11.05-.16.07-.01-.05-.05-.12-.03-.15.03-.04.1-.06.15-.08.01.05.03.11.04.17Z"/>
  <path class="cls-14" d="m344.78,27.31c.07-.02.14-.04.2-.06l-.06.29c-.05-.08-.09-.15-.14-.23Z"/>
  <path class="cls-14" d="m351.79,22.87c-.09,0-.19,0-.28,0,.09,0,.19,0,.28,0Z"/>
  <path class="cls-14" d="m327.29,24.12c.07-.06.14-.12.2-.17-.07.06-.14.12-.2.17Z"/>
  <path class="cls-14" d="m326.66,24.54c.07-.05.13-.11.2-.16-.07.06-.13.11-.2.16Z"/>
  <path class="cls-14" d="m325.57,25.16c.08-.05.16-.1.24-.15-.08.05-.16.1-.24.15Z"/>
  <path class="cls-14" d="m324.75,25.59c.07-.06.15-.12.22-.17-.07.06-.15.12-.22.17Z"/>
  <path class="cls-14" d="m324.32,25.8l.22-.16-.22.16Z"/>
  <path class="cls-14" d="m359.38,27.06c.05-.08.1-.15.15-.23-.05.08-.1.15-.15.23Z"/>
  <path class="cls-7" d="m195.95,28.76c.21-2.67,1.5-4.7,3.13-6.55.66-.75,1.45-1.39,2.22-2.04,1.02-.86,2.25-1.06,3.51-.86,1.36.21,2.46,2.91,1.68,4.24-1.64,2.78-3.26,5.59-5.54,7.95-.89.92-1.95,1.07-3.03,1.18-.32.03-.86-.52-1.02-.91-.4-.96-.63-1.99-.93-2.99Z"/>
  <path class="cls-14" d="m178.71,24.54c-.08-.16-.16-.32-.25-.48.25-.45.5-.91.75-1.36.13.07.26.14.39.21-.3.54-.6,1.09-.9,1.63Z"/>
  <path class="cls-12" d="m180.37,23.69c.21-.06.42-.12.63-.19-.17.4-.34.8-.51,1.2-.11-.03-.23-.07-.34-.1.07-.31.15-.61.22-.92Z"/>
  <path class="cls-14" d="m179.94,25.38l-.22.52c-.06-.02-.11-.04-.17-.06.06-.15.12-.31.17-.46.07,0,.14,0,.21,0Z"/>
  <path class="cls-12" d="m181.01,23.5c.11-.13.23-.25.34-.38-.11.13-.23.25-.34.38Z"/>
  <path class="cls-12" d="m179.94,25.38c-.07,0-.14,0-.21,0,.08-.11.16-.23.24-.34,0,.12-.02.23-.02.35Z"/>
  <circle class="cls-5" cx="486.05" cy="33.4" r=".69"/>
</svg>