<svg width="464" height="95" viewBox="0 0 464 95" fill="none" xmlns="http://www.w3.org/2000/svg">
<path d="M11.2616 2.44525H0V93.6494H11.2616V2.44525Z" fill="#09BCA5"/>
<path d="M74.8356 1.86865H68.9007L54.5878 72.0596L40.2749 1.86865H34.3505H22.5122V93.0728H34.3505V25.5662L48.5585 93.1357L54.5878 93.2301L60.617 93.1357L74.8356 25.5662V93.0728H86.6634V1.86865H74.8356Z" fill="#09BCA5"/>
<path d="M109.376 2.29852H96.6044L86.6326 87.5468L86.664 93.0728L96.9714 92.9784L98.5862 70.0672H107.394L109.009 92.9784H120.113L109.376 2.30901V2.29852ZM107.614 59.7284H98.9113C98.8379 59.7284 98.7854 59.6655 98.7854 59.5921L103.147 23.6578C103.168 23.511 103.378 23.511 103.389 23.6578L107.73 59.5921C107.73 59.6655 107.677 59.7284 107.604 59.7284H107.614Z" fill="#09BCA5"/>
<path d="M170.937 25.7339C170.937 25.7339 170.203 11.4735 153.929 11.4735C137.655 11.4735 131.249 27.2019 131.249 50.4276C131.249 73.6533 142.584 83.8978 151.549 83.8978C160.514 83.8978 172.216 80.9723 172.216 57.2014H146.243V46.4116H183.551V93.4083H172.394L172.573 83.3525C172.573 83.3525 169.102 94.6875 151.538 94.6875C133.975 94.6875 118.98 78.2251 118.98 50.9834C118.98 23.7417 128.858 0.694214 151.717 0.694214C174.575 0.694214 183.719 14.2312 183.719 25.5662L170.916 25.7444L170.937 25.7339Z" fill="#09BCA5" stroke="#09BCA5" stroke-width="0.5" stroke-miterlimit="10"/>
<path d="M206.189 31.9834H195.504V93.3035H206.189V31.9834Z" fill="#09BCA5" stroke="#09BCA5" stroke-width="0.5" stroke-miterlimit="10"/>
<path d="M206.378 1.41779H195.316V13.7908H206.378V1.41779Z" fill="#09BCA5" stroke="#09BCA5" stroke-width="0.5" stroke-miterlimit="10"/>
<path d="M389.007 2.16223V81.5805L229.635 2.35097H217.629V93.4817H229.635V14.6401L389.007 93.4817H400.195V2.16223H389.007Z" fill="#09BCA5"/>
<path d="M433.266 82.9017H414.025V50.6898H431.138V40.5501H414.025V12.9939H433.214V2.5921H414.025H402.376V93.3139H414.025H433.266V82.9017Z" fill="#09BCA5"/>
<path d="M450.83 2.52924H464L461.903 73.3388H452.927L450.83 2.52924Z" fill="#09BCA5"/>
<path d="M463.623 81.3813H451.711V93.293H463.623V81.3813Z" fill="#09BCA5"/>
</svg>
