<?xml version="1.0" encoding="UTF-8"?>
<svg id="Layer_1" data-name="Layer 1" xmlns="http://www.w3.org/2000/svg" viewBox="0 0 500 500">
  <path d="m222.3,267.85l-1.7-3.62c-18.46,8.69-37.32,16.64-56.48,23.8-.52-.4-1.05-.79-1.57-1.19,16.61-31.88,31.79-64.5,45.45-97.73l-3.7-1.52c-13.54,32.91-28.58,65.21-45.01,96.8-.89-.68-1.79-1.35-2.68-2.02l-36.93-158.2-3.9.91,35.84,153.52c-32.37-24.29-65.57-47.44-99.48-69.33l-2.17,3.36c35.17,22.7,69.56,46.77,103.07,72.06l1.59,6.81c-21.68,7.77-43.71,14.55-65.96,20.27l1,3.88c21.36-5.49,42.51-11.96,63.35-19.33-23.97,44.85-50.79,88.18-80.26,129.59l3.26,2.32c29.46-41.41,56.29-84.73,80.28-129.56l32.12,137.61,3.9-.91-32.99-141.31c1.36-.49,2.72-.99,4.08-1.5,45.74,35.06,89.75,72.42,131.62,111.78l2.74-2.91c-41.36-38.88-84.81-75.81-129.95-110.51,18.47-6.97,36.66-14.66,54.48-23.05Z"/>
  <path d="m322.5,105.17c7.42-3.05,14.44-7.09,20.79-12.06l-2.46-3.15c-5.98,4.68-12.57,8.49-19.54,11.39-.96-2.99-1.93-5.98-2.93-8.96,6.02-17.49,12.92-34.68,20.71-51.48l-3.63-1.68c-7.12,15.36-13.51,31.04-19.17,46.97-4.32-12.68-8.91-25.26-13.77-37.68l-3.72,1.46c5.47,13.95,10.59,28.1,15.36,42.38-.51,1.49-1.02,2.98-1.52,4.48-13.63-12.02-26.94-24.38-39.88-37.04l-2.8,2.86c13.4,13.11,27.19,25.9,41.33,38.32-.45,1.39-.9,2.79-1.34,4.19-6.63,1.72-13.48,2.64-20.36,2.7l.03,4c6.4-.05,12.76-.83,18.96-2.26-6.18,20.26-11.19,40.89-14.97,61.75l3.94.71c3.9-21.52,9.12-42.78,15.59-63.64,1.66-.47,3.3-.98,4.93-1.55.37.32.74.64,1.11.96,5.55,17.69,10.55,35.54,14.96,53.45l3.88-.96c-3.92-15.95-8.32-31.85-13.15-47.63,20.82,17.7,42.33,34.6,64.36,50.56l2.35-3.24c-23.65-17.13-46.69-35.34-68.93-54.47-.04-.13-.08-.27-.12-.4Zm-6.28-6.48c.2.61.39,1.23.59,1.84-.31-.27-.62-.54-.93-.81.11-.35.22-.69.34-1.04Z"/>
</svg>