<?xml version="1.0" encoding="UTF-8"?>
<svg id="Layer_1" data-name="Layer 1" xmlns="http://www.w3.org/2000/svg" viewBox="0 0 500 500">
  <path d="m200.86,148.45l.17-4-65.86-2.85c19.24-19.16,39.49-37.3,60.68-54.3l-2.5-3.12c-21.05,16.9-41.18,34.91-60.32,53.92,1.13-16.63,1.92-33.27,2.35-49.86l-4-.1c-.46,17.45-1.31,34.95-2.53,52.45l-49.5-66.81-3.21,2.38,48.14,64.98-61.4-2.66-.17,4,63.26,2.74c-23.59,24.05-45.61,49.63-65.84,76.6l3.2,2.4c19.97-26.61,41.68-51.87,64.93-75.62-2.2,28.61-5.41,57.17-9.64,85.41l3.96.59c4.1-27.44,7.26-55.18,9.46-82.97l64.23,86.7,3.21-2.38-66.98-90.41s0-.02,0-.02l68.35,2.96Z"/>
  <path d="m455.74,170.83l-2.67-2.98c-36.51,32.68-71.95,66.83-106.14,102.2-1.42-.27-2.85-.52-4.28-.77l17.9-124.56-3.96-.57-17.82,124.02-52.32-85.54-3.41,2.09,50.84,83.14c-20.87-3.13-41.99-4.48-62.91-3.96l.1,4c21.82-.54,43.83.97,65.55,4.43l1.26,2.05-.86,5.96c-36.98,38.79-72.43,79.03-106.11,120.46l3.1,2.52c32.43-39.88,66.52-78.66,102.02-116.11l-18.26,127.1,3.96.57,19.07-132.71c.38-.39.76-.78,1.13-1.18l85.85,140.37,3.41-2.09-86.4-141.26c1.17-1.22,2.34-2.43,3.51-3.65,21.86,4.21,43.33,10.4,63.88,18.5l1.47-3.72c-19.98-7.87-40.82-13.97-62.05-18.21,33.56-34.64,68.33-68.08,104.12-100.13Zm-113.09,103.68l-.6-.98.04-.28c.51.09,1.01.18,1.52.27-.32.33-.64.66-.96,1Z"/>
</svg>