<?xml version="1.0" encoding="UTF-8"?>
<svg id="Layer_1" data-name="Layer 1" xmlns="http://www.w3.org/2000/svg" viewBox="0 0 500 500">
  <path d="m247.61,254.29c19.28,2.03,38.48,4.65,57.53,7.86l.67-3.94c-18.02-3.04-36.19-5.56-54.43-7.55,19.36-18.88,37.96-38.52,55.72-58.87l-3.01-2.63c-18.42,21.11-37.76,41.45-57.91,60.96-3.19-.33-6.37-.64-9.56-.94-.03-.04-.07-.08-.1-.12l1-141.56-4-.03-.97,136.85c-23.35-27.79-48.17-54.37-74.38-79.6l-2.77,2.88c26.66,25.67,51.89,52.74,75.58,81.07-24.18-2.1-48.44-3.27-72.61-3.49l-.04,4c24.69.22,49.47,1.44,74.16,3.64l-.07,10.38c-27.6,25.74-56.64,49.95-86.92,72.4l2.38,3.21c29.39-21.78,57.62-45.21,84.5-70.1l-.88,124.38,4,.03.91-128.17c1.5-1.4,3.01-2.8,4.5-4.21,31.83,39.26,60.78,80.86,86.55,124.46l3.44-2.04c-25.93-43.87-55.05-85.71-87.09-125.2,1.27-1.22,2.54-2.44,3.81-3.66Zm-5.21-.54c-.38.36-.75.72-1.13,1.08-.35-.43-.71-.87-1.07-1.3.73.07,1.46.14,2.19.22Zm-5.96,5.67l.03-4.13c.64.77,1.27,1.55,1.91,2.32-.64.61-1.29,1.21-1.94,1.81Z"/>
  <polygon points="443.93 100.27 443.93 96.27 423.95 96.27 423.53 95.81 460.65 57.83 457.79 55.03 421.98 91.68 421.98 41.15 417.98 41.15 417.98 89.79 383.31 52.19 380.37 54.9 417.98 95.7 417.98 95.77 417.49 96.27 383.13 96.27 383.13 100.27 413.58 100.27 373.99 140.77 376.86 143.56 417.98 101.49 417.98 138.81 421.98 138.81 421.98 100.27 422.2 100.27 463.45 145.02 466.39 142.31 427.64 100.27 443.93 100.27"/>
  <path d="m100.18,369.18l-2.67-2.98c-9.03,8.1-18.53,15.58-28.45,22.45,5.84-23.76,12.58-47.3,20.18-70.45l-3.8-1.25c-7.98,24.32-15.01,49.07-21.06,74.04-4.9-15.49-7.88-31.6-8.78-47.92l-3.99.22c.9,16.44,3.88,32.65,8.76,48.27l-50.89-5.81-.45,3.97,49.84,5.69c-12.05,7.61-24.65,14.35-37.76,20.14l1.62,3.66c13.82-6.1,27.09-13.24,39.74-21.34.06.16.11.33.17.49-4.54,19.39-8.49,38.9-11.81,58.45l3.94.67c2.97-17.49,6.44-34.96,10.39-52.33,4.82,12.23,10.85,24,18.05,35.09l3.36-2.18c-8.13-12.54-14.75-25.95-19.78-39.93.14-.6.27-1.19.42-1.79l92.21,10.52.45-3.97-89.6-10.22c10.44-7.17,20.44-15,29.92-23.5Z"/>
</svg>