<?xml version="1.0" encoding="UTF-8"?>
<svg id="Layer_1" data-name="Layer 1" xmlns="http://www.w3.org/2000/svg" viewBox="0 0 500 500">
  <path d="m34.87,373.35c26.37-14.11,53.27-27.42,80.57-39.92l6.23,3.48-20.65,119.58,3.94.68,19.8-114.65,57.2,130.73,3.66-1.6-57.34-131.04,87.56,48.89,1.95-3.49-91.7-51.2,1.16-6.72c38.86-17.38,78.49-33.08,118.57-46.94l-1.31-3.78c-39.34,13.61-78.26,28.99-116.44,45.98l15.65-90.63-3.94-.68-16.1,93.25c-.58.26-1.16.53-1.74.79l-52.76-120.57-3.66,1.6,52.78,120.63c-.89.4-1.78.81-2.67,1.21l-74.57-41.64-1.95,3.49,72,40.2c-26.46,12.18-52.53,25.13-78.12,38.81l1.89,3.53Z"/>
  <path d="m255.1,113.02l43.7,42.06,2.77-2.88-41.26-39.7c6.6-.74,13.18-1.75,19.71-3.05l-.78-3.92c-7.51,1.5-15.08,2.61-22.68,3.35l-1.18-1.14c9.18-14.9,18.77-29.53,28.74-43.82l-3.28-2.29c-9.84,14.11-19.32,28.56-28.41,43.27l-3.91-3.76-8.42-53.1-3.95.63,7.59,47.87-36.04-34.68-2.77,2.88,39.85,38.35,1.04,6.58c-10.69.54-21.42.34-32.12-.62l-.36,3.98c6.95.62,13.92.93,20.88.93,4.08,0,8.16-.11,12.23-.33l.13.83c-10.67,17.75-20.76,35.86-30.18,54.19l3.56,1.83c8.66-16.84,17.88-33.49,27.6-49.85l6.32,39.87,3.95-.63-7.07-44.6c.4-.67.81-1.33,1.22-2,1.04-.08,2.08-.18,3.11-.27Zm-4.81-4.63c-.16.26-.32.53-.48.8l-.24-1.49.72.69Z"/>
  <path d="m362.75,314.23l1.14,72.29,4-.06-1.15-72.4,4.23-.18,41.75,47.45,3-2.64-39.62-45.03,31.72-1.37-.17-4-34.94,1.51-4.9-5.57c15.14-22.32,30.65-44.38,46.44-66.04l-3.23-2.36c-15.12,20.74-29.98,41.87-44.52,63.22l-.99-62.75-4,.06.98,61.81-45.17-51.33-3,2.64,48.27,54.86v.45c-1.25,1.86-2.5,3.74-3.75,5.6l-37.28,1.61.17,4,34.34-1.48c-13.04,19.48-25.81,39.13-38.2,58.86l3.39,2.13c12.88-20.52,26.18-40.95,39.77-61.21l1.71-.07Zm3.93-4.17l-.02-1.09.92,1.05-.9.04Z"/>
</svg>