<?xml version="1.0" encoding="UTF-8"?>
<svg id="Layer_1" data-name="Layer 1" xmlns="http://www.w3.org/2000/svg" viewBox="0 0 500 500">
  <defs>
    <style>
      .cls-1 {
        fill: #231f20;
        stroke: #000;
        stroke-miterlimit: 10;
        stroke-width: 10px;
      }
    </style>
  </defs>
  <path class="cls-1" d="m421.13,7.37H78.87C39.51,7.37,7.49,39.4,7.49,78.76v342.25c0,39.36,32.02,71.39,71.39,71.39h109.8v-163.75h-56.13v-74.39h56.62l-.51-4.83c-6.71-63.84,4.36-109.69,32.9-136.27,29.94-27.89,80.56-36.01,150.48-24.16v66.67c-33.91-3.58-59.03,2.35-74.67,17.66-16.14,15.79-22.41,41.7-18.64,77.02l.42,3.91h87.56l-13.7,74.39h-74.41v163.75h142.54c39.36,0,71.39-32.02,71.39-71.39V78.76c0-39.36-32.02-71.39-71.39-71.39Zm62.64,413.64c0,34.54-28.1,62.64-62.64,62.64h-133.79v-146.25h72.94l16.92-91.89h-90.16c-2.64-30.5,2.88-52.67,16.44-65.93,14.39-14.07,38.74-19,72.37-14.66l4.94.64v-83.91l-3.61-.64c-74.64-13.25-129.01-4.6-161.58,25.75-15.65,14.58-26.54,34.37-32.38,58.85-5.33,22.33-6.58,49.19-3.74,79.91h-55.68v91.89h56.13v146.25h-101.05c-34.54,0-62.64-28.1-62.64-62.64V78.76c0-34.54,28.1-62.64,62.64-62.64h342.25c34.54,0,62.64,28.1,62.64,62.64v342.25Z"/>
</svg>