<?xml version="1.0" encoding="UTF-8"?>
<svg id="Layer_1" data-name="Layer 1" xmlns="http://www.w3.org/2000/svg" viewBox="0 0 1074 372">
  <path d="m72,79.57l-.86-.96c-11.69,10.49-23.04,21.46-33.99,32.81-.45-.09-.91-.17-1.37-.25l5.73-39.99-1.27-.18-5.71,39.82-16.76-27.46-1.09.67,16.28,26.69c-6.68-1.01-13.45-1.44-20.15-1.27l.03,1.29c6.99-.17,14.04.31,20.99,1.42l.4.66-.28,1.91c-11.84,12.45-23.2,25.37-33.98,38.67l.99.81c10.39-12.8,21.3-25.25,32.67-37.28l-5.85,40.81,1.27.18,6.11-42.61c.12-.12.24-.25.36-.38l27.49,45.07,1.09-.67-27.67-45.35c.37-.39.75-.78,1.12-1.17,7,1.35,13.88,3.34,20.46,5.94l.47-1.19c-6.4-2.53-13.07-4.49-19.87-5.85,10.75-11.12,21.88-21.86,33.34-32.15h0Zm-36.22,33.29l-.19-.31v-.09c.18.03.34.06.5.09-.1.11-.21.21-.31.32h0Z"/>
  <path d="m125.96,20.32l-.58-1.11-18.35,9.56c2.22-8.23,4.88-16.33,7.97-24.28l-1.17-.46c-3.07,7.9-5.71,15.95-7.93,24.12-2.3-4.7-4.7-9.34-7.18-13.92l-1.1.6c2.61,4.81,5.13,9.7,7.54,14.65l-23.93-10.39-.5,1.15,23.28,10.11-17.1,8.91.58,1.11,17.62-9.18c-2.64,10.24-4.61,20.64-5.87,31.15l1.25.15c1.25-10.36,3.19-20.64,5.78-30.74,3.89,8.12,7.5,16.39,10.78,24.72l1.17-.46c-3.19-8.1-6.69-16.13-10.45-24.03l31.06,13.48.5-1.15-32.39-14.06h0s19.04-9.93,19.04-9.93h0Z"/>
  <path d="m46.03,46.13l.24,14.87h.83s-.24-14.91-.24-14.91l.88-.04,8.65,9.76.62-.54-8.21-9.26,6.57-.28-.04-.82-7.24.31-1.01-1.15c3.14-4.59,6.35-9.13,9.62-13.59l-.67-.49c-3.13,4.27-6.21,8.61-9.22,13.01l-.2-12.91h-.83s.2,12.73.2,12.73l-9.35-10.56-.62.54,10,11.29v.09c-.26.38-.52.77-.78,1.15l-7.72.33.04.82,7.11-.3c-2.7,4.01-5.35,8.05-7.91,12.11l.7.44c2.67-4.22,5.42-8.42,8.24-12.59h.35s0-.01,0-.01Zm.81-.86v-.22s.19.22.19.22h-.19Z"/>
  <path d="m1031.12,248.04c6.03-1.56,11.99-3.41,17.83-5.57l-.5-1.37c-5.99,2.21-12.11,4.11-18.3,5.68-.09-.43-.18-.86-.26-1.29,6.26-15.9,13.49-31.41,21.64-46.42l-1.27-.7c-7.83,14.42-14.8,29.29-20.9,44.52-2.66-12.99-5.59-25.91-8.78-38.7l-1.41.35c3.36,13.48,6.43,27.12,9.21,40.81-.03.06-.05.12-.07.19l-30.44-26.89-.95,1.09,30.82,27.24c-.05.14-.11.28-.17.43-7.1,1.7-14.3,2.98-21.55,3.83l.17,1.45c1.16-.14,2.31-.28,3.47-.44,5.81-.79,11.58-1.85,17.28-3.19-5.63,14.75-10.45,29.82-14.4,45.13l1.4.37c4.02-15.58,8.94-30.91,14.71-45.91.12-.03.25-.06.37-.09,2.88,14.47,5.42,29.01,7.61,43.51l1.43-.22c-2.12-14.08-4.58-28.19-7.36-42.25l41.82,36.95.96-1.09-42.36-37.43h0Z"/>
  <path d="m934.45,238.79l.38,1.44,7.46-1.96c.1.32.21.64.32.96-1.58,3.71-3.06,7.47-4.42,11.26l1.34.54c1.18-3.29,2.44-6.56,3.79-9.78,1.21,3.32,2.58,6.58,4.1,9.76l1.27-.64c-1.73-3.59-3.24-7.28-4.55-11.05.15-.35.29-.69.44-1.04,5.05,3,9.93,6.3,14.59,9.9l.83-1.18c-4.53-3.5-9.28-6.72-14.17-9.66l8.15-2.14-.38-1.44-7.95,2.09c1.6-3.54,3.28-7.02,5.07-10.43l-1.26-.73c-1.96,3.76-3.81,7.6-5.55,11.51-.33-.19-.67-.38-1-.57-.97-3.17-1.81-6.4-2.48-9.65l-1.39.29c.58,2.81,1.28,5.6,2.08,8.35-2.3-1.27-4.64-2.48-7-3.62l-.58,1.34c2.77,1.34,5.5,2.78,8.19,4.3.02.07.05.15.07.22l-7.38,1.94h0Z"/>
  <path d="m962.1,323.04c.26,15.09.23,30.19-.11,45.18l1.46.04c.31-14.03.36-28.14.16-42.26,7.62,14.99,15.24,29.99,22.79,44.91l1.3-.67c-8-15.8-16.07-31.69-24.14-47.57-.01-.44-.01-.88-.02-1.32,10.3.21,20.58.83,30.79,1.85l.14-1.46c-10.27-1.02-20.61-1.64-30.97-1.85,0-.32-.02-.64-.02-.97l24.17-39.91-1.25-.76-22.98,37.95c-.32-13.95-.89-27.89-1.71-41.73l-1.46.09c.87,14.58,1.45,29.27,1.76,43.97l-.31.51c-6.55-12.88-13.1-25.73-19.62-38.5l-1.3.67c6.54,12.81,13.11,25.71,19.68,38.63-9.67-.13-19.34.1-28.96.68l.09,1.46c9.54-.58,19.14-.8,28.73-.68l-28.74,47.46,1.25.76,28.75-47.48c.17.33.34.67.51,1h0Z"/>
</svg>