<?xml version="1.0" encoding="UTF-8"?>
<svg id="Layer_1" data-name="Layer 1" xmlns="http://www.w3.org/2000/svg" viewBox="0 0 461.67 807.99">
  <defs>
    <style>
      .cls-1 {
        fill: #faf3ec;
      }

      .cls-2 {
        fill: #383da2;
      }
    </style>
  </defs>
  <g>
    <rect class="cls-2" x="-219.72" y="344" width="692" height="4" transform="translate(-220.21 470.93) rotate(-89.78)"/>
    <rect class="cls-2" x="302.39" width="4" height="690.02"/>
  </g>
  <g>
    <g>
      <rect class="cls-1" x="3.33" y="672.99" width="455" height="125" transform="translate(-28.93 9.71) rotate(-2.27)"/>
      <path class="cls-2" d="m5.03,807.99l-5.03-126.9,1-.04,455.64-18.05.04,1,4.99,125.9-1,.04L5.03,807.99Zm-2.95-124.98l4.87,122.9,452.65-17.93-4.87-122.9L2.08,683.01Z"/>
    </g>
    <path class="cls-2" d="m434.63,771.66c.38-.41.35-1.04-.06-1.41l-6.61-6.11c-.41-.38-1.04-.35-1.41.06-.37.41-.35,1.04.06,1.41l5.88,5.43-5.43,5.88c-.38.41-.35,1.04.06,1.41s1.04.35,1.41-.06l6.11-6.61Zm-410.37,16.55l409.68-16.23-.08-2-409.68,16.23.08,2Z"/>
    <path class="cls-2" d="m35.22,705.16c5.05-.2,8.8,1.38,9.04,7.52.22,5.63-3.43,8.01-8.42,8.21l-2.81.11.31,7.71c-.86.19-1.72.32-2.58.36s-1.7-.03-2.57-.16l-.93-23.44,5.15-.2,2.81-.11Zm.07,11.53c2.27-.09,4.07-.83,3.95-3.81-.12-3.01-1.97-3.54-4.24-3.45l-2.65.1.29,7.26,2.65-.11Zm18.72-5.58c5.05-.2,7.22,1.89,7.39,6.37l.4,10.1c-.47.15-1.01.26-1.53.29-.54.02-1.12-.02-1.64-.16l-.44-1.29c-1.51,1.4-3.66,2.19-5.71,2.27-3.01.12-5.85-1.46-6-5.21-.15-3.77,2.73-5.58,6.11-5.72,1.34-.05,2.79.11,4.15.48l-.05-1.28c-.06-1.63-.74-2.56-2.66-2.49-1.79.07-2.55,1-2.61,2.12-.25.04-.89.1-1.37.12-1.09.04-2.21-.1-3.03-.42.08-2.95,2.68-5.01,6.97-5.17Zm-2.95,11.97c.06,1.6,1.21,2.29,2.71,2.23,1.09-.04,2.32-.51,3.35-1.12l-.11-2.78c-.91-.38-2.01-.72-3.17-.67-1.53.06-2.86.59-2.79,2.35Zm24.12-12.2c.12.54.18,1.24.2,1.82.03.64-.08,1.32-.18,1.96-1.32-.08-2.3.06-3.12.38-.79.29-1.41.76-2.06,1.33l.43,10.87c-.79.19-1.62.32-2.42.35-.83.03-1.6-.03-2.41-.16l-.63-15.99c.57-.18,1.17-.3,1.78-.33.61-.02,1.15.05,1.74.19l.43,2c.71-.73,1.54-1.44,2.39-1.92,1.07-.55,2.37-.77,3.86-.51Zm13.5,11.96c.22.63.31,1.3.33,1.94.03.64-.01,1.31-.18,1.93-1.49.38-2.73.49-3.76.53-4.57.18-5-3.33-5.13-6.52l-.24-5.95-2.14.09c-.15-.67-.25-1.37-.27-2.04-.03-.7.01-1.31.11-1.96l2.14-.09-.17-4.38c.79-.19,1.56-.32,2.39-.35.8-.03,1.67.03,2.44.16l.17,4.38,3.29-.13c.15.6.24,1.21.27,1.91.03.67,0,1.38-.11,2.09l-3.29.13.25,6.36c.06,1.6.67,2.31,1.76,2.27.64-.02,1.37-.18,2.13-.37Zm2.42-15.98l-.18-4.48c.73-.22,1.43-.31,2.16-.34.77-.03,1.54,0,2.31.16l.18,4.48c-.79.19-1.56.32-2.29.35-.74.03-1.44,0-2.18-.17Zm.58,19.54l-.63-15.99c.79-.22,1.59-.32,2.42-.35.83-.03,1.63,0,2.41.16l.63,15.99c-.76.19-1.56.32-2.42.35-.8.03-1.6-.03-2.41-.16Zm16.39.12c-5.37.21-8.44-2.77-8.66-8.43-.23-5.69,2.62-8.91,8.03-9.12,4.96-.2,7.47,2.62,7.79,5.9-.92.33-1.87.46-2.86.5-.54.02-1.09.01-1.6-.07-.18-1.34-1-2.55-3.17-2.47-2.53.1-3.55,1.65-3.42,5.07.13,3.39,1.28,4.85,3.81,4.75,2.17-.09,2.89-1.36,3-2.62.57-.12,1.21-.18,1.82-.2.93-.04,1.83.09,2.64.28-.11,2.95-2.25,6.21-7.37,6.41Zm10.13-20.74l-.18-4.48c.73-.22,1.43-.31,2.16-.34.77-.03,1.54,0,2.31.16l.18,4.48c-.79.19-1.56.32-2.29.35-.74.03-1.44,0-2.18-.17Zm.58,19.54l-.63-15.99c.79-.22,1.59-.32,2.42-.35.83-.03,1.63,0,2.41.16l.63,15.99c-.76.19-1.56.32-2.42.35-.8.03-1.6-.03-2.41-.16Zm16.94-17.48c4.09-.16,7.61,2.16,7.86,8.53.25,6.2-3.07,8.86-7.01,9.02-1.6.06-2.99-.33-4.23-.95l.36,8.98c-.79.19-1.56.32-2.39.35-.83.03-1.63-.03-2.44-.16l-.98-24.62c.57-.18,1.08-.3,1.62-.32.54-.02,1.09.05,1.71.19l.3,1.17c1.86-1.55,3.66-2.13,5.2-2.19Zm-.61,13.73c2.37-.09,3.94-1.57,3.8-5.02-.14-3.45-1.86-4.86-4.19-4.77-1.05.04-2.03.43-2.94,1.04l.32,7.96c.92.51,1.92.82,3.01.78Zm19.66,3.1c-5.79.16-8.36-3.42-8.57-8.63-.21-5.18,2.44-8.71,7.88-8.93,5.37-.21,8.53,3.41,8.06,9.51l-11.29.45c.14,2.84,1.31,4.05,3.81,3.95,2.05-.08,2.93-1.24,3.08-2.4.25-.04.8-.13,1.21-.14,1.06-.04,2.08.08,3.09.36-.15,2.76-2.56,5.71-7.26,5.83Zm-3.99-10.31l6.68-.27c.07-2.4-1.26-3.63-3.38-3.55-2.18.09-3.37,1.48-3.31,3.81Zm13.48,9.26c-.11-.44-.16-.86-.18-1.31-.02-.48,0-.93.07-1.41l7.13-9.95-6.93.4c-.18-.63-.3-1.24-.33-1.91-.03-.67,0-1.38.18-2.06l12.69-.5c.12.51.16.92.18,1.37.02.45,0,.9-.07,1.38l-7.13,9.95,7.29-.42c.22.6.3,1.24.33,1.94.03.64-.04,1.35-.18,1.99l-13.05.52Zm37.4-26.72c.83-.03,1.63.03,2.44.16l.98,24.84c-.57.18-1.08.27-1.62.29-.54.02-1.12-.02-1.67-.16l-.34-1.2c-1.89,1.61-3.66,2.13-5.2,2.19-3.93.16-7.61-2.16-7.86-8.53-.24-6.17,3.07-8.86,7.01-9.02,1.6-.06,2.99.36,4.24.98l-.36-9.21c.79-.22,1.59-.32,2.39-.35Zm-8.57,17.41c.14,3.48,1.83,4.89,4.16,4.8,1.06-.04,2.03-.47,2.94-1.04l-.32-7.99c-.92-.48-1.89-.82-2.98-.78-2.4.09-3.94,1.57-3.81,5.02Zm24.66-11.51c-.79.16-1.46.25-2.2.28-.74.03-1.41.02-2.18-.11l-4.52-5.87c.95-.2,1.91-.3,2.87-.34.86-.03,1.7.03,2.6.12l3.44,5.92Zm-1.18,19.42c-5.79.16-8.37-3.42-8.57-8.63-.21-5.18,2.44-8.71,7.88-8.93,5.37-.21,8.53,3.41,8.06,9.51l-11.29.45c.15,2.84,1.31,4.05,3.81,3.95,2.05-.08,2.93-1.24,3.08-2.4.25-.04.79-.13,1.21-.14,1.06-.04,2.09.08,3.09.36-.15,2.76-2.56,5.71-7.26,5.83Zm-4-10.31l6.68-.27c.07-2.4-1.26-3.63-3.38-3.55-2.17.09-3.37,1.48-3.31,3.81Zm21.52,9.62c-4.96.2-7.48-2.01-7.57-5.08.76-.22,1.49-.28,2.29-.31.77-.03,1.51.04,2.22.17-.07,1.41,1.07,2.04,2.99,1.96,1.73-.07,2.6-.77,2.56-1.67-.04-1.15-1.44-1.54-5.26-2.55-2.13-.52-4.74-1.67-4.87-4.87-.12-2.94,2.65-5.04,7.03-5.21,4.8-.19,7.19,2.05,7.19,5.13-.73.19-1.43.28-2.13.31-.77.03-1.54-.04-2.34-.16.04-1.28-.73-2.15-2.58-2.08-1.66.07-2.66.75-2.59,1.8.05,1.28,2.03,1.84,5.07,2.59,2.55.6,4.99,1.56,5.12,4.73.12,3.01-2.52,5.06-7.13,5.25Zm38.02-18.99c3.29-.13,6.02,1.65,6.2,6.03l.41,10.42c-.76.19-1.52.32-2.32.35-.86.03-1.7-.03-2.51-.16l-.36-9.21c-.1-2.46-.94-3.49-2.67-3.42-1.05.04-2.03.46-3.02,1.27.05.35.09.73.11,1.15l.41,10.42c-.76.19-1.56.32-2.36.35-.83.03-1.67-.03-2.47-.16l-.37-9.21c-.1-2.46-.94-3.48-2.66-3.42-1.06.04-2,.43-2.99,1.24l.46,11.61c-.79.19-1.62.32-2.45.35-.83.03-1.6-.03-2.38-.16l-.63-15.99c.57-.18,1.17-.3,1.75-.32.61-.02,1.15.05,1.77.19l.41,1.42c1.39-1.27,3.11-2.27,5.32-2.36,1.98-.08,3.8.55,4.95,2.05,1.39-1.34,3.14-2.37,5.41-2.46Zm17.04-.74c5.05-.2,7.22,1.89,7.39,6.37l.4,10.1c-.47.15-1.01.26-1.53.28-.54.02-1.12-.02-1.64-.16l-.44-1.3c-1.51,1.4-3.66,2.2-5.71,2.28-3.01.12-5.86-1.47-6-5.21-.15-3.77,2.73-5.59,6.11-5.72,1.34-.05,2.79.11,4.15.48l-.05-1.28c-.07-1.63-.74-2.56-2.66-2.49-1.79.07-2.55,1-2.61,2.12-.25.04-.89.1-1.37.12-1.09.04-2.21-.11-3.03-.43.07-2.95,2.68-5.01,6.97-5.18Zm-2.95,11.97c.06,1.6,1.21,2.29,2.71,2.23,1.09-.04,2.32-.51,3.35-1.12l-.11-2.78c-.91-.38-2.01-.72-3.17-.68-1.54.06-2.86.59-2.79,2.35Zm13.76-15.18l-.18-4.48c.73-.22,1.43-.31,2.16-.34.77-.03,1.54,0,2.31.16l.18,4.48c-.79.19-1.56.32-2.29.35-.73.03-1.44,0-2.18-.17Zm.58,19.54l-.63-15.99c.79-.22,1.59-.32,2.42-.35.83-.03,1.63,0,2.41.16l.63,15.99c-.76.19-1.56.32-2.42.35-.8.03-1.6-.03-2.41-.16Zm17.62-17.41c3.36-.13,6.12,1.65,6.29,6.03l.41,10.42c-.73.19-1.49.32-2.26.35-.83.03-1.73-.03-2.57-.15l-.36-9.21c-.1-2.46-.97-3.48-2.76-3.41-1.09.04-2.13.5-3.24,1.41l.45,11.45c-.76.19-1.52.32-2.36.35-.8.03-1.67-.03-2.47-.16l-.63-15.99c.57-.18,1.11-.3,1.72-.33.58-.02,1.19.05,1.8.18l.45,1.58c1.48-1.4,3.2-2.43,5.54-2.52Zm19.66,12.26c.22.63.31,1.3.33,1.94.02.64-.01,1.31-.18,1.93-1.49.38-2.74.49-3.76.53-4.57.18-5-3.32-5.13-6.52l-.24-5.95-2.14.08c-.15-.67-.25-1.37-.27-2.04-.03-.7.01-1.31.11-1.96l2.14-.09-.17-4.38c.79-.19,1.56-.32,2.39-.35.8-.03,1.67.03,2.44.16l.17,4.38,3.29-.13c.15.6.24,1.21.27,1.91.03.67,0,1.38-.11,2.09l-3.29.13.25,6.36c.06,1.6.67,2.31,1.76,2.27.64-.03,1.37-.18,2.13-.37Zm10.46,4.04c-5.79.17-8.37-3.42-8.57-8.63-.21-5.18,2.44-8.71,7.88-8.93,5.37-.21,8.52,3.41,8.06,9.51l-11.29.45c.15,2.84,1.31,4.05,3.81,3.95,2.05-.08,2.93-1.24,3.08-2.4.25-.04.8-.13,1.21-.14,1.05-.04,2.08.08,3.09.36-.15,2.76-2.56,5.71-7.26,5.83Zm-4-10.31l6.68-.26c.07-2.41-1.27-3.63-3.38-3.55-2.17.09-3.37,1.48-3.31,3.81Zm23.8-7.96c3.36-.13,6.12,1.65,6.29,6.03l.41,10.42c-.73.19-1.49.32-2.26.34-.83.03-1.73-.03-2.57-.15l-.36-9.21c-.1-2.46-.97-3.48-2.76-3.41-1.09.04-2.12.5-3.24,1.41l.45,11.45c-.76.19-1.53.32-2.36.35-.8.03-1.67-.03-2.47-.16l-.63-15.99c.57-.18,1.11-.3,1.72-.32.58-.02,1.19.05,1.8.18l.45,1.58c1.48-1.4,3.2-2.43,5.54-2.53Zm17.18-.74c5.05-.2,7.22,1.89,7.39,6.37l.4,10.1c-.48.15-1.02.26-1.53.28-.54.02-1.12-.02-1.64-.16l-.44-1.3c-1.51,1.41-3.66,2.19-5.71,2.28-3.01.12-5.86-1.47-6-5.21-.15-3.77,2.73-5.58,6.11-5.72,1.34-.05,2.79.11,4.15.48l-.05-1.28c-.06-1.63-.74-2.56-2.66-2.49-1.79.07-2.55,1-2.61,2.12-.25.04-.89.1-1.37.12-1.09.04-2.21-.1-3.03-.42.07-2.95,2.68-5.01,6.97-5.18Zm-2.95,11.97c.06,1.6,1.21,2.29,2.71,2.23,1.09-.04,2.32-.51,3.35-1.12l-.11-2.78c-.91-.38-2.01-.72-3.17-.67-1.54.06-2.86.59-2.79,2.35Zm23.43-12.71c3.36-.13,6.12,1.65,6.29,6.03l.41,10.42c-.73.19-1.49.32-2.26.35-.83.03-1.73-.03-2.57-.16l-.36-9.21c-.1-2.46-.97-3.48-2.76-3.41-1.09.04-2.12.5-3.24,1.41l.45,11.45c-.76.19-1.52.32-2.36.35-.8.03-1.67-.03-2.47-.16l-.63-15.99c.57-.18,1.11-.3,1.72-.32.58-.02,1.19.05,1.8.18l.45,1.58c1.48-1.4,3.2-2.43,5.54-2.52Zm19.66,12.25c.22.63.31,1.3.33,1.94.03.64-.01,1.31-.18,1.93-1.49.38-2.73.49-3.76.53-4.57.18-5-3.32-5.13-6.52l-.24-5.95-2.14.08c-.15-.67-.25-1.37-.27-2.04-.03-.7.01-1.31.11-1.96l2.14-.09-.17-4.38c.79-.19,1.56-.32,2.39-.35.8-.03,1.67.03,2.44.16l.17,4.38,3.29-.13c.15.6.24,1.21.27,1.91.03.67,0,1.38-.11,2.09l-3.29.13.25,6.36c.06,1.6.67,2.31,1.75,2.27.64-.03,1.37-.18,2.13-.37Zm-389.45,40.36c5.05-.2,7.22,1.89,7.39,6.37l.4,10.1c-.47.15-1.01.27-1.53.28-.54.02-1.12-.02-1.64-.16l-.44-1.3c-1.51,1.4-3.66,2.19-5.71,2.28-3.01.12-5.85-1.47-6-5.21-.15-3.77,2.73-5.58,6.11-5.72,1.34-.05,2.79.11,4.15.48l-.05-1.28c-.06-1.63-.74-2.57-2.66-2.49-1.79.07-2.55,1-2.61,2.12-.25.04-.89.1-1.37.12-1.09.04-2.21-.1-3.03-.42.08-2.95,2.68-5.01,6.97-5.18Zm-2.95,11.97c.06,1.6,1.21,2.29,2.71,2.23,1.09-.04,2.32-.51,3.35-1.13l-.11-2.78c-.91-.38-2.01-.72-3.17-.68-1.53.06-2.86.59-2.79,2.35Zm26.84-12.4c.8-.03,1.57,0,2.31.16l.63,15.99c-.54.18-1.14.3-1.75.33-.54.02-1.15-.05-1.74-.19l-.48-1.71c-1.45,1.47-3.1,2.59-5.4,2.68-3.45.14-5.99-1.65-6.16-6.03l-.41-10.46c.79-.22,1.56-.32,2.42-.35.8-.03,1.63,0,2.44.16l.37,9.24c.1,2.49.78,3.49,2.54,3.42,1.18-.05,2.19-.54,3.18-1.38l-.46-11.51c.82-.23,1.65-.32,2.52-.36Zm23.34,16.11c-5.37.21-8.44-2.77-8.66-8.43-.23-5.69,2.63-8.91,8.03-9.12,4.96-.2,7.47,2.62,7.79,5.91-.92.32-1.87.46-2.86.5-.54.02-1.09.01-1.6-.06-.18-1.34-1-2.55-3.17-2.47-2.53.1-3.55,1.65-3.42,5.07.13,3.39,1.28,4.85,3.81,4.75,2.17-.09,2.89-1.36,3-2.62.57-.12,1.21-.18,1.82-.2.93-.04,1.83.09,2.64.28-.11,2.95-2.25,6.21-7.37,6.41Zm18.51-.73c-5.34.21-8.37-2.78-8.6-8.43-.22-5.69,2.56-8.91,7.9-9.12,5.28-.21,8.34,2.78,8.57,8.47.22,5.66-2.59,8.88-7.87,9.09Zm-.15-3.87c2.4-.09,3.56-1.61,3.42-5.04-.14-3.45-1.41-4.88-3.81-4.78-2.43.1-3.56,1.61-3.42,5.07.14,3.42,1.38,4.84,3.81,4.75Zm20.46-14.42c3.36-.13,6.12,1.65,6.29,6.03l.41,10.42c-.73.19-1.49.32-2.26.35-.83.03-1.73-.03-2.57-.16l-.36-9.21c-.1-2.46-.97-3.48-2.76-3.41-1.09.04-2.13.5-3.24,1.41l.45,11.45c-.76.19-1.53.32-2.36.35-.8.03-1.67-.03-2.47-.16l-.63-15.99c.57-.18,1.11-.3,1.72-.33.58-.02,1.19.05,1.8.18l.45,1.58c1.48-1.4,3.2-2.43,5.54-2.53Zm18.29,16.76c-5.37.21-8.44-2.77-8.66-8.43-.22-5.69,2.63-8.91,8.03-9.12,4.96-.2,7.47,2.62,7.79,5.9-.91.33-1.87.46-2.86.5-.54.02-1.09.01-1.6-.06-.18-1.34-1-2.56-3.17-2.47-2.53.1-3.55,1.65-3.42,5.07.13,3.39,1.28,4.85,3.81,4.75,2.17-.09,2.89-1.36,3-2.62.57-.12,1.21-.18,1.82-.2.93-.04,1.83.09,2.64.28-.11,2.95-2.25,6.21-7.37,6.41Zm18.51-.73c-5.34.21-8.37-2.77-8.6-8.43-.23-5.69,2.56-8.91,7.9-9.12,5.28-.21,8.34,2.78,8.57,8.47.22,5.66-2.59,8.88-7.87,9.09Zm-.15-3.87c2.4-.1,3.55-1.61,3.42-5.04-.14-3.45-1.41-4.88-3.81-4.78-2.43.1-3.55,1.61-3.42,5.07.14,3.42,1.38,4.84,3.81,4.75Zm23.93-14.11c.8-.03,1.57,0,2.31.16l.63,15.99c-.54.18-1.14.3-1.75.32-.54.02-1.15-.05-1.74-.19l-.48-1.71c-1.45,1.47-3.1,2.59-5.4,2.68-3.45.14-5.99-1.65-6.16-6.03l-.41-10.46c.79-.22,1.56-.32,2.42-.35.8-.03,1.63,0,2.44.16l.37,9.24c.1,2.49.78,3.49,2.54,3.42,1.18-.05,2.19-.54,3.18-1.38l-.46-11.51c.82-.22,1.65-.32,2.52-.36Zm16.65-.56c.12.54.18,1.24.2,1.82.02.64-.08,1.32-.18,1.96-1.32-.08-2.3.06-3.12.38-.79.29-1.41.76-2.06,1.33l.43,10.87c-.79.19-1.62.32-2.42.35-.83.03-1.6-.03-2.41-.16l-.63-15.99c.57-.18,1.17-.3,1.78-.33.61-.03,1.15.05,1.74.19l.43,2c.71-.73,1.54-1.44,2.39-1.92,1.07-.55,2.37-.77,3.85-.51Zm9.95,16.55c-4.96.2-7.48-2.01-7.57-5.08.76-.22,1.49-.28,2.29-.32.77-.03,1.51.04,2.22.17-.07,1.41,1.07,2.04,2.99,1.96,1.73-.07,2.6-.77,2.56-1.67-.04-1.15-1.44-1.54-5.26-2.55-2.13-.52-4.74-1.67-4.87-4.87-.12-2.94,2.65-5.04,7.03-5.21,4.8-.19,7.19,2.05,7.18,5.13-.73.19-1.43.28-2.13.31-.77.03-1.54-.03-2.34-.16.05-1.28-.72-2.15-2.58-2.07-1.66.07-2.66.75-2.59,1.8.05,1.28,2.03,1.84,5.07,2.58,2.55.6,4.99,1.56,5.12,4.73.12,3.01-2.52,5.06-7.13,5.25Zm18.87-9.33l-.97-15.49c.76-.22,1.62-.32,2.48-.35.89-.04,1.79,0,2.6.15l.29,15.52c-.63.15-1.46.25-2.33.28-.77.03-1.51,0-2.09-.11Zm.15,7.81l-.19-4.73c.76-.22,1.52-.32,2.29-.35.83-.03,1.6.03,2.44.16l.19,4.73c-.79.19-1.59.32-2.39.35-.8.03-1.57-.03-2.34-.16Z"/>
  </g>
</svg>