<?xml version="1.0" encoding="UTF-8"?>
<svg id="Layer_1" data-name="Layer 1" xmlns="http://www.w3.org/2000/svg" viewBox="0 0 1512 975.27">
  <defs>
    <style>
      .cls-1 {
        fill: none;
        stroke: #000;
      }
    </style>
  </defs>
  <path d="m853.32,57.29c.07.98.91,6.75,1.61,11.38.39,2.6.77,5.06,1.06,6.91.15.97.27,1.72.36,2.25.18,1.05.19,1.12.43,1.27l.26.16.28-.11c13.01-5.24,26.52-9.55,40.15-12.83l.53-.13-.08-.54c-1.35-9.55-2.81-19.22-4.33-28.75l-.1-.64-11.05,2.61c-1.52.36-3.11.67-4.64.98-3.94.78-8.02,1.59-11.72,3.28-.96.44-1.92.93-2.85,1.41-2.04,1.04-4.15,2.13-6.37,2.7l-.22.06c-1.39.36-2.31.59-2.9,1.21-.68.7-.78,1.73-.73,3.18.07,1.88.17,3.77.3,5.6h0Zm1.27-7.94c.36-.37,1.15-.57,2.35-.88l.22-.06c2.35-.61,4.52-1.72,6.62-2.79.91-.47,1.86-.95,2.8-1.38,3.58-1.64,7.59-2.43,11.46-3.2,1.54-.31,3.14-.62,4.68-.98l9.81-2.31c1.46,9.13,2.85,18.4,4.15,27.55-13.27,3.22-26.42,7.42-39.12,12.49-.57-3.39-2.91-18.75-3.05-20.57-.14-1.82-.24-3.69-.3-5.55-.05-1.32.06-1.96.39-2.3h0Z"/>
  <g>
    <path d="m365.93,91.46c-6.02-9.56-18.55-18.04-34.39-23.29-15.17-5.02-30.15-5.97-40.06-2.55-5.15,1.78-9.81,4.31-13.47,7.33-4.31,3.55-7.21,7.7-8.65,12.32-2.44,7.88-.3,17.4,5.57,25.12.24.31.48.62.73.93,3.24,3.97,8.67,9.35,22.01,15.85,12.03,5.86,22.01,8.8,31.42,9.25,12.17.58,23.34-3.32,30.64-10.71,14.01-14.19,11.1-26.45,6.2-34.25h0Zm-59.46.22c4.94-1.3,16.34-.48,22.98,3.78,1.34.86,2.4,1.81,3.18,2.83.78,1.02,1.29,2.15,1.5,3.34.27,1.54-.05,2.62-1,3.39-4.54,3.68-21.44-.75-26.18-2.65-1.93-.77-6.37-2.92-6.02-6.15.32-2.94,4.32-4.21,5.54-4.54h0Z"/>
    <path d="m312.75,101.13s.05.07.08.11c1.22,1.6,3.65,2.15,5.48,1.21,1.77-.9,2.7-2.55,2.42-4.3-.29-1.78-1.75-3.12-3.73-3.42-1.22-.19-2.43.08-3.34.72-1.74,1.24-2.17,3.89-.91,5.68Z"/>
  </g>
  <path d="m157.02,174.5l-.08-.6c-1.26-10.09-4.74-19.99-10.08-28.65-4.01-6.5-8.33-10.87-13.2-13.38-2.89-1.49-6.22-2.29-9.38-2.27-3.44.03-6.58,1-9.1,2.82-4.41,3.18-6.54,8.56-7.9,12.89-2.07,6.56-3.33,13.4-3.76,20.34-.39,6.37-.1,12.61.86,18.57.04.27.08.53.12.76.4,2.66.72,3.84,3.91,3.93.66.02,1.35-.04,2.06-.16,1.6-.27,3.28-.81,4.82-1.31.96-.31,1.87-.6,2.69-.81,12.97-3.31,25.92-7.33,38.47-11.93l.57-.21h0Zm-1.66-1.01c-12.33,4.5-25.03,8.43-37.75,11.68-.87.22-1.8.52-2.78.84-2.1.68-4.49,1.45-6.36,1.4-1.36-.04-1.72-.26-1.89-.48-.28-.35-.4-1.11-.56-2.16-.04-.24-.08-.5-.12-.78-.95-5.85-1.23-11.98-.84-18.24.42-6.82,1.66-13.54,3.69-19.98,1.29-4.11,3.3-9.19,7.34-12.12,1.63-1.18,3.56-1.96,5.68-2.31.82-.14,1.67-.21,2.54-.22,2.92-.02,6,.72,8.67,2.1,4.62,2.38,8.74,6.57,12.6,12.83,5.12,8.29,8.5,17.77,9.79,27.43h0Z"/>
  <line class="cls-1" x1="627.34" y1="38.91" x2="665.34" y2="74.91"/>
  <line class="cls-1" x1="663.36" y1="37.62" x2="627.36" y2="75.62"/>
  <line class="cls-1" x1="643.5" y1="33.25" x2="645.5" y2="75.25"/>
  <line class="cls-1" x1="627.95" y1="57.78" x2="664.95" y2="53.78"/>
  <path d="m780.62,98.47l-13.84-22.09c-.28-.45-.87-.58-1.31-.29-.44.29-.57.89-.29,1.34l13.84,22.09c2.21,3.53,4.72,7.53,5.06,11.91.16,2.06-.34,4.26-1.38,6.03-1.08,1.85-2.65,3.04-4.4,3.37-2.82.52-5.55-1.18-7.18-2.95-1.97-2.14-3.19-4.93-4.37-7.63-.18-.41-.61-.64-1.04-.55-.43.09-.75.46-.77.92-.14,3.81-.59,8.69-2.92,12.71-1.91,3.3-5.77,6.43-10.07,5.99-2.05-.21-4.09-1.52-5.33-3.41-1.03-1.59-1.34-3.33-.87-4.91.15-.5-.11-1.03-.6-1.2-.49-.17-1.01.09-1.19.58-2.39,6.54-6.26,11.39-10.9,13.65-2.55,1.24-5.64,1.64-8.46,1.1-2.95-.57-5.4-2.11-6.88-4.33-2.33-3.49-2.44-8.71-.3-13.96,1.19-2.92,2.91-5.67,4.57-8.33,1.01-1.61,2.05-3.28,2.98-4.99,5.18-9.52,7.07-20.67,5.31-31.41-.09-.53-.58-.88-1.09-.8-.52.09-.86.59-.78,1.11,1.68,10.31-.13,21.02-5.1,30.15-.9,1.66-1.93,3.3-2.92,4.89-1.71,2.73-3.47,5.55-4.72,8.62-2.39,5.85-2.21,11.76.49,15.79,1.77,2.65,4.64,4.48,8.09,5.14.94.18,1.91.27,2.88.27,2.34,0,4.7-.52,6.75-1.52,4.1-2,7.62-5.77,10.18-10.82.23.69.56,1.37.99,2.03,1.54,2.37,4.11,4,6.71,4.27,4.44.45,9.22-2.33,11.88-6.93,1.81-3.12,2.58-6.65,2.93-9.88.85,1.69,1.86,3.36,3.16,4.78,2.5,2.73,5.91,4.08,8.89,3.53,5.01-.93,7.71-6.67,7.34-11.46-.38-4.87-3.02-9.08-5.35-12.8h0Z"/>
  <path d="m1363.17,44.22l15.87-7.1c3.01-1.35,6.76-2.66,9.04-.85,1.77,1.41,1.84,4.23,1.17,6.25-.66,1.98-1.92,3.74-3.25,5.6-.34.47-.68.95-1.01,1.42-3.09,4.48-5.38,9.41-6.82,14.66-.31,1.13-1.24,4.56.9,6.77,1.29,1.32,3.23,1.77,5.92,1.36,7.25-1.11,14.01-5.42,18.07-11.53.52-.78,1-1.58,1.46-2.36,1.15-1.94,2.24-3.78,3.82-5.05,1.17-.93,2.89-1.4,4.28-1.16.87.15,1.51.55,1.91,1.18,1.09,1.77-.29,4.46-1.94,6.39-1.22,1.42-2.61,2.79-3.95,4.11-2.78,2.74-5.66,5.58-7.47,9.24-1.77,3.57-1.9,8.15-.33,11.65,1.15,2.56,3.14,4.34,5.6,5.03,3.45.95,6.88-.42,9.16-1.53,6.4-3.13,11.96-8.22,15.67-14.3.14-.23.28-.46.42-.7.85-1.43,1.65-2.78,2.82-3.55,1.01-.67,2.33-.84,3.71-.46,1.78.48,3.36,1.75,4.13,3.32,1.36,2.75,1.03,6.58-.87,10.22-.6,1.14-1.31,2.3-2.06,3.52-2.75,4.5-5.87,9.61-3.25,14.65,1.16,2.24,3.32,3.82,6.09,4.45,2.47.57,5.22.31,7.53-.71,4.48-1.97,7.05-5.63,9.54-9.17,1.08-1.54,2.11-3.01,3.29-4.34,1.64-1.86,3.87-3.22,6.28-3.82.02,0,.05,0,.07-.02.94,1.23.68,3.18-.09,4.48-.99,1.69-2.78,2.92-4.4,3.89-.56.33-1.13.66-1.69.99-1.92,1.11-3.91,2.25-5.63,3.83-1.46,1.34-4.99,5.61-3.83,9.2.56,1.72,2.07,2.99,4.37,3.66,1.62.48,3.59.61,5.14.36,3.53-.57,6.48-2.5,9.33-4.36.31-.21.62-.41.93-.61.94-.61,1.86-1.15,2.71-1.14.3,0,.66.17.86.4.03.03.12.14.12.22-.02.11-.11.36-.67.86-2.06,1.88-4.8,2.99-7.69,4.17-3.91,1.59-7.95,3.23-10.37,6.96-1.75,2.71-2.16,6.23-1.12,9.67,1.17,3.86,3.94,7.07,7.42,8.56,6.14,2.65,14.21.56,19.19-4.98l-2.34-2.1c-4.1,4.56-10.67,6.33-15.61,4.19-2.6-1.12-4.77-3.64-5.66-6.59-.78-2.58-.51-5.09.76-7.05,1.88-2.91,5.3-4.29,8.91-5.76,3.02-1.23,6.15-2.5,8.63-4.76.65-.59,1.53-1.53,1.67-2.85.1-.94-.21-1.88-.89-2.64-.79-.89-1.98-1.44-3.18-1.45-1.72-.02-3.13.8-4.44,1.64-.31.2-.63.41-.95.62-2.7,1.76-5.25,3.42-8.12,3.89-2.06.34-5.5-.31-6.01-1.89-.52-1.58,1.43-4.5,2.97-5.92,1.46-1.34,3.21-2.35,5.07-3.42.57-.33,1.16-.67,1.74-1.02,1.96-1.18,4.15-2.7,5.5-5,1.84-3.14,1.21-6.33-.23-8.1-.26-.31-.66-.75-1.3-.98-.81-.3-1.57-.11-1.93-.01-3.02.76-5.81,2.46-7.87,4.79-1.29,1.47-2.42,3.07-3.51,4.62-2.34,3.33-4.55,6.48-8.23,8.1-4.01,1.77-8.26.2-9.57-2.32-1.8-3.47.6-7.4,3.15-11.56.74-1.21,1.51-2.47,2.15-3.71,2.4-4.6,2.73-9.36.92-13.06-1.18-2.39-3.47-4.25-6.14-4.97-2.26-.61-4.49-.3-6.26.88-1.77,1.17-2.84,2.97-3.79,4.56-.13.22-.26.45-.4.67-3.4,5.58-8.5,10.24-14.37,13.11-2.89,1.42-5.09,1.84-6.94,1.33-1.98-.55-3.03-2.09-3.56-3.28-1.19-2.64-1.08-6.25.28-8.98,1.57-3.18,4.14-5.72,6.86-8.4,1.39-1.37,2.82-2.79,4.12-4.31,3.08-3.59,3.91-7.37,2.22-10.09-.86-1.39-2.29-2.32-4.04-2.62-2.3-.39-4.89.3-6.77,1.81-2.03,1.63-3.32,3.8-4.56,5.9-.46.78-.9,1.51-1.37,2.22-3.59,5.39-9.55,9.18-15.94,10.17-1.59.24-2.67.1-3.19-.44-.59-.61-.63-1.87-.12-3.75,1.34-4.91,3.48-9.51,6.37-13.7.32-.46.65-.92.98-1.38,1.41-1.97,2.86-4,3.67-6.43,1.05-3.13.77-7.34-2.18-9.7-3.61-2.88-8.46-1.28-12.29.43l-15.87,7.1,1.29,2.87h-.01Z"/>
  <path d="m1247.25,136.36c1.56,1.78,3.03,3.47,4.31,5.13l26.39,34.1c1.59,2.06,3.77,4.88,7,5.77,1.52.42,3.03.36,4.45.02,2.12-.5,4.04-1.63,5.51-2.71,6.66-4.9,11.25-13.05,12.57-22.36,1.09-7.67.08-16.25-3-25.51-1.05-3.15-2.47-6.65-4.35-10.06.67-.11,1.34-.24,2-.4,7.19-1.72,13.68-6.46,17.4-12.85,4.1-7.06,4.77-16.06,1.79-23.66,1.91-1,3.43-2.59,4.18-4.52,1.95-4.97-.66-7.45-1.88-8.28-3.29-2.27-8.79-1.72-12,1.21-2.77,2.52-3.47,6.71-1.6,9.54,1.41,2.12,4.14,3.35,7.12,3.21.62-.03,1.22-.12,1.81-.26,2.72,6.9,2.11,15.09-1.61,21.5-3.82,6.57-10.88,11.22-18.43,12.13l.05.39c-2.39-3.85-5.42-7.48-9.27-10.21,3.57-2.08,6.43-5.32,8.01-9.16,1.75-4.22,1.89-9.01.44-13.33.12-.02.24-.05.36-.07,2.8-.67,4.68-3.04,5.38-5.58,1.05-3.85-.43-8.7-5.26-10.1-2.8-.81-5.39-.23-7.29,1.63-2.12,2.07-3,5.46-2.21,8.44.74,2.76,2.8,4.78,5.66,5.52.22.06.44.1.65.14,1.58,3.95,1.56,8.46-.07,12.39-1.55,3.74-4.48,6.83-8.13,8.57-.66-.37-1.34-.72-2.05-1.03-8.53-3.82-18.2-2.65-26.54-1-4.32.86-9.3,2-13.54,4.74-5.04,3.26-9.3,9.2-6.73,14.56,2.04,4.25,5.52,8.24,8.88,12.1h0Zm-5.94-19.35c1.13-1.9,3.01-3.79,5.17-5.18,2.85-1.84,6.15-2.91,9.33-3.67,1.13-.27,2.25-.5,3.33-.71,7.94-1.57,17.13-2.7,25.01.82,9.87,4.42,15.2,15.13,17.93,23.34,2.96,8.89,3.93,17.08,2.9,24.35-1.24,8.64-5.45,16.17-11.57,20.67-2,1.47-4.98,3.07-7.78,2.29-2.23-.62-3.89-2.58-5.67-4.88l-26.39-34.1c-1.33-1.72-2.82-3.43-4.4-5.24-3.26-3.73-6.62-7.59-8.51-11.53-.89-1.85-.67-3.92.66-6.15h0Z"/>
  <path d="m958,39.31c-2.41-.25-5.03.92-6.38,2.86-1.19,1.7-1.29,3.72-.3,5.69.59,1.17,1.39,1.97,2.29,2.48-5.57,17.91-13.13,35.24-22.49,51.52-.26.46-.1,1.03.36,1.29.15.08.31.12.47.12.33,0,.65-.17.83-.48,9.42-16.38,17.03-33.82,22.64-51.84.31.05.63.08.95.08.97,0,1.94-.23,2.8-.62,1.43-.65,2.58-1.72,3.23-3.02.76-1.49.8-3.12.12-4.72-.81-1.93-2.46-3.15-4.53-3.37h0Z"/>
  <line class="cls-1" x1="961.33" y1="108.9" x2="996.33" y2="139.9"/>
  <line class="cls-1" x1="988.45" y1="106.49" x2="968.45" y2="147.49"/>
  <line class="cls-1" x1="977.49" y1="109.19" x2="982.49" y2="137.19"/>
  <line class="cls-1" x1="958.98" y1="125.77" x2="990.98" y2="124.77"/>
  <path d="m1428.21,234.16c-3.32-1.13-6.68-.93-9.46.55-3.21,1.7-5.33,5.45-5.41,9.53-.06,3.69,1.56,6.86,4.34,8.47l.99-1.7c-2.16-1.25-3.42-3.77-3.36-6.74.06-3.38,1.78-6.45,4.36-7.83,2.3-1.22,5.11-1.37,7.91-.42,3.21,1.09,5.92,3.48,7.25,6.38,2.43,5.31,1.13,12.33-3.22,17.46-3.65,4.31-9.36,7.48-16.52,9.18-14.03,3.33-29.05,0-39.19-8.7-10.8-9.26-15.52-24.65-11.49-37.43,1.17-3.7,3.57-8.84,8.35-12.35,4.21-3.09,9.59-4.12,14.04-2.68,4.82,1.56,8.31,6.09,8.29,10.77,0,2.43-1.07,4.88-2.93,6.72-1.68,1.67-3.78,2.58-5.88,2.57-2.27-.01-4.61-1.32-6.09-3.41-1.38-1.93-1.8-4.15-1.15-6.09l-1.86-.63c-.86,2.54-.34,5.41,1.41,7.86,1.87,2.63,4.74,4.21,7.68,4.23h.06c2.61,0,5.17-1.11,7.22-3.14,2.22-2.21,3.5-5.16,3.51-8.11,0-5.51-4.05-10.83-9.66-12.65-5.03-1.63-11.09-.5-15.8,2.96-5.21,3.82-7.81,9.37-9.06,13.34-2.13,6.75-2.05,14.17.24,21.44,2.21,7,6.41,13.42,11.84,18.08,7.9,6.77,18.61,10.44,29.6,10.44,3.78,0,7.59-.43,11.33-1.32,7.56-1.8,13.64-5.19,17.56-9.82,4.84-5.7,6.24-13.56,3.51-19.55-1.55-3.39-4.69-6.16-8.41-7.43Z"/>
  <path d="m1068.62,48.41c.47,1.29.97,2.61,1.38,3.93,1.2,3.83.67,6.88.11,10.12-.36,2.09-.73,4.25-.66,6.71.16,5.96,3.75,11.85,9.14,15.02,3.47,2.04,7.65,3.08,12.04,3.08,3.44,0,7-.63,10.48-1.91,5.74-2.11,10.53-5.7,13.47-10.08,3.38-5.05,4.32-11.18,2.53-16.4-1.96-5.7-7.3-9.89-13-10.19-2.3-.12-4.55.35-6.73.81-.93.19-1.89.4-2.84.55-2.56.41-6.11.47-8.41-1.53-2.73-2.37-2.78-6.76-2.82-10.28-.04-3.64-.54-8.75-4.36-11.02-1.72-1.02-3.85-1.22-5.99-.56-2,.61-3.8,1.92-4.94,3.59-1.97,2.89-2.52,6.93-1.56,11.39.51,2.34,1.35,4.6,2.16,6.78h0Zm.68-17.32c1.29-1.89,3.75-3.3,6.14-3.3.94,0,1.87.22,2.71.72,1.52.9,3.54,2.89,3.62,9.74.04,3.82.1,8.58,3.34,11.4,2.18,1.9,5.53,2.55,9.68,1.89.98-.15,1.96-.36,2.91-.56,2.18-.46,4.23-.89,6.33-.78,5.08.27,9.86,4.03,11.62,9.16,1.64,4.78.76,10.42-2.36,15.08-2.76,4.12-7.28,7.5-12.72,9.5-7.48,2.75-15.4,2.36-21.19-1.05-4.95-2.91-8.24-8.31-8.39-13.76-.07-2.31.29-4.4.64-6.41.57-3.27,1.16-6.65-.16-10.82-.42-1.35-.92-2.7-1.4-4.01-.8-2.13-1.61-4.34-2.1-6.57-1.18-5.47.33-8.75,1.33-10.22h0Z"/>
  <path d="m1128.39,108.17c-.36-1.91,1.21-4.03,3.29-4.45,1.93-.39,4.21.55,5.65,2.34,1.27,1.56,2.01,3.69,2.2,6.32.36,4.74-1.05,9.39-2.52,13.75-.16.47-.32.94-.48,1.4-1.38,4.06-2.82,8.25-3.11,12.62-.37,5.58,1.43,10.67,4.82,13.6,1.86,1.62,4.4,2.53,6.94,2.53.31,0,.61-.01.92-.04,2.4-.21,4.47-1.26,5.85-2.96,2.23-2.75,2.39-6.6,2.36-9.98-.07-8.7-.64-17.48-1.7-26.12l-.04-.3c-.3-2.48-.62-5.05-.09-7.44.45-2.03,1.88-4.63,4.41-5.29,1.15-.3,2.55.04,3.55.86.82.67,1.25,1.53,1.22,2.43l1.34.05c.04-1.32-.58-2.6-1.72-3.53-1.34-1.09-3.15-1.52-4.72-1.11-2.57.66-4.68,3.13-5.38,6.3-.59,2.62-.26,5.31.06,7.9l.04.3c1.05,8.58,1.62,17.32,1.69,25.96.03,3.29-.11,6.71-2.06,9.12-1.14,1.41-2.89,2.29-4.93,2.47-2.48.22-5.05-.59-6.87-2.17-3.07-2.66-4.69-7.33-4.35-12.49.27-4.19,1.68-8.3,3.04-12.27.16-.47.32-.94.48-1.41,1.45-4.29,2.96-9.29,2.59-14.28-.22-2.91-1.06-5.29-2.5-7.07-1.78-2.2-4.51-3.3-6.96-2.81-2.81.57-4.83,3.39-4.33,6.03l1.31-.25h0Z"/>
  <path d="m492.11,31.62c-2.9-3.67-7.19-5.51-12.39-5.33-3.71.13-7.81,1.34-11.54,3.39-3.63,2-6.69,4.67-8.63,7.52-2.41,3.54-3.67,7.93-3.53,12.35.14,4.55,1.75,8.75,4.54,11.85,2.87,3.18,7.03,5.22,11.71,5.74.8.09,1.6.13,2.4.13,3.76,0,7.42-.99,10.51-2.88,3.68-2.24,6.64-5.66,8.56-9.87,1.84-4.03,2.6-8.64,2.14-12.96-.42-3.92-1.72-7.36-3.76-9.95Zm.53,22.42c-1.82,4-4.62,7.23-8.1,9.35-3.52,2.14-7.83,3.06-12.15,2.57-4.38-.49-8.27-2.39-10.95-5.35-2.61-2.88-4.11-6.82-4.24-11.08-.12-4.17,1.06-8.31,3.33-11.65,1.84-2.7,4.76-5.24,8.22-7.15,3.57-1.97,7.47-3.12,11-3.24,3.35-.12,8.05.63,11.41,4.88,1.9,2.41,3.12,5.64,3.51,9.33.44,4.12-.29,8.51-2.04,12.35h0Z"/>
  <path d="m305.33,229.42c-5.34-1.65-10.62-3.46-15.86-5.42l3.87-19.34c.1-.52-.23-1.02-.74-1.12-.51-.1-1.01.23-1.12.75l-3.81,19.04c-10.55-4.01-20.87-8.63-30.9-13.82l7.66-15.87c.23-.47.03-1.04-.44-1.27-.47-.23-1.04-.03-1.27.44l-7.64,15.82c-4.82-2.53-9.57-5.19-14.25-7.99-.45-.27-1.03-.12-1.3.33-.27.45-.12,1.04.33,1.31,4.72,2.82,9.52,5.51,14.39,8.07l-7.81,16.18c-4.07-1.39-8.15-2.75-12.23-4.06-.5-.16-1.03.12-1.19.62-.16.5.11,1.04.61,1.2,3.99,1.29,7.98,2.61,11.97,3.97l-8.72,18.06c-.23.47-.03,1.04.44,1.27.13.07.27.1.41.1.35,0,.69-.2.85-.54l8.82-18.28c12.23,4.21,24.41,8.75,36.41,13.59l-2.34,11.67c-.1.52.23,1.02.74,1.12.06.01.13.02.19.02.44,0,.84-.31.93-.76l2.27-11.33c3.69,1.49,7.36,3.02,11.01,4.57.12.05.24.07.37.07.37,0,.72-.22.87-.58.2-.49-.02-1.04-.5-1.25-3.77-1.6-7.56-3.17-11.37-4.71l3.08-15.39c5.18,1.93,10.41,3.71,15.68,5.35.09.03.19.04.28.04.41,0,.78-.26.9-.67.15-.5-.13-1.04-.63-1.19h0Zm-21.11,11.14c-11.86-4.77-23.88-9.25-35.96-13.41l7.69-15.92c10.17,5.26,20.64,9.93,31.34,13.99l-3.07,15.34Z"/>
  <path d="m563.77,53.02c.03-.35-.18-.67-.51-.77h0c-.33-.1-.68.04-.85.35-2.01,3.57-4.9,6.73-8.35,9.14-3.16,2.21-6.72,3.74-10.37,4.46-.38-1.02-1.04-1.93-1.95-2.54-2.27-1.53-5.7-.91-7.34,1.33s-1.21,5.73.91,7.47c.51.42,1.09.72,1.71.9,1.97.59,4.31.04,5.71-1.54.12-.14.19-.32.19-.5.17-.05.32-.17.41-.33.6-1.01.81-2.2.69-3.36,3.82-.77,7.55-2.38,10.85-4.69,2.78-1.94,5.22-4.35,7.16-7.06-.8,8.56-1.99,17.86-6.17,25.77-1.57,2.96-3.66,5.68-6.08,7.93-.71-1.79-1.64-3.5-2.77-5.06-.24-.33-.7-.4-1.03-.15-.33.25-.4.71-.16,1.04,1.16,1.59,2.09,3.35,2.78,5.21-.81.68-1.65,1.3-2.51,1.87-4.31,2.81-8.92,3.99-13.34,3.41-.4-.05-.77.24-.83.64-.05.37.17.71.51.81.04.01.08.02.11.03,4.77.63,9.73-.63,14.33-3.64.76-.5,1.5-1.04,2.22-1.61,1.27,4.29,1.3,8.98-.04,13.27-.12.39.09.81.48.93h0c.39.12.79-.1.91-.49,1.49-4.78,1.39-10.01-.14-14.74,2.72-2.44,5.08-5.44,6.83-8.74,4.82-9.1,5.77-19.85,6.61-29.33h0Z"/>
</svg>