<?xml version="1.0" encoding="UTF-8"?>
<svg id="Layer_1" data-name="Layer 1" xmlns="http://www.w3.org/2000/svg" viewBox="0 0 239.28 133.42">
  <defs>
    <style>
      .cls-1 {
        fill: #231f20;
      }
    </style>
  </defs>
  <g>
    <path class="cls-1" d="m157.15,68.5c3.19-7.89,4-16.57,2.27-24.45-1.13-5.17-3.17-9.12-6.06-11.73-3.8-3.44-9.21-4.32-13.14-2.15-.13.07-.24.16-.33.26-4.06,1.45-6.59,6.08-5.56,10.28,1.06,4.31,5.64,7.29,10.01,6.5,1.92-.35,3.51-1.15,4.68-2.35.83-.84,1.44-1.88,1.82-3.08,1-3.19.02-7.09-2.37-9.51,1.19.48,2.29,1.16,3.17,1.95,2.49,2.25,4.26,5.74,5.28,10.38,1.61,7.38.85,15.53-2.15,22.94-3,7.41-8.11,13.8-14.4,17.98-.59.39-.75,1.18-.36,1.77.39.59,1.18.75,1.77.36,2.24-1.49,4.33-3.23,6.25-5.19,3.84-3.92,6.98-8.7,9.1-13.96Z"/>
    <path class="cls-1" d="m182.32,78.24c4.29-4.38,7.19-9.54,8.25-14.92,1.31-6.65-.51-13.53-4.41-18.36-3.11-5.43-8.87-6.33-12.96-4.42-3.73,1.74-6.55,6.07-4.43,11.82.88,2.39,2.82,4.39,5.33,5.49,2.44,1.07,5.14,1.16,7.41.24,1.1-.45,2.09-1.12,2.93-1.98.99-1.01,1.77-2.27,2.27-3.7.13-.37.23-.74.32-1.11,1.42,3.52,1.88,7.57,1.1,11.54-1.46,7.41-6.8,14.42-14.64,19.24-7.26,4.46-15.77,6.73-23.9,8.51-.68.15-1.11.82-.96,1.5.15.68.82,1.11,1.49.96,8.34-1.83,17.1-4.17,24.68-8.82,2.84-1.74,5.37-3.77,7.55-5.99h0Z"/>
    <path class="cls-1" d="m208.27,61.54c-1.14-1.13-2.45-2.06-3.76-2.63-1.95-.86-3.8-.88-5.2-.07-1.52.89-2.41,2.64-2.64,5.2-.24,2.73.96,5.58,3.22,7.64,2.04,1.86,4.56,2.63,6.73,2.07,1.56-.4,2.64-1.02,3.38-1.7.14,2.4-.25,5.02-1.15,7.96-2.61,8.52-10.46,17.48-19.09,21.79-9.09,4.54-20.35,3.65-28-2.23-.56-.43-1.35-.32-1.76.22-.42.55-.31,1.34.25,1.77,8.41,6.45,20.73,7.46,30.66,2.49,3.79-1.89,7.6-4.73,10.9-8.1.51-.52,1.01-1.05,1.49-1.6,3.8-4.27,6.55-8.97,7.96-13.58,1.67-5.44,1.75-9.93.19-13.96-.3-1.27-.97-2.61-1.97-3.89-.35-.45-.73-.88-1.13-1.29-.03-.03-.06-.06-.1-.09h0Z"/>
  </g>
  <g>
    <path class="cls-1" d="m82.97,67.76c-3.03-.79-6.22-.39-8.97,1.12-2.36,1.3-4.35,3.19-5.59,5.32-1.45,2.49-1.79,5.12-.96,7.6,1.76,5.3,5.98,8.83,11,9.22.31.02.63.04.94.04,4.09,0,8.07-2.03,10.35-5.34,2.51-3.66,2.72-8.81.49-12.52-1.62-2.71-4.2-4.63-7.26-5.43h0Z"/>
    <path class="cls-1" d="m51.83,94.67c1.84-3.43,2.23-7.24,1.08-10.45-1.29-3.6-4.5-6.11-8.81-6.9-5.23-.96-10.98.82-13.97,4.33-3.24,3.8-3.88,9.54-1.58,13.97,2.13,4.09,6.62,6.74,11.21,6.74.38,0,.76-.02,1.14-.06,4.45-.44,8.63-3.36,10.92-7.63h0Z"/>
  </g>
</svg>