<?xml version="1.0" encoding="UTF-8"?>
<svg id="Layer_1" data-name="Layer 1" xmlns="http://www.w3.org/2000/svg" viewBox="0 0 926 538">
  <defs>
    <style>
      .cls-1 {
        fill: #231f20;
      }
    </style>
  </defs>
  <path class="cls-1" d="m6.77,390.85c3.62,5.62,10.26,9.66,18.26,11.11-2.77,8.36-1.64,17.41,3.19,23.9,6.04,8.13,16.41,10.88,24.05,11.74,2.35.27,4.67.4,6.96.4,12.24,0,23.43-3.77,31.41-10.73,6.96-6.07,15.54-19.36,12.86-29.95-2.5-9.86-13.76-17.94-23.59-20.82-3.29-.97-6.72-1.51-10.22-1.65.69-2.24,1.21-4.59,1.56-7.03,1.47-10.23-.08-22.21-4.37-33.73-3.89-10.46-9.78-17.35-17.02-19.9-8.21-2.9-17.88-.49-29.54,7.37-5.57,3.75-11.78,8.48-15.65,15.12-6.51,11.19-5,24.68-2.72,38.68.82,5.04,1.75,10.74,4.81,15.49h0Zm72.22-11.19c8.71,2.56,19.15,9.9,21.32,18.48,2.32,9.13-5.69,21.31-11.83,26.66-8.79,7.66-21.85,11.14-35.84,9.54-6.99-.8-16.44-3.25-21.78-10.44-4.23-5.69-5.12-14.03-2.49-21.49,1.19.11,2.39.17,3.59.17,7.62,0,15.25-2.19,21.65-6.31,6.87-4.42,11.92-10.59,14.94-18.15,3.59.05,7.1.56,10.45,1.54h0Zm-49.25,19.56c3.51-6.86,10.07-12.76,18.55-16.66,5.42-2.49,11.03-3.94,16.54-4.34-3.1,6.82-7.81,11.94-13.01,15.28-6.5,4.18-14.38,6.19-22.09,5.72h0Zm-22.22-60.88c3.53-6.07,9.38-10.51,14.64-14.05,7.93-5.34,14.75-7.99,20.66-7.99,2.09,0,4.07.33,5.95.99,7.95,2.81,12.57,11.31,15.03,17.95,6.06,16.29,5.89,29.54,2.38,39.61-6.41.24-12.97,1.83-19.26,4.72-9.41,4.32-16.66,10.99-20.43,18.78-.08.16-.15.32-.22.48-.06,0-.12-.02-.19-.03-7.32-1.22-13.35-4.77-16.55-9.74-2.69-4.17-3.56-9.52-4.33-14.24-2.18-13.38-3.65-26.24,2.32-36.49Z"/>
  <path class="cls-1" d="m236.92,486.27c-.94-1.77-2.96-3.86-7.21-3.86h-.14c-4.61.05-9.12,2.47-11.8,6.31l-42.46-15.33c-.06-.23-.13-.45-.19-.68,8.83-9.04,17.88-17.86,27.13-26.39,1.14.75,2.47,1.19,3.85,1.19.07,0,.15,0,.23,0,3.76-.13,6.99-3.54,6.92-7.3-.07-3.75-3.42-7.04-7.17-7.04-.09,0-.17,0-.25.02-.07,0-.15,0-.23,0-3.75.25-6.88,3.77-6.68,7.52.06,1.21.47,2.37,1.11,3.36-8.82,8.14-17.46,16.53-25.9,25.13-2.97-10.42-6.05-20.79-9.24-31.08,2.17-1.12,3.97-3.3,5.04-6.18.99-2.66,1.11-5.17.36-7.26-.98-2.69-2.99-4.35-5.68-4.65-3.59-.4-7.86,1.74-9.94,4.98-1.93,3.01-2.05,6.99-.3,9.9,1.51,2.51,4.33,4.03,7.13,4.03.11,0,.22,0,.33-.01,3.37,10.88,6.63,21.85,9.75,32.88-.05.06-.11.11-.16.17l-37.81-13.65c.13-.97.06-1.96-.22-2.91-1.11-3.63-5.29-5.95-8.96-4.96-3.66.99-6.12,5.09-5.26,8.78.76,3.27,4,5.67,7.31,5.67.43,0,.87-.04,1.3-.13.17-.03.32-.09.46-.17.16,0,.32-.03.48-.09,1.63-.56,2.97-1.74,3.84-3.21l36.44,13.16c-11.81,12.28-23.19,24.97-34.07,37.97-1.62-.82-3.45-1.06-5.11-.65-3.86.96-6.42,5.19-5.49,9.06.81,3.34,4.09,5.74,7.47,5.74.51,0,1.02-.05,1.53-.17,3.84-.87,6.53-5.03,5.75-8.89-.05-.26-.16-.49-.32-.68-.28-.88-.75-1.71-1.36-2.44,11.11-13.29,22.76-26.25,34.84-38.77l.45.16c4.35,15.53,8.45,31.14,12.24,46.71-1.01.38-1.95.88-2.76,1.49-2.28,1.74-3.7,4.3-3.8,6.83-.12,3.05,1.74,5.91,4.43,6.82.7.24,1.4.33,2.11.33,1.64,0,3.27-.54,4.83-1.17,1.9-.77,4.06-1.73,5.67-3.46,1.61-1.73,2.73-4.65,1.56-7.24-.93-2.09-2.68-3.5-5.04-4.1-1.22-.31-2.57-.38-3.91-.23-3.63-14.89-7.53-29.81-11.67-44.66l39.89,14.4c-1.14,2.9-1.2,6.06-.11,9.01.87,2.35,2.63,4.45,4.84,5.77,1.57.94,3.24,1.42,4.87,1.42.88,0,1.74-.14,2.57-.41,2.98-.99,4.96-3.51,6.2-5.32,2.89-4.23,4.59-11.45,2.29-15.74h0Z"/>
  <g>
    <path class="cls-1" d="m774.97,71.42c4-9.89,5.01-20.78,2.85-30.66-1.42-6.48-3.98-11.43-7.6-14.71-4.77-4.31-11.55-5.42-16.48-2.7-.16.09-.29.2-.41.33-5.09,1.82-8.26,7.62-6.97,12.89,1.33,5.4,7.07,9.14,12.55,8.15,2.41-.43,4.41-1.45,5.87-2.94,1.04-1.06,1.81-2.36,2.28-3.87,1.25-3.99.03-8.89-2.97-11.92,1.5.6,2.87,1.45,3.97,2.45,3.12,2.82,5.35,7.2,6.62,13.02,2.02,9.26,1.07,19.47-2.69,28.77-3.76,9.3-10.17,17.31-18.06,22.55-.74.49-.94,1.49-.45,2.22s1.49.94,2.22.45c2.8-1.87,5.43-4.05,7.84-6.51,4.82-4.92,8.75-10.91,11.42-17.51Z"/>
    <path class="cls-1" d="m806.53,83.64c5.38-5.5,9.01-11.97,10.34-18.71,1.65-8.33-.64-16.97-5.53-23.02-3.9-6.8-11.12-7.94-16.25-5.54-4.68,2.19-8.21,7.62-5.56,14.82,1.1,2.99,3.53,5.5,6.68,6.89,3.06,1.35,6.44,1.46,9.29.3,1.37-.56,2.61-1.41,3.67-2.49,1.24-1.27,2.22-2.85,2.84-4.64.16-.46.29-.93.4-1.39,1.78,4.42,2.36,9.5,1.37,14.47-1.83,9.29-8.53,18.08-18.36,24.13-9.1,5.59-19.78,8.44-29.97,10.67-.85.19-1.39,1.03-1.21,1.88.18.85,1.02,1.39,1.87,1.2,10.46-2.3,21.44-5.23,30.94-11.07,3.56-2.19,6.74-4.72,9.47-7.51h0Z"/>
    <path class="cls-1" d="m839.08,62.69c-1.43-1.42-3.07-2.58-4.72-3.3-2.45-1.08-4.76-1.11-6.52-.08-1.91,1.12-3.03,3.31-3.31,6.52-.3,3.42,1.21,7,4.04,9.58,2.56,2.33,5.71,3.3,8.44,2.59,1.95-.51,3.3-1.27,4.24-2.13.17,3.01-.31,6.29-1.44,9.98-3.27,10.68-13.12,21.92-23.94,27.33-11.4,5.7-25.51,4.57-35.11-2.79-.7-.54-1.69-.41-2.21.28-.53.69-.39,1.68.31,2.21,10.54,8.09,26,9.35,38.45,3.13,4.75-2.37,9.52-5.93,13.67-10.15.64-.65,1.26-1.32,1.87-2,4.76-5.36,8.21-11.25,9.99-17.03,2.09-6.82,2.2-12.46.24-17.51-.38-1.6-1.22-3.27-2.46-4.88-.44-.56-.92-1.1-1.42-1.61-.04-.04-.08-.08-.12-.12h0Z"/>
  </g>
  <g>
    <path class="cls-1" d="m914.96,151.06c-3.8-.99-7.8-.49-11.24,1.41-2.96,1.63-5.45,4-7.01,6.67-1.82,3.13-2.24,6.42-1.21,9.52,2.21,6.64,7.5,11.07,13.79,11.56.39.03.79.04,1.18.04,5.13,0,10.12-2.55,12.97-6.69,3.15-4.59,3.41-11.04.62-15.7-2.03-3.39-5.27-5.81-9.11-6.81h0Z"/>
    <path class="cls-1" d="m875.91,184.79c2.3-4.3,2.8-9.07,1.35-13.11-1.62-4.51-5.64-7.67-11.05-8.65-6.56-1.2-13.76,1.03-17.51,5.43-4.06,4.76-4.87,11.97-1.98,17.51,2.67,5.12,8.31,8.46,14.05,8.46.48,0,.96-.02,1.43-.07,5.58-.55,10.83-4.22,13.7-9.57h0Z"/>
  </g>
</svg>