<?xml version="1.0" encoding="UTF-8"?>
<svg id="Layer_1" data-name="Layer 1" xmlns="http://www.w3.org/2000/svg" viewBox="0 0 460 109.01">
  <defs>
    <style>
      .cls-1 {
        stroke: #E62A3F;
        stroke-miterlimit: 10;
        stroke-width: .5px;
        fill= #E62A3F;
      }
    </style>
  </defs>
  <rect x="9.12" y="10.61" width="10.74" height="86.98" fill="#E62A3F"/>
  <polygon points="80.49 10.06 74.83 10.06 61.18 77 47.53 10.06 41.88 10.06 30.59 10.06 30.59 97.04 41.88 97.04 41.88 32.66 55.43 97.1 61.18 97.19 61.18 97.19 66.93 97.1 80.49 32.66 80.49 97.04 91.77 97.04 91.77 10.06 80.49 10.06" fill="#E62A3F"/>
  <path d="m113.43,10.47h-12.18l-9.51,81.3.03,5.27,9.83-.09,1.54-21.85h8.4l1.54,21.85h10.59s-10.24-86.47-10.24-86.47Zm-1.68,54.77h-8.3c-.07,0-.12-.06-.12-.13l4.16-34.27c.02-.14.22-.14.23,0l4.14,34.27c0,.07-.05.13-.12.13Z" fill="#E62A3F"/>
  <path class="cls-1" d="m172.14,32.82s-.7-13.6-16.22-13.6-21.63,15-21.63,37.15,10.81,31.92,19.36,31.92,19.71-2.79,19.71-25.46h-24.77v-10.29h35.58v44.82h-10.64l.17-9.59s-3.31,10.81-20.06,10.81-31.05-15.7-31.05-41.68,9.42-47.96,31.22-47.96,30.52,12.91,30.52,23.72l-12.21.17Z" fill="#E62A3F"/>
  <rect class="cls-1" x="195.57" y="38.78" width="10.19" height="58.48" fill="#E62A3F"/>
  <rect class="cls-1" x="195.39" y="9.63" width="10.55" height="11.8" fill="#E62A3F"/>
  <polygon points="380.11 10.34 380.11 86.08 228.12 10.52 216.67 10.52 216.67 97.43 228.12 97.43 228.12 22.24 380.11 97.43 390.78 97.43 390.78 10.34 380.11 10.34" fill="#E62A3F"/>
  <polygon points="422.32 87.34 403.97 87.34 403.97 56.62 420.29 56.62 420.29 46.95 403.97 46.95 403.97 20.67 422.27 20.67 422.27 10.75 403.97 10.75 392.86 10.75 392.86 97.27 403.97 97.27 403.97 97.27 422.32 97.27 422.32 87.34" fill="#E62A3F"/>
  <polygon points="439.07 10.69 451.63 10.69 449.63 78.22 441.07 78.22 439.07 10.69" fill="#E62A3F"/>
  <rect x="439.91" y="85.89" width="11.36" height="11.36" fill="#E62A3F"/>
</svg>