<?xml version="1.0" encoding="UTF-8"?>
<svg id="Layer_1" data-name="Layer 1" xmlns="http://www.w3.org/2000/svg" viewBox="0 0 500 500">
  <path d="m253.65,192.07l-69.91,66.86c-.91-.08-1.83-.16-2.74-.23,2.24-20.3,2.57-40.79.93-61.09l-3.99.32c1.63,20.1,1.29,40.4-.93,60.5-2.26-.15-4.51-.27-6.77-.38l-63.21-71.94-3.01,2.64,60.69,69.07c-13.95-.47-27.94-.22-41.92.79l.29,3.99c15.09-1.09,30.2-1.3,45.27-.64l5.58,6.35-84.15,80.47,2.76,2.89,82.57-78.96c-3.44,22.01-9.18,43.65-17.12,64.39l3.74,1.43c7.96-20.78,13.72-42.47,17.22-64.52l71.62,81.52,3.01-2.64-73.85-84.05c.03-.21.06-.42.09-.63l5.39-5.15c17.93,1.56,35.76,4.34,53.38,8.37l.89-3.9c-16.65-3.81-33.49-6.52-50.43-8.15l67.37-64.43-2.76-2.89Zm-77.11,70.34c-.1.82-.2,1.65-.31,2.47l-2.32-2.64c.88.05,1.76.12,2.63.18Z"/>
  <path d="m424.62,96.68c-18.1,5.29-37.06,8.43-56.07,9.39l-.53-.61c15.56-22.77,30.69-45.92,45.18-69.2l-3.4-2.11c-14.28,22.94-29.17,45.76-44.5,68.21l-1.12-1.28-3.89-32.46-3.97.48,3.19,26.65-27.47-31.43-3.01,2.63,31.33,35.85.43,3.56c-9.25.17-18.48-.17-27.62-1.05l-.38,3.98c7.76.75,15.59,1.12,23.44,1.12,1.19,0,2.38-.01,3.57-.03-7.11,10.3-14.3,20.53-21.56,30.63l3.25,2.34c6.83-9.5,13.6-19.1,20.29-28.78l4.48,37.37,3.97-.48-4.94-41.21c.51-.02,1.02-.05,1.53-.07l44.69,51.13,3.01-2.63-42.62-48.77c18.27-1.15,36.45-4.29,53.85-9.37l-1.12-3.84Z"/>
</svg>