<?xml version="1.0" encoding="UTF-8"?>
<svg id="Layer_1" data-name="Layer 1" xmlns="http://www.w3.org/2000/svg" viewBox="0 0 500 500">
  <defs>
    <style>
      .cls-1 {
        fill: #231f20;
        stroke: #000;
        stroke-miterlimit: 10;
        stroke-width: 10px;
      }
    </style>
  </defs>
  <path class="cls-1" d="m488.45,98.04c-15.05,6.28-27.94,10.47-39.48,12.8,15.32-12.24,25.81-28.05,31.27-47.17.43-1.51-.1-3.13-1.34-4.1-1.24-.97-2.94-1.09-4.3-.3-20.18,11.65-39.38,19.11-58.61,22.78-19.2-19.97-45.91-31.37-73.63-31.37-56.31,0-102.13,45.82-102.13,102.13,0,6.49.63,13,1.87,19.41-67-1.25-131.09-34.56-195.81-101.7-.84-.87-2.05-1.31-3.24-1.15-1.2.15-2.27.85-2.87,1.9-24.1,41.71-16.33,91.71,17.54,124.95l-27.13-7.61c-1.2-.34-2.49-.07-3.46.71-.97.78-1.5,1.99-1.43,3.23,2.78,46.28,25.98,78.73,69.02,96.6-7.95.82-17.79.46-30.32-1.03-1.34-.16-2.66.39-3.49,1.45-.83,1.06-1.05,2.48-.57,3.74,15.75,41.81,44.46,65.31,85.42,69.97-32.5,24.01-74.86,34.5-135.66,33.81-1.71,0-3.26,1.12-3.74,2.78s.19,3.44,1.66,4.35c47.42,29.53,98.44,44.34,152.46,44.34,29.34,0,59.56-4.37,90.57-13.12.09-.03.18-.05.26-.08,62.06-22.4,112.52-59.84,145.94-108.27,33.46-48.49,49.8-108.05,47.33-172.38,18.67-13.62,35-30.76,48.56-50.97.95-1.41.86-3.28-.22-4.6-1.08-1.31-2.89-1.77-4.47-1.11Zm-50.05,51.63c-1.07.76-1.67,2.01-1.61,3.31,2.84,63.43-13.03,122.13-45.88,169.74-32.48,47.07-81.61,83.49-142.08,105.35-81.08,22.86-156.62,15.01-224.76-23.3,60.02-1.11,101.84-14.15,134.33-41.64,1.22-1.03,1.67-2.7,1.16-4.2-.52-1.51-1.91-2.54-3.5-2.6-41.46-1.61-69.7-21.21-86.13-59.86,17.75,1.67,30.19.78,39.8-2.78,1.54-.57,2.55-2.05,2.52-3.7-.03-1.64-1.1-3.08-2.66-3.59-46.52-15.11-71.34-44.22-75.74-88.88l39.11,10.97c1.81.5,3.72-.36,4.52-2.05.81-1.69.28-3.72-1.25-4.81-21.26-15.08-35.19-35.59-40.3-59.31-4.53-21.04-1.51-43.11,8.49-62.7,66.28,67.5,132.27,100.33,201.62,100.33.26,0,.52,0,.77-.03l.54-.06c1.1-.13,2.08-.72,2.71-1.63.63-.91.84-2.04.58-3.11-1.78-7.34-2.68-14.85-2.68-22.33,0-52.06,42.35-94.42,94.42-94.42,26.28,0,51.59,11.1,69.43,30.45.89.97,2.21,1.41,3.51,1.18,17.98-3.18,35.83-9.49,54.34-19.21-7.26,17.86-19.96,32.09-37.86,42.4-1.66.96-2.37,2.98-1.66,4.76l.08.19c.61,1.55,2.14,2.58,3.82,2.43,13.24-.79,27.82-4.2,45.17-10.62-11.85,15.49-25.53,28.8-40.79,39.68Z"/>
</svg>