<?xml version="1.0" encoding="UTF-8"?>
<svg id="Layer_1" data-name="Layer 1" xmlns="http://www.w3.org/2000/svg" viewBox="0 0 500 500">
  <defs>
    <style>
      .cls-1 {
        fill: #231f20;
        stroke: #000;
        stroke-miterlimit: 10;
        stroke-width: 10px;
      }
    </style>
  </defs>
  <path class="cls-1" d="m250,6.73c-101.39,0-183.87,82.48-183.87,183.87,0,30.88,7.81,61.43,22.59,88.36,25.09,58.64,71.44,130.88,127.18,198.24,8.4,10.15,20.78,16.01,33.96,16.08h.23c13.16,0,25.57-5.76,34.07-15.84,40.8-48.31,95.96-121.95,127.09-198.47,14.79-26.93,22.6-57.48,22.6-88.37,0-101.39-82.48-183.87-183.87-183.87Zm154.4,268.72l-.2.41c-30.74,75.66-85.44,148.67-125.92,196.6-7.04,8.33-17.3,13.1-28.18,13.1h-.19c-10.89-.05-21.12-4.9-28.06-13.28-55.35-66.87-101.31-138.51-126.11-196.53l-.17-.34c-14.21-25.83-21.73-55.16-21.73-84.8,0-97.13,79.02-176.15,176.15-176.15s176.15,79.02,176.15,176.15c0,29.67-7.52,59.01-21.75,84.85Z"/>
  <path class="cls-1" d="m250,125.43c-35.61,0-64.59,28.97-64.59,64.59s28.97,64.59,64.59,64.59,64.59-28.97,64.59-64.59-28.97-64.59-64.59-64.59Zm0,121.37c-31.31,0-56.78-25.47-56.78-56.78s25.47-56.78,56.78-56.78,56.78,25.47,56.78,56.78-25.47,56.78-56.78,56.78Z"/>
</svg>