<?xml version="1.0" encoding="UTF-8"?>
<svg id="Layer_1" data-name="Layer 1" xmlns="http://www.w3.org/2000/svg" viewBox="0 0 500 500">
  <defs>
    <style>
      .cls-1 {
        fill: #231f20;
        stroke: #000;
        stroke-miterlimit: 10;
        stroke-width: 10px;
      }
    </style>
  </defs>
  <path class="cls-1" d="m425.66,86.31s-.01,0-.02,0c-116.55-8.22-234.74-8.23-351.31,0-29.18,2.21-57.08,28.29-60.92,56.95-9.1,71.42-9.1,143.84,0,215.27,3.84,28.64,31.74,54.72,60.93,56.93,58.27,4.11,116.95,6.17,175.64,6.17s117.38-2.06,175.67-6.17c29.18-2.21,57.08-28.29,60.92-56.96,9.1-71.41,9.1-143.83,0-215.27-3.84-28.65-31.74-54.72-60.91-56.93Zm53.67,271.26c-3.41,25.46-28.24,48.64-54.2,50.61-116.21,8.2-234.05,8.2-350.24,0-25.98-1.97-50.8-25.15-54.22-50.58-9.02-70.8-9.02-142.6,0-213.38,3.41-25.46,28.24-48.63,54.2-50.6,58.1-4.1,116.62-6.15,175.13-6.15s117.02,2.05,175.12,6.15c25.97,1.97,50.8,25.15,54.21,50.58,9.02,70.8,9.02,142.6,0,213.38Z"/>
  <path class="cls-1" d="m334.29,246.65c-37.26-21.06-75.01-42.66-111.52-63.55l-24.56-14.06c-1.14-.65-2.53-.65-3.67,0-1.14.65-1.85,1.85-1.88,3.15-.94,51.53-.96,103.8-.04,155.36.02,1.31.74,2.51,1.87,3.15.57.32,1.2.48,1.83.48s1.27-.16,1.84-.49l26.27-15.03c35.97-20.58,73.16-41.85,109.84-62.58,1.16-.66,1.88-1.89,1.88-3.23s-.72-2.57-1.88-3.23Zm-113.52,62.59l-20.84,11.92c-.78-47.35-.76-95.25.03-142.58l19.13,10.94c34.65,19.83,70.42,40.31,105.85,60.35-34.84,19.71-70.06,39.85-104.17,59.37Z"/>
</svg>