<?xml version="1.0" encoding="UTF-8"?>
<svg id="Layer_1" data-name="Layer 1" xmlns="http://www.w3.org/2000/svg" viewBox="0 0 500 500">
  <defs>
    <style>
      .cls-1 {
        fill: #231f20;
        stroke: #000;
        stroke-miterlimit: 10;
        stroke-width: 10px;
      }
    </style>
  </defs>
  <path class="cls-1" d="m424.12,491.13c1.39.15,2.78.22,4.15.22,16.52,0,31.6-10.69,36.81-26.64l25.96-79.5c6.09-18.64-2.75-38.88-20.56-47.08l-87.08-40.1c-14.73-6.78-32.27-3.58-43.66,7.96l-38.91,39.46c-.93.94-2.35,1.23-3.53.71-61.18-27.06-108.71-74.71-145.28-145.66-.62-1.21-.38-2.74.61-3.72l40.46-40.35c11.06-11.03,14.39-27.51,8.47-41.98l-33.47-81.82c-7.33-17.92-26.96-27.68-45.68-22.71l-86.66,23.04c-18.54,4.93-30.76,23-28.43,42.02,15.26,124.54,58.09,222.72,127.29,291.81,69.21,69.11,166.62,110.93,289.51,124.31ZM37.78,40.61l86.66-23.04c14.89-3.96,30.52,3.81,36.35,18.07l33.47,81.82c4.71,11.51,2.06,24.62-6.74,33.4l-40.46,40.34c-3.44,3.43-4.26,8.62-2.05,12.92,36.91,71.61,87.07,121.83,149.1,149.26,4.15,1.84,9.12.88,12.34-2.38l38.91-39.46c9.06-9.19,23.02-11.73,34.74-6.34l87.08,40.1c14.17,6.53,21.2,22.63,16.36,37.46l-25.96,79.5c-4.49,13.75-18.19,22.58-32.61,21.02-121.06-13.18-216.88-54.24-284.79-122.05C72.26,293.42,30.2,196.79,15.16,74.05c-1.86-15.14,7.87-29.52,22.62-33.44Z"/>
</svg>