<?xml version="1.0" encoding="UTF-8"?>
<svg id="Layer_1" data-name="Layer 1" xmlns="http://www.w3.org/2000/svg" viewBox="0 0 500 500">
  <defs>
    <style>
      .cls-1 {
        fill: #231f20;
        stroke: #000;
        stroke-miterlimit: 10;
        stroke-width: 10px;
      }
    </style>
  </defs>
  <path class="cls-1" d="m426.01,81.65H77.8c-36.39,0-65.99,29.6-65.99,65.99v213.74c0,36.39,29.6,65.99,65.99,65.99h348.21c36.39,0,65.99-29.61,65.99-65.99v-213.74c0-36.39-29.61-65.99-65.99-65.99Zm-348.21,8.31h348.21c31.81,0,57.69,25.88,57.69,57.69v21.71l-202.22,129.23c-17.96,11.48-41.17,11.48-59.13,0L20.12,169.35v-21.71c0-31.81,25.88-57.69,57.69-57.69Zm348.21,329.11H77.8c-31.81,0-57.69-25.88-57.69-57.69v-182.17l197.75,126.37c10.34,6.61,22.19,9.91,34.04,9.91s23.7-3.3,34.04-9.91l197.75-126.37v182.17c0,31.81-25.88,57.69-57.69,57.69Z"/>
</svg>