<?xml version="1.0" encoding="UTF-8"?>
<svg id="Layer_1" data-name="Layer 1" xmlns="http://www.w3.org/2000/svg" viewBox="0 0 500 500">
  <defs>
    <style>
      .cls-1 {
        fill: #231f20;
        stroke: #000;
        stroke-miterlimit: 10;
        stroke-width: 10px;
      }
    </style>
  </defs>
  <path class="cls-1" d="m50.67,435.69c22.04,21.79,50.4,35.48,77.84,37.57,40.31,2.68,80.9,4.03,121.49,4.03s81.18-1.34,121.49-4.03h.04c27.4-2.08,55.75-15.78,77.8-37.57,22.09-21.84,36.03-50.06,38.25-77.45,5.12-71.82,5.12-144.66,0-216.52-2.21-27.35-16.16-55.57-38.25-77.41-22.04-21.79-50.4-35.48-77.84-37.57-80.62-5.37-162.37-5.37-243.03,0-27.4,2.08-55.75,15.77-77.8,37.56-22.09,21.84-36.03,50.05-38.25,77.45-5.12,71.82-5.12,144.66,0,216.52,2.21,27.35,16.16,55.57,38.25,77.41ZM21.22,142.43c4.28-52.9,54.71-102.85,107.87-106.88,40.12-2.67,80.52-4.01,120.92-4.01s80.77,1.33,120.85,4c53.21,4.04,103.63,53.99,107.91,106.84,5.09,71.41,5.09,143.82,0,215.18-4.28,52.89-54.7,102.83-107.9,106.89-80.22,5.34-161.57,5.34-241.75,0-53.21-4.04-103.63-53.99-107.91-106.84-5.09-71.41-5.09-143.82,0-215.18Z"/>
  <path class="cls-1" d="m250,343.47c51.54,0,93.47-41.93,93.47-93.47s-41.93-93.47-93.47-93.47-93.47,41.93-93.47,93.47,41.93,93.47,93.47,93.47Zm0-178.11c46.67,0,84.64,37.97,84.64,84.64s-37.97,84.64-84.64,84.64-84.64-37.97-84.64-84.64,37.97-84.64,84.64-84.64Z"/>
  <path class="cls-1" d="m378.3,151.05c16.15,0,29.29-13.14,29.29-29.29s-13.14-29.29-29.29-29.29-29.29,13.14-29.29,29.29,13.14,29.29,29.29,29.29Zm0-49.76c11.29,0,20.47,9.18,20.47,20.47s-9.18,20.47-20.47,20.47-20.47-9.18-20.47-20.47,9.18-20.47,20.47-20.47Z"/>
</svg>