<?xml version="1.0" encoding="UTF-8"?>
<svg id="Layer_1" data-name="Layer 1" xmlns="http://www.w3.org/2000/svg" viewBox="0 0 500 500">
  <path d="m204.71,265.35c-55.63,61.56-110.76,123.58-164.99,185.62l3.01,2.63c53.17-60.83,107.21-121.63,161.73-182.01-2.6,59.43-6.98,118.75-13.16,177.64l3.98.42c6.34-60.43,10.79-121.31,13.36-182.3,62.94,73.91,130.11,144.24,201.01,210.37l2.73-2.92c-70.97-66.2-138.21-136.62-201.19-210.63,1.16-1.28,2.32-2.56,3.48-3.85l151.66,10.8.28-3.99-148.53-10.58c52.71-58.21,105.85-116,159.09-172.99l-2.92-2.73c-53.97,57.76-107.83,116.34-161.24,175.36l-3.91-.28c2.69-70.27,2.89-140.65.54-210.62l-4,.13c2.35,69.82,2.14,140.06-.54,210.2l-1.24-.09c-50.25-59.58-97.75-121.47-142.23-185.34l-3.28,2.29c43.81,62.92,90.55,123.9,139.96,182.66l-130.23-9.27-.28,3.99,134.09,9.55c.97,1.15,1.95,2.29,2.93,3.44-.03.83-.06,1.66-.1,2.49Zm4.88-5.39c-.23.25-.46.51-.69.76.01-.27.02-.54.03-.81l.66.05Z"/>
</svg>