<?xml version="1.0" encoding="UTF-8"?>
<svg id="Layer_1" data-name="Layer 1" xmlns="http://www.w3.org/2000/svg" viewBox="0 0 500 500">
  <path d="m50.17,423.39l3.94.68c7.01-40.44,34.28-74.2,58.33-103.99l48.1-59.57.84-.05c4.55,65.72,13.69,131.11,27.39,195.58l3.91-.83c-13.41-63.14-22.45-127.16-27.07-191.5l162.51,147.87,2.69-2.96-163.21-148.5,40.33-2.19-.22-3.99-42.62,2.32c-.03-.43-.06-.86-.09-1.29l93.15-115.36-3.11-2.51-90.41,111.97c-2.81-45.85-3.38-91.85-1.69-137.78l-4-.15c-1.76,47.52-1.09,95.11,1.96,142.54l-.17.21-92.56-84.22-2.69,2.96,92.35,84.03-51.44,2.8.22,3.99,48.54-2.64-45.83,56.76c-24.36,30.17-51.96,64.36-59.16,105.82Z"/>
  <path d="m335.58,133.73l.46,3.97c10.31-1.18,20.65-2.56,30.97-4.11,0,.06.02.12.03.18-12.61,14.35-24.69,29.15-36.19,44.38l3.19,2.41c10.76-14.26,22.05-28.14,33.8-41.63,3.13,18.86,8.02,37.43,14.6,55.17l3.75-1.39c-6.87-18.53-11.87-37.98-14.92-57.71.23-.26.45-.51.67-.77,18.86,12.89,37.28,26.43,55.12,40.54l2.48-3.14c-17.32-13.7-35.2-26.88-53.5-39.45,13.4-2.16,26.76-4.62,39.97-7.38l-.82-3.92c-12.41,2.59-24.96,4.91-37.54,6.97,20.43-22.56,42.2-43.93,65.12-63.88l-2.62-3.02c-24.29,21.14-47.28,43.85-68.77,67.9-.06,0-.12.02-.18.03-.3-.2-.6-.41-.9-.61-1.96-14.93-2.82-29.98-2.49-44.89l-4-.09c-.31,13.95.39,28.02,2.07,42.01-14.92-9.98-30.1-19.55-45.48-28.66l-2.04,3.44c15.91,9.42,31.6,19.34,47.02,29.69-9.94,1.49-19.89,2.8-29.82,3.94Z"/>
</svg>