<?xml version="1.0" encoding="UTF-8"?>
<svg id="Layer_1" data-name="Layer 1" xmlns="http://www.w3.org/2000/svg" viewBox="0 0 500 500">
  <path d="m367,177.05c17.07-2,34.04-4.84,50.83-8.53l-.86-3.91c-17.22,3.79-34.65,6.68-52.17,8.67-.08-1.2-.16-2.4-.23-3.6,23.05-40.88,48.59-80.34,76.47-118.12l-3.22-2.38c-26.77,36.27-51.39,74.1-73.73,113.23-2.45-36.27-5.65-72.47-9.61-108.4l-3.98.44c4.18,37.87,7.5,76.05,9.99,114.29-.09.16-.18.32-.27.49l-73.21-84.32-3.02,2.62,74.15,85.41c-.2.37-.41.73-.62,1.1-20.05,1.99-40.22,2.81-60.36,2.43l-.07,4c3.22.06,6.43.09,9.65.09,16.17,0,32.34-.76,48.44-2.28-20.9,37.99-39.68,77.16-56.19,117.28l3.7,1.52c16.8-40.83,35.95-80.68,57.32-119.29.35-.04.7-.07,1.05-.11,2.49,40.38,4.03,80.81,4.6,121.02l4-.06c-.56-39.04-2.03-78.29-4.39-117.5l100.6,115.86,3.02-2.62-101.9-117.36Z"/>
  <path d="m114.68,90.51l.1,4,21.69-.53c.08.91.17,1.82.26,2.73-6.72,8.76-13.2,17.7-19.36,26.81l3.31,2.24c5.35-7.9,10.92-15.69,16.69-23.33,1.17,9.45,2.81,18.85,4.94,28.15l3.9-.89c-2.41-10.49-4.18-21.11-5.34-31.8.63-.82,1.25-1.64,1.89-2.46,11.88,10.99,23.12,22.67,33.57,34.99l3.05-2.59c-10.16-11.98-21.07-23.37-32.57-34.1l23.7-.58-.1-4-23.11.57c6.65-8.29,13.52-16.38,20.6-24.24l-2.97-2.68c-7.8,8.65-15.35,17.59-22.62,26.76-.78-.71-1.58-1.4-2.37-2.1-.62-8.93-.82-17.9-.56-26.86l-4-.11c-.22,7.74-.11,15.49.32,23.21-5.49-4.76-11.1-9.38-16.84-13.83l-2.45,3.16c6.73,5.22,13.27,10.7,19.66,16.35.02.2.03.41.05.61l-21.45.53Z"/>
  <path d="m136.31,332.35c-.29,41.19-1.38,82.37-3.29,123.27l4,.19c1.78-38.26,2.86-76.76,3.23-115.29,19.91,41.4,39.8,82.84,59.53,124.03l3.61-1.73c-20.9-43.63-41.97-87.53-63.06-131.37,0-1.2.02-2.4.03-3.6,28.23,1.26,56.4,3.62,84.33,7.07l.49-3.97c-28.09-3.47-56.43-5.84-84.81-7.1,0-.88,0-1.76,0-2.64l68.94-107.3-3.37-2.16-65.55,102.03c.04-38.08-.6-76.14-1.94-113.96l-4,.14c1.41,39.85,2.04,79.96,1.92,120.08l-.89,1.38c-17.11-35.56-34.23-71.07-51.25-106.32l-3.6,1.74c17.08,35.38,34.26,71.01,51.43,106.69-26.52-.98-53.06-1.01-79.48-.05l.14,4c26.21-.95,52.54-.92,78.84.04l-81.97,127.58,3.37,2.16,82.01-127.66c.44.92.89,1.84,1.33,2.76Z"/>
</svg>