<?xml version="1.0" encoding="UTF-8"?>
<svg id="Layer_1" data-name="Layer 1" xmlns="http://www.w3.org/2000/svg" viewBox="0 0 186.91 172.83">
  <defs>
    <style>
      .cls-1 {
        fill: #231f20;
      }
    </style>
  </defs>
  <path class="cls-1" d="m27.47,65.13c2.06,3.2,5.82,5.48,10.36,6.31-1.57,4.75-.93,9.89,1.81,13.58,3.43,4.62,9.31,6.18,13.64,6.67,1.33.15,2.65.23,3.95.23,6.94,0,13.29-2.14,17.82-6.1,3.95-3.45,8.82-11,7.29-17.01-1.42-5.6-7.81-10.19-13.38-11.83-1.87-.55-3.81-.86-5.8-.94.39-1.27.69-2.61.89-3.99.83-5.81-.05-12.62-2.48-19.16-2.21-5.94-5.55-9.85-9.66-11.3-4.66-1.65-10.14-.28-16.76,4.18-3.16,2.13-6.68,4.82-8.88,8.59-3.69,6.36-2.84,14.02-1.54,21.97.47,2.86.99,6.1,2.73,8.8h0Zm40.97-6.36c4.94,1.45,10.86,5.62,12.1,10.49,1.32,5.19-3.23,12.1-6.71,15.14-4.98,4.35-12.4,6.33-20.33,5.42-3.97-.45-9.33-1.85-12.36-5.93-2.4-3.23-2.91-7.97-1.41-12.21.68.06,1.35.1,2.03.1,4.32,0,8.65-1.24,12.28-3.58,3.9-2.51,6.76-6.02,8.47-10.31,2.03.03,4.03.32,5.93.88h0Zm-27.94,11.11c1.99-3.9,5.71-7.25,10.53-9.46,3.07-1.41,6.26-2.24,9.39-2.46-1.76,3.87-4.43,6.78-7.38,8.68-3.69,2.37-8.16,3.52-12.53,3.25h0Zm-12.61-34.58c2-3.45,5.32-5.97,8.31-7.98,4.5-3.04,8.37-4.54,11.72-4.54,1.19,0,2.31.19,3.38.56,4.51,1.59,7.13,6.42,8.53,10.19,3.44,9.25,3.34,16.78,1.35,22.5-3.64.14-7.36,1.04-10.93,2.68-5.34,2.45-9.45,6.24-11.59,10.67-.04.09-.08.18-.13.27-.04,0-.07,0-.11-.02-4.15-.69-7.57-2.71-9.39-5.53-1.53-2.37-2.02-5.41-2.46-8.09-1.24-7.6-2.07-14.9,1.31-20.73Z"/>
  <path class="cls-1" d="m157.02,118.54c-.53-1-1.67-2.19-4.06-2.19h-.08c-2.59.03-5.14,1.4-6.64,3.58l-23.9-8.7c-.04-.13-.07-.26-.11-.39,4.97-5.14,10.07-10.14,15.28-14.99.64.42,1.39.68,2.17.68.04,0,.08,0,.13,0,2.12-.08,3.94-2.01,3.9-4.15-.04-2.13-1.93-3.99-4.04-3.99-.05,0-.1,0-.14,0-.04,0-.08,0-.13,0-2.11.14-3.87,2.14-3.76,4.27.03.69.26,1.34.62,1.91-4.96,4.62-9.83,9.38-14.58,14.27-1.67-5.92-3.41-11.8-5.2-17.65,1.22-.63,2.23-1.87,2.84-3.51.56-1.51.63-2.93.2-4.12-.55-1.53-1.69-2.47-3.2-2.64-2.02-.23-4.43.99-5.6,2.83-1.09,1.71-1.15,3.97-.17,5.62.85,1.43,2.44,2.29,4.01,2.29.06,0,.12,0,.19,0,1.9,6.18,3.73,12.41,5.49,18.67-.03.03-.06.06-.09.1l-21.29-7.75c.07-.55.04-1.11-.13-1.66-.62-2.06-2.98-3.38-5.04-2.82-2.06.56-3.45,2.89-2.96,4.99.43,1.85,2.25,3.22,4.12,3.22.24,0,.49-.02.73-.07.09-.02.18-.05.26-.1.09,0,.18-.02.27-.05.92-.32,1.67-.99,2.16-1.82l20.52,7.47c-6.65,6.97-13.06,14.18-19.18,21.56-.91-.47-1.94-.6-2.88-.37-2.17.54-3.62,2.95-3.09,5.14.46,1.9,2.3,3.26,4.21,3.26.29,0,.58-.03.86-.1,2.16-.49,3.68-2.85,3.24-5.05-.03-.15-.09-.28-.18-.39-.16-.5-.42-.97-.77-1.39,6.26-7.55,12.81-14.9,19.62-22.01l.25.09c2.45,8.82,4.76,17.68,6.89,26.52-.57.21-1.1.5-1.55.85-1.28.99-2.08,2.44-2.14,3.88-.07,1.73.98,3.36,2.5,3.87.39.13.79.19,1.19.19.92,0,1.84-.31,2.72-.66,1.07-.44,2.29-.98,3.19-1.96.91-.99,1.54-2.64.88-4.11-.53-1.18-1.51-1.99-2.84-2.33-.69-.18-1.44-.21-2.2-.13-2.04-8.45-4.24-16.93-6.57-25.36l22.46,8.18c-.64,1.65-.68,3.44-.06,5.12.49,1.33,1.48,2.53,2.72,3.28.88.53,1.82.81,2.74.81.49,0,.98-.08,1.45-.24,1.68-.56,2.79-1.99,3.49-3.02,1.63-2.4,2.58-6.5,1.29-8.93h0Z"/>
</svg>